SeanSlab-NarrowSemibold.ufo
<glyph name="exclam" format="1">
  <advance width="264"/>
  <unicode hex="0021"/>
  <outline>
    <contour>
      <point x="168" y="229" type="line"/>
      <point x="180" y="722" type="line"/>
      <point x="84" y="722" type="line"/>
      <point x="95" y="229" type="line"/>
    </contour>
    <contour>
      <point x="131" y="-8" type="curve"/>
      <point x="165" y="-8"/>
      <point x="189" y="7"/>
      <point x="189" y="39" type="curve"/>
      <point x="189" y="70"/>
      <point x="165" y="85"/>
      <point x="132" y="85" type="curve"/>
      <point x="99" y="85"/>
      <point x="77" y="68"/>
      <point x="77" y="39" type="curve"/>
      <point x="77" y="8"/>
      <point x="98" y="-8"/>
    </contour>
  </outline>
</glyph>
<glyph name="quotedbl" format="1">
  <advance width="451"/>
  <unicode hex="0022"/>
  <outline>
    <contour>
      <point x="365" y="572" type="line"/>
      <point x="372" y="784" type="line"/>
      <point x="267" y="784" type="line"/>
      <point x="273" y="572" type="line"/>
    </contour>
    <contour>
      <point x="178" y="572" type="line"/>
      <point x="184" y="784" type="line"/>
      <point x="79" y="784" type="line"/>
      <point x="86" y="572" type="line"/>
    </contour>
  </outline>
</glyph>
<glyph name="numbersign" format="1">
  <advance width="686"/>
  <unicode hex="0023"/>
  <outline>
    <contour>
      <point x="402" y="300" type="line"/>
      <point x="232" y="300" type="line"/>
      <point x="283" y="459" type="line"/>
      <point x="452" y="459" type="line"/>
    </contour>
    <contour>
      <point x="542" y="231" type="line"/>
      <point x="556" y="266" type="line" smooth="yes"/>
      <point x="569" y="300" type="line"/>
      <point x="495" y="300" type="line"/>
      <point x="545" y="459" type="line"/>
      <point x="613" y="459" type="line"/>
      <point x="626" y="494" type="line" smooth="yes"/>
      <point x="639" y="528" type="line"/>
      <point x="567" y="528" type="line"/>
      <point x="629" y="722" type="line"/>
      <point x="536" y="722" type="line"/>
      <point x="474" y="528" type="line"/>
      <point x="305" y="528" type="line"/>
      <point x="366" y="722" type="line"/>
      <point x="274" y="722" type="line"/>
      <point x="214" y="528" type="line"/>
      <point x="139" y="528" type="line"/>
      <point x="126" y="494" type="line" smooth="yes"/>
      <point x="112" y="459" type="line"/>
      <point x="192" y="459" type="line"/>
      <point x="143" y="300" type="line"/>
      <point x="72" y="300" type="line"/>
      <point x="58" y="266" type="line" smooth="yes"/>
      <point x="44" y="231" type="line"/>
      <point x="121" y="231" type="line"/>
      <point x="64" y="46" type="line"/>
      <point x="152" y="46" type="line"/>
      <point x="211" y="231" type="line"/>
      <point x="380" y="231" type="line"/>
      <point x="319" y="39" type="line"/>
      <point x="412" y="39" type="line"/>
      <point x="473" y="231" type="line"/>
    </contour>
  </outline>
</glyph>
<glyph name="dollar" format="1">
  <advance width="583"/>
  <unicode hex="0024"/>
  <outline>
    <contour>
      <point x="316" y="-41" type="line"/>
      <point x="316" y="47" type="line"/>
      <point x="438" y="57"/>
      <point x="530" y="106"/>
      <point x="530" y="211" type="curve"/>
      <point x="530" y="317"/>
      <point x="425" y="360"/>
      <point x="311" y="406" type="curve"/>
      <point x="229" y="440"/>
      <point x="157" y="466"/>
      <point x="157" y="531" type="curve"/>
      <point x="157" y="589"/>
      <point x="212" y="617"/>
      <point x="285" y="617" type="curve"/>
      <point x="340" y="617"/>
      <point x="380" y="607"/>
      <point x="425" y="587" type="curve"/>
      <point x="425" y="499" type="line"/>
      <point x="497" y="499" type="line"/>
      <point x="497" y="634" type="line"/>
      <point x="438" y="662"/>
      <point x="389" y="679"/>
      <point x="327" y="684" type="curve"/>
      <point x="327" y="773" type="line"/>
      <point x="235" y="773" type="line"/>
      <point x="235" y="683" type="line"/>
      <point x="135" y="670"/>
      <point x="64" y="621"/>
      <point x="64" y="531" type="curve"/>
      <point x="64" y="429"/>
      <point x="148" y="386"/>
      <point x="257" y="343" type="curve"/>
      <point x="345" y="307"/>
      <point x="438" y="279"/>
      <point x="438" y="207" type="curve"/>
      <point x="438" y="137"/>
      <point x="364" y="114"/>
      <point x="274" y="114" type="curve"/>
      <point x="219" y="114"/>
      <point x="169" y="130"/>
      <point x="127" y="147" type="curve"/>
      <point x="127" y="230" type="line"/>
      <point x="55" y="230" type="line"/>
      <point x="55" y="95" type="line"/>
      <point x="104" y="74"/>
      <point x="160" y="54"/>
      <point x="223" y="47" type="curve"/>
      <point x="223" y="-41" type="line"/>
    </contour>
  </outline>
</glyph>
<glyph name="ampersand" format="1">
  <advance width="697"/>
  <unicode hex="0026"/>
  <outline>
    <contour>
      <point x="622" y="-10" type="curve"/>
      <point x="671" y="46" type="line"/>
      <point x="639" y="78"/>
      <point x="605" y="111"/>
      <point x="571" y="145" type="curve"/>
      <point x="604" y="193"/>
      <point x="631" y="251"/>
      <point x="654" y="315" type="curve"/>
      <point x="614" y="324" type="line" smooth="yes"/>
      <point x="574" y="332" type="line"/>
      <point x="557" y="283"/>
      <point x="538" y="239"/>
      <point x="515" y="200" type="curve"/>
      <point x="459" y="255"/>
      <point x="403" y="311"/>
      <point x="349" y="365" type="curve"/>
      <point x="346" y="368"/>
      <point x="343" y="371"/>
      <point x="340" y="375" type="curve"/>
      <point x="421" y="421"/>
      <point x="486" y="469"/>
      <point x="487" y="565" type="curve"/>
      <point x="487" y="670"/>
      <point x="410" y="727"/>
      <point x="302" y="727" type="curve"/>
      <point x="196" y="727"/>
      <point x="124" y="666"/>
      <point x="124" y="562" type="curve"/>
      <point x="124" y="487"/>
      <point x="166" y="436"/>
      <point x="218" y="387" type="curve"/>
      <point x="129" y="338"/>
      <point x="56" y="292"/>
      <point x="56" y="190" type="curve"/>
      <point x="56" y="62"/>
      <point x="157" y="-5"/>
      <point x="292" y="-5" type="curve"/>
      <point x="390" y="-5"/>
      <point x="465" y="29"/>
      <point x="524" y="88" type="curve"/>
      <point x="558" y="54"/>
      <point x="591" y="21"/>
    </contour>
    <contour>
      <point x="216" y="562" type="curve"/>
      <point x="216" y="617"/>
      <point x="247" y="657"/>
      <point x="298" y="657" type="curve"/>
      <point x="356" y="657"/>
      <point x="394" y="623"/>
      <point x="394" y="564" type="curve"/>
      <point x="394" y="494"/>
      <point x="346" y="460"/>
      <point x="287" y="425" type="curve"/>
      <point x="248" y="464"/>
      <point x="216" y="503"/>
    </contour>
    <contour>
      <point x="296" y="65" type="curve"/>
      <point x="211" y="65"/>
      <point x="149" y="107"/>
      <point x="149" y="190" type="curve"/>
      <point x="149" y="267"/>
      <point x="206" y="299"/>
      <point x="272" y="336" type="curve"/>
      <point x="277" y="332"/>
      <point x="281" y="328"/>
      <point x="286" y="323" type="curve"/>
      <point x="343" y="265"/>
      <point x="407" y="202"/>
      <point x="470" y="140" type="curve"/>
      <point x="426" y="93"/>
      <point x="370" y="65"/>
    </contour>
  </outline>
</glyph>
<glyph name="quotesingle" format="1">
  <advance width="264"/>
  <unicode hex="0027"/>
  <outline>
    <contour>
      <point x="178" y="572" type="line"/>
      <point x="184" y="784" type="line"/>
      <point x="79" y="784" type="line"/>
      <point x="86" y="572" type="line"/>
    </contour>
  </outline>
</glyph>
<glyph name="parenleft" format="1">
  <advance width="388"/>
  <unicode hex="0028"/>
  <outline>
    <contour>
      <point x="313" y="-268" type="curve"/>
      <point x="369" y="-220" type="line"/>
      <point x="211" y="-58"/>
      <point x="144" y="99"/>
      <point x="144" y="326" type="curve"/>
      <point x="144" y="554"/>
      <point x="212" y="709"/>
      <point x="368" y="874" type="curve"/>
      <point x="341" y="896" type="line" smooth="yes"/>
      <point x="313" y="918" type="line"/>
      <point x="137" y="743"/>
      <point x="53" y="578"/>
      <point x="53" y="326" type="curve"/>
      <point x="53" y="74"/>
      <point x="137" y="-91"/>
    </contour>
  </outline>
</glyph>
<glyph name="parenright" format="1">
  <advance width="401"/>
  <unicode hex="0029"/>
  <outline>
    <contour>
      <point x="46" y="-260" type="line"/>
      <point x="46" y="-260"/>
      <point x="46" y="-260"/>
      <point x="74" y="-282" type="curve"/>
      <point x="253" y="-97"/>
      <point x="348" y="68"/>
      <point x="348" y="328" type="curve"/>
      <point x="348" y="582"/>
      <point x="260" y="746"/>
      <point x="78" y="920" type="curve"/>
      <point x="22" y="872" type="line"/>
      <point x="183" y="709"/>
      <point x="256" y="555"/>
      <point x="256" y="325" type="curve"/>
      <point x="256" y="90"/>
      <point x="174" y="-65"/>
      <point x="17" y="-237" type="curve"/>
    </contour>
  </outline>
</glyph>
<glyph name="asterisk" format="1">
  <advance width="581"/>
  <unicode hex="002A"/>
  <outline>
    <contour>
      <point x="374" y="367" type="line"/>
      <point x="458" y="429" type="line"/>
      <point x="369" y="544" type="line"/>
      <point x="509" y="585" type="line"/>
      <point x="477" y="684" type="line"/>
      <point x="339" y="635" type="line"/>
      <point x="344" y="781" type="line"/>
      <point x="239" y="781" type="line"/>
      <point x="243" y="635" type="line"/>
      <point x="105" y="685" type="line"/>
      <point x="73" y="585" type="line"/>
      <point x="214" y="544" type="line"/>
      <point x="124" y="429" type="line"/>
      <point x="209" y="367" type="line"/>
      <point x="291" y="488" type="line"/>
    </contour>
    <contour>
      <point x="292" y="569" type="line"/>
      <point x="291" y="569" type="line"/>
      <point x="291" y="569" type="line"/>
    </contour>
  </outline>
</glyph>
<glyph name="plus" format="1">
  <advance width="668"/>
  <unicode hex="002B"/>
  <outline>
    <contour>
      <point x="616" y="273" type="line"/>
      <point x="616" y="349" type="line"/>
      <point x="380" y="349" type="line"/>
      <point x="380" y="588" type="line"/>
      <point x="293" y="588" type="line"/>
      <point x="293" y="349" type="line"/>
      <point x="52" y="349" type="line"/>
      <point x="52" y="273" type="line"/>
      <point x="293" y="273" type="line"/>
      <point x="293" y="18" type="line"/>
      <point x="380" y="18" type="line"/>
      <point x="380" y="273" type="line"/>
    </contour>
  </outline>
</glyph>
<glyph name="hyphen" format="1">
  <advance width="445"/>
  <unicode hex="002D"/>
  <outline>
    <contour>
      <point x="368" y="240" type="line"/>
      <point x="368" y="317" type="line"/>
      <point x="77" y="317" type="line"/>
      <point x="77" y="240" type="line"/>
    </contour>
  </outline>
</glyph>
<glyph name="period" format="1">
  <advance width="261"/>
  <unicode hex="002E"/>
  <outline>
    <contour>
      <point x="129" y="-8" type="curve"/>
      <point x="163" y="-8"/>
      <point x="187" y="7"/>
      <point x="187" y="39" type="curve"/>
      <point x="187" y="70"/>
      <point x="163" y="85"/>
      <point x="130" y="85" type="curve"/>
      <point x="97" y="85"/>
      <point x="75" y="68"/>
      <point x="75" y="39" type="curve"/>
      <point x="75" y="8"/>
      <point x="96" y="-8"/>
    </contour>
  </outline>
</glyph>
<glyph name="slash" format="1">
  <advance width="592"/>
  <unicode hex="002F"/>
  <outline>
    <contour>
      <point x="129" y="-38" type="line"/>
      <point x="271" y="245"/>
      <point x="413" y="528"/>
      <point x="555" y="810" type="curve"/>
      <point x="463" y="810" type="line"/>
      <point x="320" y="528"/>
      <point x="179" y="245"/>
      <point x="36" y="-38" type="curve"/>
    </contour>
  </outline>
</glyph>
<glyph name="zero" format="1">
  <advance width="747"/>
  <unicode hex="0030"/>
  <outline>
    <contour>
      <point x="60" y="360" type="curve"/>
      <point x="60" y="140"/>
      <point x="161" y="-5"/>
      <point x="374" y="-5" type="curve"/>
      <point x="588" y="-5"/>
      <point x="686" y="141"/>
      <point x="686" y="363" type="curve"/>
      <point x="686" y="582"/>
      <point x="589" y="727"/>
      <point x="379" y="727" type="curve"/>
      <point x="163" y="727"/>
      <point x="60" y="583"/>
    </contour>
    <contour>
      <point x="155" y="360" type="curve"/>
      <point x="155" y="532"/>
      <point x="215" y="654"/>
      <point x="370" y="654" type="curve"/>
      <point x="528" y="654"/>
      <point x="591" y="534"/>
      <point x="591" y="363" type="curve"/>
      <point x="591" y="192"/>
      <point x="530" y="68"/>
      <point x="378" y="68" type="curve"/>
      <point x="223" y="68"/>
      <point x="155" y="188"/>
    </contour>
  </outline>
</glyph>
<glyph name="one" format="1">
  <advance width="464"/>
  <unicode hex="0031"/>
  <outline>
    <contour>
      <point x="123" y="0" type="line"/>
      <point x="435" y="0" type="line"/>
      <point x="435" y="70" type="line"/>
      <point x="325" y="70" type="line"/>
      <point x="325" y="722" type="line"/>
      <point x="233" y="722" type="line"/>
      <point x="138" y="643" type="line" smooth="yes"/>
      <point x="42" y="564" type="line"/>
      <point x="84" y="502" type="line"/>
      <point x="194" y="591" type="line" smooth="yes"/>
      <point x="233" y="622" type="line"/>
      <point x="233" y="70" type="line"/>
      <point x="123" y="70" type="line"/>
    </contour>
  </outline>
</glyph>
<glyph name="two" format="1">
  <advance width="602"/>
  <unicode hex="0032"/>
  <outline>
    <contour>
      <point x="466" y="70" type="line"/>
      <point x="159" y="70" type="line"/>
      <point x="223" y="117"/>
      <point x="274" y="163"/>
      <point x="327" y="210" type="curve"/>
      <point x="418" y="280"/>
      <point x="512" y="374"/>
      <point x="512" y="517" type="curve"/>
      <point x="512" y="655"/>
      <point x="432" y="727"/>
      <point x="294" y="727" type="curve"/>
      <point x="183" y="727"/>
      <point x="110" y="671"/>
      <point x="56" y="575" type="curve"/>
      <point x="88" y="554" type="line" smooth="yes"/>
      <point x="119" y="533" type="line"/>
      <point x="170" y="605"/>
      <point x="211" y="655"/>
      <point x="290" y="655" type="curve"/>
      <point x="377" y="655"/>
      <point x="425" y="605"/>
      <point x="425" y="514" type="curve"/>
      <point x="425" y="405"/>
      <point x="338" y="322"/>
      <point x="269" y="265" type="curve"/>
      <point x="47" y="70" type="line"/>
      <point x="47" y="0" type="line"/>
      <point x="538" y="0" type="line"/>
      <point x="538" y="190" type="line"/>
      <point x="466" y="190" type="line"/>
    </contour>
  </outline>
</glyph>
<glyph name="three" format="1">
  <advance width="562"/>
  <unicode hex="0033"/>
  <outline>
    <contour>
      <point x="245" y="-5" type="curve"/>
      <point x="401" y="-5"/>
      <point x="505" y="56"/>
      <point x="505" y="211" type="curve"/>
      <point x="505" y="300"/>
      <point x="446" y="355"/>
      <point x="354" y="383" type="curve"/>
      <point x="426" y="412"/>
      <point x="472" y="462"/>
      <point x="472" y="539" type="curve"/>
      <point x="472" y="668"/>
      <point x="383" y="727"/>
      <point x="250" y="727" type="curve"/>
      <point x="165" y="727"/>
      <point x="92" y="685"/>
      <point x="56" y="641" type="curve"/>
      <point x="80" y="616" type="line" smooth="yes"/>
      <point x="103" y="590" type="line"/>
      <point x="132" y="620"/>
      <point x="187" y="655"/>
      <point x="244" y="655" type="curve"/>
      <point x="329" y="655"/>
      <point x="383" y="621"/>
      <point x="383" y="536" type="curve"/>
      <point x="383" y="447"/>
      <point x="282" y="413"/>
      <point x="168" y="413" type="curve"/>
      <point x="168" y="348" type="line"/>
      <point x="298" y="348"/>
      <point x="416" y="308"/>
      <point x="416" y="208" type="curve"/>
      <point x="416" y="104"/>
      <point x="338" y="68"/>
      <point x="248" y="68" type="curve"/>
      <point x="200" y="68"/>
      <point x="147" y="85"/>
      <point x="94" y="114" type="curve"/>
      <point x="74" y="85" type="line" smooth="yes"/>
      <point x="54" y="55" type="line"/>
      <point x="101" y="21"/>
      <point x="166" y="-5"/>
    </contour>
  </outline>
</glyph>
<glyph name="four" format="1">
  <advance width="625"/>
  <unicode hex="0034"/>
  <outline>
    <contour>
      <point x="335" y="320" type="line"/>
      <point x="122" y="320" type="line"/>
      <point x="335" y="590" type="line"/>
    </contour>
    <contour>
      <point x="247" y="0" type="line"/>
      <point x="508" y="0" type="line"/>
      <point x="508" y="70" type="line"/>
      <point x="427" y="70" type="line"/>
      <point x="427" y="244" type="line"/>
      <point x="576" y="244" type="line"/>
      <point x="576" y="320" type="line"/>
      <point x="427" y="320" type="line"/>
      <point x="427" y="709" type="line"/>
      <point x="335" y="709" type="line"/>
      <point x="34" y="320" type="line"/>
      <point x="34" y="244" type="line"/>
      <point x="335" y="244" type="line"/>
      <point x="335" y="70" type="line"/>
      <point x="247" y="70" type="line"/>
    </contour>
  </outline>
</glyph>
<glyph name="five" format="1">
  <advance width="553"/>
  <unicode hex="0035"/>
  <outline>
    <contour>
      <point x="242" y="-5" type="curve"/>
      <point x="393" y="-5"/>
      <point x="500" y="87"/>
      <point x="500" y="234" type="curve"/>
      <point x="500" y="375"/>
      <point x="411" y="467"/>
      <point x="266" y="467" type="curve"/>
      <point x="237" y="467"/>
      <point x="205" y="462"/>
      <point x="175" y="450" type="curve"/>
      <point x="175" y="653" type="line"/>
      <point x="469" y="653" type="line"/>
      <point x="469" y="722" type="line"/>
      <point x="87" y="722" type="line"/>
      <point x="87" y="388" type="line"/>
      <point x="175" y="366" type="line"/>
      <point x="194" y="381"/>
      <point x="236" y="393"/>
      <point x="262" y="393" type="curve"/>
      <point x="360" y="393"/>
      <point x="407" y="330"/>
      <point x="407" y="234" type="curve"/>
      <point x="407" y="136"/>
      <point x="343" y="68"/>
      <point x="246" y="68" type="curve"/>
      <point x="190" y="68"/>
      <point x="148" y="79"/>
      <point x="91" y="105" type="curve"/>
      <point x="71" y="75" type="line" smooth="yes"/>
      <point x="50" y="44" type="line"/>
      <point x="113" y="12"/>
      <point x="170" y="-5"/>
    </contour>
  </outline>
</glyph>
<glyph name="six" format="1">
  <advance width="613"/>
  <unicode hex="0036"/>
  <outline>
    <contour>
      <point x="317" y="-9" type="curve"/>
      <point x="464" y="-9"/>
      <point x="556" y="72"/>
      <point x="556" y="215" type="curve"/>
      <point x="556" y="356"/>
      <point x="467" y="432"/>
      <point x="326" y="432" type="curve"/>
      <point x="262" y="432"/>
      <point x="208" y="411"/>
      <point x="164" y="379" type="curve"/>
      <point x="216" y="526"/>
      <point x="360" y="608"/>
      <point x="540" y="661" type="curve"/>
      <point x="530" y="696" type="line" smooth="yes"/>
      <point x="519" y="731" type="line"/>
      <point x="269" y="665"/>
      <point x="55" y="527"/>
      <point x="55" y="248" type="curve"/>
      <point x="55" y="86"/>
      <point x="153" y="-9"/>
    </contour>
    <contour>
      <point x="321" y="72" type="curve"/>
      <point x="208" y="72"/>
      <point x="144" y="140"/>
      <point x="144" y="252" type="curve"/>
      <point x="144" y="256" type="line"/>
      <point x="179" y="317"/>
      <point x="237" y="359"/>
      <point x="320" y="359" type="curve"/>
      <point x="411" y="359"/>
      <point x="463" y="308"/>
      <point x="463" y="215" type="curve"/>
      <point x="463" y="128"/>
      <point x="409" y="72"/>
    </contour>
  </outline>
</glyph>
<glyph name="seven" format="1">
  <advance width="556"/>
  <unicode hex="0037"/>
  <outline>
    <contour>
      <point x="531" y="653" type="line"/>
      <point x="531" y="722" type="line"/>
      <point x="48" y="722" type="line"/>
      <point x="48" y="544" type="line"/>
      <point x="120" y="544" type="line"/>
      <point x="120" y="653" type="line"/>
      <point x="438" y="653" type="line"/>
      <point x="83" y="0" type="line"/>
      <point x="190" y="0" type="line"/>
    </contour>
  </outline>
</glyph>
<glyph name="eight" format="1">
  <advance width="593"/>
  <unicode hex="0038"/>
  <outline>
    <contour>
      <point x="78" y="550" type="curve"/>
      <point x="78" y="455"/>
      <point x="137" y="416"/>
      <point x="217" y="378" type="curve"/>
      <point x="126" y="333"/>
      <point x="58" y="290"/>
      <point x="58" y="182" type="curve"/>
      <point x="58" y="51"/>
      <point x="151" y="-5"/>
      <point x="292" y="-5" type="curve"/>
      <point x="436" y="-5"/>
      <point x="535" y="47"/>
      <point x="535" y="182" type="curve"/>
      <point x="535" y="290"/>
      <point x="467" y="334"/>
      <point x="376" y="378" type="curve"/>
      <point x="456" y="417"/>
      <point x="516" y="454"/>
      <point x="516" y="548" type="curve"/>
      <point x="516" y="674"/>
      <point x="432" y="727"/>
      <point x="297" y="727" type="curve"/>
      <point x="165" y="727"/>
      <point x="78" y="673"/>
    </contour>
    <contour>
      <point x="297" y="66" type="curve"/>
      <point x="208" y="66"/>
      <point x="151" y="103"/>
      <point x="151" y="182" type="curve"/>
      <point x="151" y="272"/>
      <point x="216" y="302"/>
      <point x="298" y="341" type="curve"/>
      <point x="379" y="302"/>
      <point x="442" y="270"/>
      <point x="442" y="182" type="curve"/>
      <point x="442" y="103"/>
      <point x="385" y="66"/>
    </contour>
    <contour>
      <point x="170" y="550" type="curve"/>
      <point x="170" y="619"/>
      <point x="217" y="656"/>
      <point x="292" y="656" type="curve"/>
      <point x="374" y="656"/>
      <point x="424" y="622"/>
      <point x="424" y="548" type="curve"/>
      <point x="424" y="473"/>
      <point x="368" y="449"/>
      <point x="298" y="417" type="curve"/>
      <point x="227" y="451"/>
      <point x="170" y="475"/>
    </contour>
  </outline>
</glyph>
<glyph name="nine" format="1">
  <advance width="613"/>
  <unicode hex="0039"/>
  <outline>
    <contour>
      <point x="95" y="-10" type="curve"/>
      <point x="367" y="62"/>
      <point x="557" y="196"/>
      <point x="557" y="474" type="curve"/>
      <point x="557" y="637"/>
      <point x="459" y="731"/>
      <point x="294" y="731" type="curve"/>
      <point x="147" y="731"/>
      <point x="56" y="651"/>
      <point x="56" y="507" type="curve"/>
      <point x="56" y="366"/>
      <point x="147" y="291"/>
      <point x="291" y="291" type="curve"/>
      <point x="359" y="291"/>
      <point x="409" y="310"/>
      <point x="448" y="345" type="curve"/>
      <point x="400" y="200"/>
      <point x="261" y="122"/>
      <point x="74" y="64" type="curve"/>
      <point x="83" y="33"/>
      <point x="85" y="28"/>
      <point x="85" y="27" type="curve" smooth="yes"/>
      <point x="84" y="27" type="line" smooth="yes"/>
      <point x="84" y="26"/>
      <point x="86" y="21"/>
    </contour>
    <contour>
      <point x="300" y="364" type="curve"/>
      <point x="204" y="364"/>
      <point x="149" y="415"/>
      <point x="149" y="511" type="curve"/>
      <point x="149" y="600"/>
      <point x="202" y="650"/>
      <point x="290" y="650" type="curve"/>
      <point x="403" y="650"/>
      <point x="467" y="584"/>
      <point x="467" y="471" type="curve"/>
      <point x="467" y="467" type="line"/>
      <point x="431" y="406"/>
      <point x="381" y="364"/>
    </contour>
  </outline>
</glyph>
<glyph name="colon" format="1">
  <advance width="265"/>
  <unicode hex="003A"/>
  <outline>
    <contour>
      <point x="131" y="347" type="curve"/>
      <point x="165" y="347"/>
      <point x="189" y="361"/>
      <point x="189" y="393" type="curve"/>
      <point x="189" y="425"/>
      <point x="165" y="440"/>
      <point x="132" y="440" type="curve"/>
      <point x="99" y="440"/>
      <point x="77" y="423"/>
      <point x="77" y="393" type="curve"/>
      <point x="77" y="363"/>
      <point x="98" y="347"/>
    </contour>
    <contour>
      <point x="131" y="-7" type="curve"/>
      <point x="164" y="-7"/>
      <point x="188" y="7"/>
      <point x="188" y="39" type="curve"/>
      <point x="188" y="71"/>
      <point x="164" y="86"/>
      <point x="131" y="86" type="curve"/>
      <point x="98" y="86"/>
      <point x="76" y="69"/>
      <point x="76" y="39" type="curve"/>
      <point x="76" y="9"/>
      <point x="98" y="-7"/>
    </contour>
  </outline>
</glyph>
<glyph name="semicolon" format="1">
  <advance width="298"/>
  <unicode hex="003B"/>
  <outline>
    <contour>
      <point x="138" y="356" type="curve"/>
      <point x="172" y="356"/>
      <point x="196" y="370"/>
      <point x="196" y="402" type="curve"/>
      <point x="196" y="433"/>
      <point x="172" y="448"/>
      <point x="139" y="448" type="curve"/>
      <point x="106" y="448"/>
      <point x="84" y="431"/>
      <point x="84" y="402" type="curve"/>
      <point x="84" y="371"/>
      <point x="105" y="356"/>
    </contour>
    <contour>
      <point x="141" y="4" type="curve"/>
      <point x="139" y="-41"/>
      <point x="122" y="-73"/>
      <point x="71" y="-95" type="curve"/>
      <point x="78" y="-142" type="line"/>
      <point x="151" y="-133"/>
      <point x="209" y="-74"/>
      <point x="209" y="4" type="curve"/>
      <point x="209" y="55"/>
      <point x="185" y="96"/>
      <point x="142" y="96" type="curve"/>
      <point x="110" y="96"/>
      <point x="86" y="80"/>
      <point x="86" y="50" type="curve"/>
      <point x="86" y="20"/>
      <point x="109" y="5"/>
    </contour>
  </outline>
</glyph>
<glyph name="less" format="1">
  <advance width="713"/>
  <unicode hex="003C"/>
  <outline>
    <contour>
      <point x="659" y="-2" type="curve"/>
      <point x="659" y="74" type="line"/>
      <point x="482" y="150"/>
      <point x="305" y="225"/>
      <point x="127" y="301" type="curve"/>
      <point x="649" y="532" type="line"/>
      <point x="649" y="608" type="line"/>
      <point x="40" y="338" type="line"/>
      <point x="40" y="262" type="line"/>
      <point x="247" y="174"/>
      <point x="453" y="86"/>
    </contour>
  </outline>
</glyph>
<glyph name="equal" format="1">
  <advance width="785"/>
  <unicode hex="003D"/>
  <outline>
    <contour>
      <point x="706" y="403" type="line"/>
      <point x="706" y="476" type="line"/>
      <point x="77" y="476" type="line"/>
      <point x="77" y="403" type="line"/>
    </contour>
    <contour>
      <point x="706" y="181" type="line"/>
      <point x="706" y="254" type="line"/>
      <point x="77" y="254" type="line"/>
      <point x="77" y="181" type="line"/>
    </contour>
  </outline>
</glyph>
<glyph name="greater" format="1">
  <advance width="713"/>
  <unicode hex="003E"/>
  <outline>
    <contour>
      <point x="63" y="-2" type="line"/>
      <point x="672" y="268" type="line"/>
      <point x="672" y="344" type="line"/>
      <point x="466" y="432"/>
      <point x="259" y="520"/>
      <point x="53" y="608" type="curve"/>
      <point x="53" y="532" type="line"/>
      <point x="230" y="456"/>
      <point x="408" y="381"/>
      <point x="585" y="305" type="curve"/>
      <point x="63" y="74" type="line"/>
    </contour>
  </outline>
</glyph>
<glyph name="question" format="1">
  <advance width="541"/>
  <unicode hex="003F"/>
  <outline>
    <contour>
      <point x="291" y="221" type="line"/>
      <point x="291" y="294" type="line"/>
      <point x="408" y="319"/>
      <point x="483" y="399"/>
      <point x="483" y="519" type="curve"/>
      <point x="483" y="652"/>
      <point x="391" y="734"/>
      <point x="255" y="734" type="curve"/>
      <point x="167" y="734"/>
      <point x="107" y="699"/>
      <point x="56" y="641" type="curve"/>
      <point x="105" y="590" type="line"/>
      <point x="135" y="628"/>
      <point x="186" y="662"/>
      <point x="250" y="662" type="curve"/>
      <point x="339" y="662"/>
      <point x="394" y="608"/>
      <point x="394" y="519" type="curve"/>
      <point x="394" y="422"/>
      <point x="322" y="359"/>
      <point x="211" y="359" type="curve"/>
      <point x="199" y="359" type="line"/>
      <point x="199" y="221" type="line"/>
    </contour>
    <contour>
      <point x="245" y="-31" type="curve"/>
      <point x="278" y="-31"/>
      <point x="302" y="-17"/>
      <point x="302" y="15" type="curve"/>
      <point x="302" y="47"/>
      <point x="278" y="62"/>
      <point x="245" y="62" type="curve"/>
      <point x="212" y="62"/>
      <point x="190" y="45"/>
      <point x="190" y="15" type="curve"/>
      <point x="190" y="-16"/>
      <point x="212" y="-31"/>
    </contour>
  </outline>
</glyph>
<glyph name="at" format="1">
  <advance width="855"/>
  <unicode hex="0040"/>
  <outline>
    <contour>
      <point x="436" y="-136" type="curve"/>
      <point x="510" y="-136"/>
      <point x="568" y="-120"/>
      <point x="620" y="-91" type="curve"/>
      <point x="604" y="-62" type="line" smooth="yes"/>
      <point x="588" y="-32" type="line"/>
      <point x="536" y="-57"/>
      <point x="497" y="-66"/>
      <point x="441" y="-66" type="curve"/>
      <point x="252" y="-66"/>
      <point x="144" y="33"/>
      <point x="144" y="218" type="curve"/>
      <point x="144" y="399"/>
      <point x="253" y="495"/>
      <point x="436" y="495" type="curve"/>
      <point x="609" y="495"/>
      <point x="709" y="398"/>
      <point x="709" y="228" type="curve"/>
      <point x="709" y="162"/>
      <point x="706" y="104"/>
      <point x="662" y="104" type="curve"/>
      <point x="610" y="104"/>
      <point x="602" y="159"/>
      <point x="602" y="223" type="curve"/>
      <point x="602" y="337"/>
      <point x="540" y="407"/>
      <point x="427" y="407" type="curve"/>
      <point x="304" y="407"/>
      <point x="233" y="341"/>
      <point x="233" y="221" type="curve"/>
      <point x="233" y="100"/>
      <point x="296" y="26"/>
      <point x="416" y="26" type="curve"/>
      <point x="477" y="26"/>
      <point x="519" y="50"/>
      <point x="547" y="92" type="curve"/>
      <point x="569" y="58"/>
      <point x="603" y="39"/>
      <point x="654" y="39" type="curve"/>
      <point x="760" y="39"/>
      <point x="798" y="118"/>
      <point x="798" y="231" type="curve"/>
      <point x="798" y="449"/>
      <point x="665" y="567"/>
      <point x="441" y="567" type="curve"/>
      <point x="201" y="567"/>
      <point x="55" y="448"/>
      <point x="55" y="215" type="curve"/>
      <point x="55" y="-16"/>
      <point x="199" y="-136"/>
    </contour>
    <contour>
      <point x="428" y="96" type="curve"/>
      <point x="353" y="96"/>
      <point x="321" y="147"/>
      <point x="321" y="225" type="curve"/>
      <point x="321" y="295"/>
      <point x="352" y="338"/>
      <point x="418" y="338" type="curve"/>
      <point x="487" y="338"/>
      <point x="518" y="292"/>
      <point x="518" y="220" type="curve"/>
      <point x="518" y="206"/>
      <point x="519" y="193"/>
      <point x="520" y="181" type="curve"/>
      <point x="503" y="132"/>
      <point x="478" y="96"/>
    </contour>
  </outline>
</glyph>
<glyph name="B" format="1">
  <advance width="680"/>
  <unicode hex="0042"/>
  <outline>
    <contour>
      <point x="368" y="653" type="line"/>
      <point x="439" y="653"/>
      <point x="485" y="614"/>
      <point x="485" y="542" type="curve"/>
      <point x="485" y="473"/>
      <point x="431" y="442"/>
      <point x="360" y="442" type="curve"/>
      <point x="229" y="442" type="line"/>
      <point x="229" y="653" type="line"/>
    </contour>
    <contour>
      <point x="360" y="372" type="line"/>
      <point x="464" y="372"/>
      <point x="532" y="319"/>
      <point x="532" y="215" type="curve"/>
      <point x="532" y="118"/>
      <point x="468" y="70"/>
      <point x="367" y="70" type="curve"/>
      <point x="229" y="70" type="line"/>
      <point x="229" y="372" type="line"/>
    </contour>
    <contour>
      <point x="41" y="0" type="line"/>
      <point x="367" y="0" type="line"/>
      <point x="522" y="0"/>
      <point x="625" y="69"/>
      <point x="625" y="215" type="curve"/>
      <point x="625" y="314"/>
      <point x="568" y="375"/>
      <point x="491" y="409" type="curve"/>
      <point x="542" y="435"/>
      <point x="578" y="478"/>
      <point x="578" y="542" type="curve"/>
      <point x="578" y="662"/>
      <point x="493" y="722"/>
      <point x="368" y="722" type="curve"/>
      <point x="42" y="722" type="line"/>
      <point x="42" y="653" type="line"/>
      <point x="132" y="653" type="line"/>
      <point x="132" y="70" type="line"/>
      <point x="41" y="70" type="line"/>
    </contour>
  </outline>
</glyph>
<glyph name="C" format="1">
  <advance width="712"/>
  <unicode hex="0043"/>
  <outline>
    <contour>
      <point x="666" y="92" type="curve"/>
      <point x="647" y="122" type="line" smooth="yes"/>
      <point x="646" y="122"/>
      <point x="646" y="122"/>
      <point x="627" y="152" type="curve"/>
      <point x="550" y="96"/>
      <point x="488" y="70"/>
      <point x="395" y="70" type="curve"/>
      <point x="231" y="70"/>
      <point x="151" y="177"/>
      <point x="151" y="348" type="curve"/>
      <point x="151" y="533"/>
      <point x="236" y="654"/>
      <point x="412" y="654" type="curve"/>
      <point x="477" y="654"/>
      <point x="534" y="639"/>
      <point x="586" y="612" type="curve"/>
      <point x="586" y="510" type="line"/>
      <point x="659" y="510" type="line"/>
      <point x="659" y="655" type="line"/>
      <point x="586" y="695"/>
      <point x="507" y="727"/>
      <point x="416" y="727" type="curve"/>
      <point x="183" y="727"/>
      <point x="58" y="583"/>
      <point x="58" y="344" type="curve"/>
      <point x="58" y="125"/>
      <point x="175" y="-5"/>
      <point x="392" y="-5" type="curve"/>
      <point x="512" y="-5"/>
      <point x="584" y="28"/>
    </contour>
    <contour>
      <point x="407" y="825" type="move" name="top"/>
    </contour>
    <contour>
      <point x="391" y="1" type="move" name="bottom"/>
    </contour>
  </outline>
</glyph>
<glyph name="D" format="1">
  <advance width="786"/>
  <unicode hex="0044"/>
  <outline>
    <contour>
      <point x="353" y="653" type="line"/>
      <point x="542" y="653"/>
      <point x="638" y="543"/>
      <point x="638" y="352" type="curve"/>
      <point x="638" y="174"/>
      <point x="549" y="70"/>
      <point x="373" y="70" type="curve"/>
      <point x="224" y="70" type="line"/>
      <point x="224" y="653" type="line"/>
    </contour>
    <contour>
      <point x="42" y="0" type="line"/>
      <point x="366" y="0" type="line"/>
      <point x="601" y="0"/>
      <point x="729" y="123"/>
      <point x="729" y="355" type="curve"/>
      <point x="729" y="595"/>
      <point x="598" y="722"/>
      <point x="358" y="722" type="curve"/>
      <point x="42" y="722" type="line"/>
      <point x="42" y="653" type="line"/>
      <point x="132" y="653" type="line"/>
      <point x="132" y="70" type="line"/>
      <point x="42" y="70" type="line"/>
    </contour>
    <contour>
      <point x="347" y="840" type="move" name="top"/>
    </contour>
  </outline>
</glyph>
<glyph name="F" format="1">
  <advance width="627"/>
  <unicode hex="0046"/>
  <outline>
    <contour>
      <point x="41" y="0" type="line"/>
      <point x="327" y="0" type="line"/>
      <point x="327" y="70" type="line"/>
      <point x="226" y="70" type="line"/>
      <point x="226" y="339" type="line"/>
      <point x="505" y="339" type="line"/>
      <point x="505" y="408" type="line"/>
      <point x="226" y="408" type="line"/>
      <point x="226" y="653" type="line"/>
      <point x="506" y="653" type="line"/>
      <point x="506" y="573" type="line"/>
      <point x="578" y="573" type="line"/>
      <point x="578" y="722" type="line"/>
      <point x="41" y="722" type="line"/>
      <point x="41" y="653" type="line"/>
      <point x="133" y="653" type="line"/>
      <point x="133" y="70" type="line"/>
      <point x="41" y="70" type="line"/>
    </contour>
  </outline>
</glyph>
<glyph name="G" format="1">
  <advance width="795"/>
  <unicode hex="0047"/>
  <outline>
    <contour>
      <point x="731" y="78" type="curve"/>
      <point x="731" y="347" type="line"/>
      <point x="485" y="347" type="line"/>
      <point x="485" y="277" type="line"/>
      <point x="647" y="277" type="line"/>
      <point x="647" y="114" type="line"/>
      <point x="581" y="83"/>
      <point x="515" y="68"/>
      <point x="431" y="68" type="curve"/>
      <point x="245" y="68"/>
      <point x="149" y="180"/>
      <point x="149" y="369" type="curve"/>
      <point x="149" y="548"/>
      <point x="243" y="654"/>
      <point x="420" y="654" type="curve"/>
      <point x="504" y="654"/>
      <point x="571" y="637"/>
      <point x="641" y="600" type="curve"/>
      <point x="641" y="509" type="line"/>
      <point x="713" y="509" type="line"/>
      <point x="713" y="644" type="line"/>
      <point x="618" y="700"/>
      <point x="531" y="727"/>
      <point x="420" y="727" type="curve"/>
      <point x="188" y="727"/>
      <point x="56" y="596"/>
      <point x="56" y="362" type="curve"/>
      <point x="56" y="124"/>
      <point x="193" y="-5"/>
      <point x="431" y="-5" type="curve"/>
      <point x="550" y="-5"/>
      <point x="626" y="24"/>
    </contour>
    <contour>
      <point x="417" y="825" type="move" name="top"/>
    </contour>
    <contour>
      <point x="416" y="-27" type="move" name="bottom"/>
    </contour>
  </outline>
</glyph>
<glyph name="H" format="1">
  <advance width="865"/>
  <unicode hex="0048"/>
  <outline>
    <contour>
      <point x="41" y="0" type="line"/>
      <point x="317" y="0" type="line"/>
      <point x="317" y="70" type="line"/>
      <point x="226" y="70" type="line"/>
      <point x="226" y="328" type="line"/>
      <point x="638" y="328" type="line"/>
      <point x="638" y="70" type="line"/>
      <point x="547" y="70" type="line"/>
      <point x="547" y="0" type="line"/>
      <point x="823" y="0" type="line"/>
      <point x="823" y="70" type="line"/>
      <point x="730" y="70" type="line"/>
      <point x="730" y="653" type="line"/>
      <point x="823" y="653" type="line"/>
      <point x="823" y="722" type="line"/>
      <point x="547" y="722" type="line"/>
      <point x="547" y="653" type="line"/>
      <point x="638" y="653" type="line"/>
      <point x="638" y="398" type="line"/>
      <point x="226" y="398" type="line"/>
      <point x="226" y="653" type="line"/>
      <point x="317" y="653" type="line"/>
      <point x="317" y="722" type="line"/>
      <point x="41" y="722" type="line"/>
      <point x="41" y="653" type="line"/>
      <point x="133" y="653" type="line"/>
      <point x="133" y="70" type="line"/>
      <point x="41" y="70" type="line"/>
    </contour>
  </outline>
</glyph>
<glyph name="I" format="1">
  <advance width="359"/>
  <unicode hex="0049"/>
  <outline>
    <contour>
      <point x="41" y="0" type="line"/>
      <point x="318" y="0" type="line"/>
      <point x="318" y="70" type="line"/>
      <point x="225" y="70" type="line"/>
      <point x="225" y="653" type="line"/>
      <point x="318" y="653" type="line"/>
      <point x="318" y="722" type="line"/>
      <point x="41" y="722" type="line"/>
      <point x="41" y="653" type="line"/>
      <point x="132" y="653" type="line"/>
      <point x="132" y="70" type="line"/>
      <point x="41" y="70" type="line"/>
    </contour>
    <contour>
      <point x="180" y="825" type="move" name="top"/>
    </contour>
    <contour>
      <point x="225" y="0" type="move" name="bottom"/>
    </contour>
  </outline>
</glyph>
<glyph name="J" format="1">
  <advance width="507"/>
  <unicode hex="004A"/>
  <outline>
    <contour>
      <point x="169" y="-5" type="curve"/>
      <point x="313" y="-5"/>
      <point x="385" y="78"/>
      <point x="385" y="231" type="curve"/>
      <point x="385" y="653" type="line"/>
      <point x="478" y="653" type="line"/>
      <point x="478" y="722" type="line"/>
      <point x="202" y="722" type="line"/>
      <point x="202" y="653" type="line"/>
      <point x="293" y="653" type="line"/>
      <point x="293" y="231" type="line"/>
      <point x="293" y="133"/>
      <point x="260" y="64"/>
      <point x="169" y="64" type="curve"/>
      <point x="130" y="64"/>
      <point x="104" y="79"/>
      <point x="75" y="97" type="curve"/>
      <point x="36" y="47"/>
      <point x="71" y="91"/>
      <point x="32" y="42" type="curve"/>
      <point x="67" y="18"/>
      <point x="112" y="-5"/>
    </contour>
  </outline>
</glyph>
<glyph name="K" format="1">
  <advance width="723"/>
  <unicode hex="004B"/>
  <outline>
    <contour>
      <point x="41" y="0" type="line"/>
      <point x="312" y="0" type="line"/>
      <point x="312" y="70" type="line"/>
      <point x="225" y="70" type="line"/>
      <point x="225" y="342" type="line"/>
      <point x="553" y="0" type="line"/>
      <point x="567" y="0"/>
      <point x="578" y="0"/>
      <point x="586" y="1" type="curve"/>
      <point x="586" y="0" type="line"/>
      <point x="704" y="0" type="line"/>
      <point x="704" y="70" type="line"/>
      <point x="609" y="70" type="line"/>
      <point x="305" y="380" type="line"/>
      <point x="578" y="653" type="line"/>
      <point x="672" y="653" type="line"/>
      <point x="672" y="722" type="line"/>
      <point x="376" y="722" type="line"/>
      <point x="376" y="653" type="line"/>
      <point x="462" y="653" type="line"/>
      <point x="225" y="416" type="line"/>
      <point x="225" y="653" type="line"/>
      <point x="307" y="653" type="line"/>
      <point x="307" y="722" type="line"/>
      <point x="41" y="722" type="line"/>
      <point x="41" y="653" type="line"/>
      <point x="133" y="653" type="line"/>
      <point x="133" y="70" type="line"/>
      <point x="41" y="70" type="line"/>
    </contour>
    <contour>
      <point x="363" y="-22" type="move" name="bottom"/>
    </contour>
  </outline>
</glyph>
<glyph name="L" format="1">
  <advance width="643"/>
  <unicode hex="004C"/>
  <outline>
    <contour>
      <point x="41" y="0" type="line"/>
      <point x="601" y="0" type="line"/>
      <point x="601" y="150" type="line"/>
      <point x="529" y="150" type="line"/>
      <point x="529" y="70" type="line"/>
      <point x="226" y="70" type="line"/>
      <point x="226" y="653" type="line"/>
      <point x="317" y="653" type="line"/>
      <point x="317" y="722" type="line"/>
      <point x="41" y="722" type="line"/>
      <point x="41" y="653" type="line"/>
      <point x="134" y="653" type="line"/>
      <point x="134" y="70" type="line"/>
      <point x="41" y="70" type="line"/>
    </contour>
    <contour>
      <point x="177" y="825" type="move" name="top"/>
    </contour>
    <contour>
      <point x="322" y="-24" type="move" name="bottom"/>
    </contour>
  </outline>
</glyph>
<glyph name="M" format="1">
  <advance width="1014"/>
  <unicode hex="004D"/>
  <outline>
    <contour>
      <point x="30" y="0" type="line"/>
      <point x="306" y="0" type="line"/>
      <point x="306" y="70" type="line"/>
      <point x="214" y="70" type="line"/>
      <point x="227" y="225"/>
      <point x="238" y="379"/>
      <point x="250" y="534" type="curve"/>
      <point x="319" y="356"/>
      <point x="388" y="178"/>
      <point x="457" y="0" type="curve"/>
      <point x="559" y="0" type="line"/>
      <point x="627" y="179"/>
      <point x="695" y="357"/>
      <point x="763" y="536" type="curve"/>
      <point x="775" y="381"/>
      <point x="787" y="225"/>
      <point x="799" y="70" type="curve"/>
      <point x="709" y="70" type="line"/>
      <point x="709" y="0" type="line"/>
      <point x="985" y="0" type="line"/>
      <point x="985" y="70" type="line"/>
      <point x="892" y="70" type="line"/>
      <point x="874" y="265"/>
      <point x="855" y="458"/>
      <point x="838" y="653" type="curve"/>
      <point x="929" y="653" type="line"/>
      <point x="929" y="722" type="line"/>
      <point x="743" y="722" type="line"/>
      <point x="665" y="517"/>
      <point x="586" y="313"/>
      <point x="507" y="108" type="curve"/>
      <point x="427" y="313"/>
      <point x="347" y="517"/>
      <point x="268" y="722" type="curve"/>
      <point x="84" y="722" type="line"/>
      <point x="84" y="653" type="line"/>
      <point x="169" y="653" type="line"/>
      <point x="153" y="458"/>
      <point x="138" y="265"/>
      <point x="122" y="70" type="curve"/>
      <point x="30" y="70" type="line"/>
    </contour>
  </outline>
</glyph>
<glyph name="N" format="1">
  <advance width="881"/>
  <unicode hex="004E"/>
  <outline>
    <contour>
      <point x="41" y="0" type="line"/>
      <point x="317" y="0" type="line"/>
      <point x="317" y="70" type="line"/>
      <point x="225" y="70" type="line"/>
      <point x="225" y="586" type="line"/>
      <point x="368" y="391"/>
      <point x="511" y="195"/>
      <point x="655" y="0" type="curve"/>
      <point x="770" y="0" type="line"/>
      <point x="770" y="653" type="line"/>
      <point x="853" y="653" type="line"/>
      <point x="853" y="722" type="line"/>
      <point x="587" y="722" type="line"/>
      <point x="587" y="653" type="line"/>
      <point x="678" y="653" type="line"/>
      <point x="678" y="122" type="line"/>
      <point x="531" y="322"/>
      <point x="385" y="523"/>
      <point x="238" y="722" type="curve"/>
      <point x="42" y="722" type="line"/>
      <point x="42" y="653" type="line"/>
      <point x="133" y="653" type="line"/>
      <point x="133" y="70" type="line"/>
      <point x="41" y="70" type="line"/>
    </contour>
    <contour>
      <point x="447" y="825" type="move" name="top"/>
    </contour>
    <contour>
      <point x="438" y="-22" type="move" name="bottom"/>
    </contour>
  </outline>
</glyph>
<glyph name="P" format="1">
  <advance width="640"/>
  <unicode hex="0050"/>
  <outline>
    <contour>
      <point x="340" y="331" type="curve"/>
      <point x="295" y="331"/>
      <point x="262" y="340"/>
      <point x="225" y="356" type="curve"/>
      <point x="225" y="653" type="line"/>
      <point x="304" y="653" type="line"/>
      <point x="418" y="653"/>
      <point x="496" y="596"/>
      <point x="496" y="489" type="curve"/>
      <point x="496" y="389"/>
      <point x="435" y="331"/>
    </contour>
    <contour>
      <point x="42" y="0" type="line"/>
      <point x="318" y="0" type="line"/>
      <point x="318" y="70" type="line"/>
      <point x="225" y="70" type="line"/>
      <point x="225" y="283" type="line"/>
      <point x="264" y="270"/>
      <point x="307" y="261"/>
      <point x="347" y="261" type="curve"/>
      <point x="498" y="264"/>
      <point x="588" y="338"/>
      <point x="588" y="488" type="curve"/>
      <point x="588" y="640"/>
      <point x="476" y="722"/>
      <point x="316" y="722" type="curve"/>
      <point x="42" y="722" type="line"/>
      <point x="42" y="653" type="line"/>
      <point x="133" y="653" type="line"/>
      <point x="133" y="70" type="line"/>
      <point x="42" y="70" type="line"/>
    </contour>
  </outline>
</glyph>
<glyph name="Q" format="1">
  <advance width="799"/>
  <unicode hex="0051"/>
  <outline>
    <contour>
      <point x="58" y="360" type="curve"/>
      <point x="58" y="146"/>
      <point x="170" y="3"/>
      <point x="371" y="-5" type="curve"/>
      <point x="480" y="-167"/>
      <point x="599" y="-225"/>
      <point x="789" y="-225" type="curve"/>
      <point x="789" y="-152" type="line"/>
      <point x="646" y="-152"/>
      <point x="553" y="-111"/>
      <point x="470" y="3" type="curve"/>
      <point x="633" y="36"/>
      <point x="720" y="173"/>
      <point x="720" y="365" type="curve"/>
      <point x="720" y="585"/>
      <point x="606" y="730"/>
      <point x="393" y="730" type="curve"/>
      <point x="177" y="730"/>
      <point x="58" y="583"/>
    </contour>
    <contour>
      <point x="150" y="360" type="curve"/>
      <point x="150" y="531"/>
      <point x="228" y="653"/>
      <point x="388" y="653" type="curve"/>
      <point x="551" y="653"/>
      <point x="628" y="533"/>
      <point x="628" y="362" type="curve"/>
      <point x="628" y="191"/>
      <point x="553" y="68"/>
      <point x="393" y="68" type="curve"/>
      <point x="229" y="68"/>
      <point x="150" y="188"/>
    </contour>
  </outline>
</glyph>
<glyph name="T" format="1">
  <advance width="711"/>
  <unicode hex="0054"/>
  <outline>
    <contour>
      <point x="216" y="0" type="line"/>
      <point x="492" y="0" type="line"/>
      <point x="492" y="70" type="line"/>
      <point x="401" y="70" type="line"/>
      <point x="401" y="648" type="line"/>
      <point x="592" y="648" type="line"/>
      <point x="592" y="572" type="line"/>
      <point x="665" y="572" type="line"/>
      <point x="665" y="722" type="line"/>
      <point x="45" y="722" type="line"/>
      <point x="45" y="572" type="line"/>
      <point x="117" y="572" type="line"/>
      <point x="117" y="648" type="line"/>
      <point x="309" y="648" type="line"/>
      <point x="309" y="70" type="line"/>
      <point x="216" y="70" type="line"/>
    </contour>
    <contour>
      <point x="351" y="825" type="move" name="top"/>
    </contour>
    <contour>
      <point x="354" y="-22" type="move" name="bottom"/>
    </contour>
  </outline>
</glyph>
<glyph name="U" format="1">
  <advance width="833"/>
  <unicode hex="0055"/>
  <outline>
    <contour>
      <point x="709" y="280" type="curve"/>
      <point x="709" y="653" type="line"/>
      <point x="804" y="653" type="line"/>
      <point x="804" y="722" type="line"/>
      <point x="529" y="722" type="line"/>
      <point x="529" y="653" type="line"/>
      <point x="624" y="653" type="line"/>
      <point x="624" y="271" type="line"/>
      <point x="624" y="139"/>
      <point x="555" y="72"/>
      <point x="422" y="72" type="curve"/>
      <point x="276" y="72"/>
      <point x="206" y="144"/>
      <point x="206" y="290" type="curve"/>
      <point x="206" y="653" type="line"/>
      <point x="304" y="653" type="line"/>
      <point x="304" y="722" type="line"/>
      <point x="29" y="722" type="line"/>
      <point x="29" y="688" type="line" smooth="yes"/>
      <point x="28" y="653" type="line"/>
      <point x="122" y="653" type="line"/>
      <point x="122" y="277" type="line"/>
      <point x="122" y="86"/>
      <point x="219" y="-5"/>
      <point x="414" y="-5" type="curve"/>
      <point x="609" y="-5"/>
      <point x="709" y="88"/>
    </contour>
    <contour>
      <point x="419" y="825" type="move" name="top"/>
    </contour>
    <contour>
      <point x="443" y="-31" type="move" name="bottom"/>
    </contour>
  </outline>
</glyph>
<glyph name="V" format="1">
  <advance width="808"/>
  <unicode hex="0056"/>
  <outline>
    <contour>
      <point x="342" y="0" type="curve"/>
      <point x="443" y="0" type="line"/>
      <point x="526" y="218"/>
      <point x="609" y="435"/>
      <point x="693" y="653" type="curve"/>
      <point x="784" y="653" type="line"/>
      <point x="784" y="722" type="line"/>
      <point x="497" y="722" type="line"/>
      <point x="497" y="653" type="line"/>
      <point x="599" y="653" type="line"/>
      <point x="530" y="474"/>
      <point x="461" y="295"/>
      <point x="392" y="115" type="curve"/>
      <point x="322" y="295"/>
      <point x="252" y="474"/>
      <point x="182" y="653" type="curve"/>
      <point x="283" y="653" type="line"/>
      <point x="283" y="722" type="line"/>
      <point x="-4" y="722" type="line"/>
      <point x="-4" y="653" type="line"/>
      <point x="86" y="653" type="line"/>
      <point x="171" y="435"/>
      <point x="257" y="218"/>
    </contour>
  </outline>
</glyph>
<glyph name="W" format="1">
  <advance width="1016"/>
  <unicode hex="0057"/>
  <outline>
    <contour>
      <point x="255" y="0" type="curve"/>
      <point x="347" y="0" type="line"/>
      <point x="400" y="192"/>
      <point x="452" y="384"/>
      <point x="505" y="576" type="curve"/>
      <point x="551" y="384"/>
      <point x="596" y="192"/>
      <point x="645" y="0" type="curve"/>
      <point x="737" y="0" type="line"/>
      <point x="795" y="218"/>
      <point x="851" y="435"/>
      <point x="909" y="653" type="curve"/>
      <point x="996" y="653" type="line"/>
      <point x="996" y="722" type="line"/>
      <point x="725" y="722" type="line"/>
      <point x="725" y="653" type="line"/>
      <point x="817" y="653" type="line"/>
      <point x="775" y="482"/>
      <point x="734" y="311"/>
      <point x="692" y="140" type="curve"/>
      <point x="647" y="334"/>
      <point x="602" y="528"/>
      <point x="555" y="722" type="curve"/>
      <point x="456" y="722" type="line"/>
      <point x="406" y="527"/>
      <point x="355" y="333"/>
      <point x="304" y="138" type="curve"/>
      <point x="263" y="310"/>
      <point x="224" y="481"/>
      <point x="183" y="653" type="curve"/>
      <point x="275" y="653" type="line"/>
      <point x="275" y="722" type="line"/>
      <point x="4" y="722" type="line"/>
      <point x="4" y="653" type="line"/>
      <point x="90" y="653" type="line"/>
      <point x="145" y="435"/>
      <point x="200" y="218"/>
    </contour>
  </outline>
</glyph>
<glyph name="X" format="1">
  <advance width="748"/>
  <unicode hex="0058"/>
  <outline>
    <contour>
      <point x="10" y="0" type="line"/>
      <point x="306" y="0" type="line"/>
      <point x="306" y="70" type="line"/>
      <point x="220" y="70" type="line"/>
      <point x="272" y="147"/>
      <point x="324" y="224"/>
      <point x="375" y="301" type="curve"/>
      <point x="427" y="224"/>
      <point x="478" y="147"/>
      <point x="530" y="70" type="curve"/>
      <point x="439" y="70" type="line"/>
      <point x="439" y="0" type="line"/>
      <point x="735" y="0" type="line"/>
      <point x="735" y="70" type="line"/>
      <point x="636" y="70" type="line"/>
      <point x="566" y="173"/>
      <point x="497" y="275"/>
      <point x="427" y="377" type="curve"/>
      <point x="489" y="469"/>
      <point x="551" y="561"/>
      <point x="613" y="653" type="curve"/>
      <point x="708" y="653" type="line"/>
      <point x="708" y="722" type="line"/>
      <point x="412" y="722" type="line"/>
      <point x="412" y="653" type="line"/>
      <point x="512" y="653" type="line"/>
      <point x="466" y="587"/>
      <point x="420" y="520"/>
      <point x="375" y="454" type="curve"/>
      <point x="329" y="520"/>
      <point x="284" y="587"/>
      <point x="239" y="653" type="curve"/>
      <point x="341" y="653" type="line"/>
      <point x="341" y="722" type="line"/>
      <point x="45" y="722" type="line"/>
      <point x="45" y="653" type="line"/>
      <point x="140" y="653" type="line"/>
      <point x="201" y="562"/>
      <point x="262" y="471"/>
      <point x="323" y="380" type="curve"/>
      <point x="251" y="277"/>
      <point x="180" y="174"/>
      <point x="108" y="70" type="curve"/>
      <point x="10" y="70" type="line"/>
    </contour>
  </outline>
</glyph>
<glyph name="Z" format="1">
  <advance width="690"/>
  <unicode hex="005A"/>
  <outline>
    <contour>
      <point x="647" y="0" type="line"/>
      <point x="647" y="150" type="line"/>
      <point x="575" y="150" type="line"/>
      <point x="575" y="70" type="line"/>
      <point x="165" y="70" type="line"/>
      <point x="629" y="653" type="line"/>
      <point x="629" y="722" type="line"/>
      <point x="80" y="722" type="line"/>
      <point x="80" y="573" type="line"/>
      <point x="151" y="573" type="line"/>
      <point x="151" y="653" type="line"/>
      <point x="508" y="653" type="line"/>
      <point x="41" y="70" type="line"/>
      <point x="41" y="0" type="line"/>
    </contour>
    <contour>
      <point x="345" y="825" type="move" name="top"/>
    </contour>
  </outline>
</glyph>
<glyph name="bracketleft" format="1">
  <advance width="305"/>
  <unicode hex="005B"/>
  <outline>
    <contour>
      <point x="266" y="-118" type="line"/>
      <point x="266" y="-42" type="line"/>
      <point x="166" y="-42" type="line"/>
      <point x="166" y="694" type="line"/>
      <point x="266" y="694" type="line"/>
      <point x="266" y="770" type="line"/>
      <point x="74" y="770" type="line"/>
      <point x="74" y="-118" type="line"/>
    </contour>
  </outline>
</glyph>
<glyph name="backslash" format="1">
  <advance width="566"/>
  <unicode hex="005C"/>
  <outline>
    <contour>
      <point x="527" y="-68" type="line"/>
      <point x="397" y="236"/>
      <point x="266" y="540"/>
      <point x="135" y="844" type="curve"/>
      <point x="38" y="844" type="line"/>
      <point x="431" y="-68" type="line"/>
    </contour>
  </outline>
</glyph>
<glyph name="bracketright" format="1">
  <advance width="305"/>
  <unicode hex="005D"/>
  <outline>
    <contour>
      <point x="231" y="-118" type="line"/>
      <point x="231" y="770" type="line"/>
      <point x="38" y="770" type="line"/>
      <point x="38" y="694" type="line"/>
      <point x="138" y="694" type="line"/>
      <point x="138" y="-42" type="line"/>
      <point x="38" y="-42" type="line"/>
      <point x="38" y="-118" type="line"/>
    </contour>
  </outline>
</glyph>
<glyph name="underscore" format="1">
  <advance width="713"/>
  <unicode hex="005F"/>
  <outline>
    <contour>
      <point x="697" y="-196" type="line"/>
      <point x="697" y="-126" type="line"/>
      <point x="15" y="-126" type="line"/>
      <point x="15" y="-196" type="line"/>
    </contour>
  </outline>
</glyph>
<glyph name="grave" format="1">
  <advance width="429"/>
  <unicode hex="0060"/>
  <outline>
    <contour>
      <point x="279" y="561" type="line"/>
      <point x="172" y="727" type="line"/>
      <point x="52" y="727" type="line"/>
      <point x="186" y="561" type="line"/>
    </contour>
    <contour>
      <point x="227" y="591" type="move" name="_top"/>
    </contour>
  </outline>
</glyph>
<glyph name="a" format="1">
  <advance width="593"/>
  <unicode hex="0061"/>
  <outline>
    <contour>
      <point x="239" y="64" type="curve"/>
      <point x="176" y="64"/>
      <point x="144" y="95"/>
      <point x="144" y="152" type="curve"/>
      <point x="144" y="209"/>
      <point x="184" y="235"/>
      <point x="238" y="244" type="curve"/>
      <point x="303" y="252"/>
      <point x="344" y="257"/>
      <point x="399" y="265" type="curve"/>
      <point x="399" y="152" type="line"/>
      <point x="363" y="102"/>
      <point x="306" y="64"/>
    </contour>
    <contour>
      <point x="399" y="0" type="line"/>
      <point x="575" y="0" type="line"/>
      <point x="575" y="70" type="line"/>
      <point x="491" y="70" type="line"/>
      <point x="491" y="376" type="line"/>
      <point x="491" y="497"/>
      <point x="408" y="538"/>
      <point x="285" y="538" type="curve"/>
      <point x="193" y="538"/>
      <point x="127" y="505"/>
      <point x="75" y="463" type="curve"/>
      <point x="75" y="345" type="line"/>
      <point x="147" y="345" type="line"/>
      <point x="147" y="425" type="line"/>
      <point x="179" y="448"/>
      <point x="219" y="469"/>
      <point x="273" y="469" type="curve"/>
      <point x="349" y="469"/>
      <point x="399" y="442"/>
      <point x="399" y="359" type="curve"/>
      <point x="399" y="326" type="line"/>
      <point x="345" y="319"/>
      <point x="305" y="315"/>
      <point x="242" y="307" type="curve"/>
      <point x="132" y="293"/>
      <point x="53" y="259"/>
      <point x="53" y="151" type="curve"/>
      <point x="53" y="47"/>
      <point x="116" y="-5"/>
      <point x="225" y="-5" type="curve"/>
      <point x="300" y="-5"/>
      <point x="355" y="22"/>
      <point x="399" y="65" type="curve"/>
    </contour>
    <contour>
      <point x="283" y="670" type="move" name="top"/>
    </contour>
    <contour>
      <point x="469" y="6" type="move" name="bottom"/>
    </contour>
  </outline>
</glyph>
<glyph name="b" format="1">
  <advance width="675"/>
  <unicode hex="0062"/>
  <outline>
    <contour>
      <point x="365" y="67" type="curve"/>
      <point x="298" y="67"/>
      <point x="243" y="101"/>
      <point x="205" y="148" type="curve"/>
      <point x="205" y="390" type="line"/>
      <point x="243" y="433"/>
      <point x="294" y="466"/>
      <point x="365" y="466" type="curve"/>
      <point x="473" y="466"/>
      <point x="529" y="383"/>
      <point x="529" y="266" type="curve"/>
      <point x="529" y="261" type="line" smooth="yes"/>
      <point x="529" y="150"/>
      <point x="467" y="67"/>
    </contour>
    <contour>
      <point x="381" y="-5" type="curve"/>
      <point x="538" y="-5"/>
      <point x="623" y="101"/>
      <point x="623" y="267" type="curve"/>
      <point x="623" y="432"/>
      <point x="538" y="539"/>
      <point x="378" y="539" type="curve"/>
      <point x="306" y="539"/>
      <point x="251" y="516"/>
      <point x="205" y="481" type="curve"/>
      <point x="205" y="800" type="line"/>
      <point x="23" y="800" type="line"/>
      <point x="23" y="731" type="line"/>
      <point x="113" y="731" type="line"/>
      <point x="113" y="69" type="line"/>
      <point x="83" y="69"/>
      <point x="92" y="70"/>
      <point x="23" y="70" type="curve"/>
      <point x="23" y="0" type="line"/>
      <point x="205" y="0" type="line"/>
      <point x="205" y="56" type="line"/>
      <point x="253" y="19"/>
      <point x="309" y="-5"/>
    </contour>
  </outline>
</glyph>
<glyph name="c" format="1">
  <advance width="563"/>
  <unicode hex="0063"/>
  <outline>
    <contour>
      <point x="510" y="78" type="curve"/>
      <point x="484" y="106" type="line" smooth="yes"/>
      <point x="458" y="133" type="line"/>
      <point x="425" y="97"/>
      <point x="378" y="67"/>
      <point x="326" y="67" type="curve"/>
      <point x="207" y="67"/>
      <point x="148" y="142"/>
      <point x="148" y="267" type="curve"/>
      <point x="148" y="392"/>
      <point x="207" y="466"/>
      <point x="323" y="466" type="curve"/>
      <point x="363" y="466"/>
      <point x="402" y="454"/>
      <point x="435" y="435" type="curve"/>
      <point x="435" y="334" type="line"/>
      <point x="508" y="334" type="line"/>
      <point x="508" y="471" type="line"/>
      <point x="457" y="509"/>
      <point x="392" y="538"/>
      <point x="326" y="538" type="curve"/>
      <point x="152" y="538"/>
      <point x="56" y="444"/>
      <point x="56" y="267" type="curve"/>
      <point x="56" y="91"/>
      <point x="149" y="-5"/>
      <point x="322" y="-5" type="curve"/>
      <point x="398" y="-5"/>
      <point x="467" y="27"/>
    </contour>
    <contour>
      <point x="319" y="671" type="move" name="top"/>
    </contour>
    <contour>
      <point x="319" y="4" type="move" name="bottom"/>
    </contour>
  </outline>
</glyph>
<glyph name="d" format="1">
  <advance width="665"/>
  <unicode hex="0064"/>
  <outline>
    <contour>
      <point x="308" y="65" type="curve"/>
      <point x="205" y="65"/>
      <point x="146" y="146"/>
      <point x="146" y="267" type="curve"/>
      <point x="146" y="388"/>
      <point x="206" y="469"/>
      <point x="310" y="469" type="curve"/>
      <point x="365" y="469"/>
      <point x="423" y="442"/>
      <point x="462" y="401" type="curve"/>
      <point x="462" y="153" type="line"/>
      <point x="423" y="97"/>
      <point x="372" y="65"/>
    </contour>
    <contour>
      <point x="462" y="0" type="line"/>
      <point x="649" y="0" type="line"/>
      <point x="649" y="70" type="line"/>
      <point x="580" y="70" type="line" smooth="yes"/>
      <point x="580" y="70"/>
      <point x="581" y="70"/>
      <point x="581" y="69" type="curve" smooth="yes"/>
      <point x="558" y="69" type="line"/>
      <point x="558" y="800" type="line"/>
      <point x="372" y="800" type="line"/>
      <point x="372" y="731" type="line"/>
      <point x="462" y="731" type="line"/>
      <point x="462" y="484" type="line"/>
      <point x="415" y="518"/>
      <point x="357" y="538"/>
      <point x="297" y="538" type="curve"/>
      <point x="143" y="538"/>
      <point x="54" y="432"/>
      <point x="54" y="263" type="curve"/>
      <point x="54" y="95"/>
      <point x="144" y="-5"/>
      <point x="298" y="-5" type="curve"/>
      <point x="365" y="-5"/>
      <point x="419" y="18"/>
      <point x="462" y="56" type="curve"/>
    </contour>
  </outline>
</glyph>
<glyph name="e" format="1">
  <advance width="585"/>
  <unicode hex="0065"/>
  <outline>
    <contour>
      <point x="296" y="468" type="curve"/>
      <point x="392" y="468"/>
      <point x="439" y="411"/>
      <point x="442" y="312" type="curve"/>
      <point x="146" y="312" type="line"/>
      <point x="154" y="408"/>
      <point x="201" y="468"/>
    </contour>
    <contour>
      <point x="511" y="70" type="curve"/>
      <point x="489" y="98" type="line" smooth="yes"/>
      <point x="467" y="125" type="line"/>
      <point x="423" y="88"/>
      <point x="375" y="65"/>
      <point x="319" y="65" type="curve"/>
      <point x="210" y="65"/>
      <point x="155" y="135"/>
      <point x="146" y="248" type="curve"/>
      <point x="530" y="248" type="line"/>
      <point x="530" y="289" type="line"/>
      <point x="530" y="449"/>
      <point x="451" y="538"/>
      <point x="301" y="538" type="curve"/>
      <point x="139" y="538"/>
      <point x="56" y="445"/>
      <point x="56" y="280" type="curve"/>
      <point x="56" y="98"/>
      <point x="147" y="-5"/>
      <point x="322" y="-5" type="curve"/>
      <point x="403" y="-5"/>
      <point x="455" y="21"/>
    </contour>
    <contour>
      <point x="297" y="671" type="move" name="top"/>
    </contour>
    <contour>
      <point x="369" y="9" type="move" name="bottom"/>
    </contour>
  </outline>
</glyph>
<glyph name="f" format="1">
  <advance width="486"/>
  <unicode hex="0066"/>
  <outline>
    <contour>
      <point x="349" y="0" type="curve"/>
      <point x="349" y="70" type="line"/>
      <point x="280" y="70" type="line" smooth="yes"/>
      <point x="282" y="70"/>
      <point x="283" y="70"/>
      <point x="283" y="69" type="curve" smooth="yes"/>
      <point x="258" y="69" type="line"/>
      <point x="258" y="457" type="line"/>
      <point x="427" y="457" type="line"/>
      <point x="427" y="527" type="line"/>
      <point x="258" y="527" type="line"/>
      <point x="258" y="624" type="line" smooth="yes"/>
      <point x="258" y="690"/>
      <point x="288" y="736"/>
      <point x="348" y="736" type="curve"/>
      <point x="365" y="736"/>
      <point x="382" y="733"/>
      <point x="398" y="729" type="curve"/>
      <point x="398" y="643" type="line"/>
      <point x="469" y="643" type="line"/>
      <point x="469" y="771" type="line"/>
      <point x="432" y="789"/>
      <point x="390" y="803"/>
      <point x="348" y="803" type="curve"/>
      <point x="236" y="803"/>
      <point x="165" y="734"/>
      <point x="165" y="623" type="curve" smooth="yes"/>
      <point x="165" y="527" type="line"/>
      <point x="36" y="527" type="line"/>
      <point x="36" y="457" type="line"/>
      <point x="165" y="457" type="line"/>
      <point x="165" y="69" type="line"/>
      <point x="140" y="69" type="line" smooth="yes"/>
      <point x="140" y="70"/>
      <point x="141" y="70"/>
      <point x="142" y="70" type="curve" smooth="yes"/>
      <point x="73" y="70" type="line"/>
      <point x="73" y="0" type="line"/>
      <point x="126" y="0"/>
      <point x="159" y="-1"/>
      <point x="211" y="-1" type="curve"/>
      <point x="264" y="-1"/>
      <point x="297" y="0"/>
    </contour>
  </outline>
</glyph>
<glyph name="h" format="1">
  <advance width="679"/>
  <unicode hex="0068"/>
  <outline>
    <contour>
      <point x="526" y="-1" type="line"/>
      <point x="578" y="-1"/>
      <point x="611" y="0"/>
      <point x="664" y="0" type="curve"/>
      <point x="664" y="70" type="line"/>
      <point x="595" y="70" type="line" smooth="yes"/>
      <point x="596" y="70"/>
      <point x="597" y="70"/>
      <point x="597" y="69" type="curve" smooth="yes"/>
      <point x="573" y="69" type="line"/>
      <point x="573" y="331" type="line"/>
      <point x="573" y="465"/>
      <point x="505" y="538"/>
      <point x="373" y="538" type="curve"/>
      <point x="306" y="538"/>
      <point x="246" y="508"/>
      <point x="201" y="460" type="curve"/>
      <point x="201" y="800" type="line"/>
      <point x="17" y="800" type="line"/>
      <point x="17" y="731" type="line"/>
      <point x="108" y="731" type="line"/>
      <point x="108" y="69" type="line"/>
      <point x="83" y="69" type="line" smooth="yes"/>
      <point x="83" y="70"/>
      <point x="84" y="70"/>
      <point x="86" y="70" type="curve" smooth="yes"/>
      <point x="17" y="70" type="line"/>
      <point x="17" y="0" type="line"/>
      <point x="69" y="0"/>
      <point x="102" y="-1"/>
      <point x="155" y="-1" type="curve"/>
      <point x="202" y="-1"/>
      <point x="136" y="-1"/>
      <point x="278" y="0" type="curve"/>
      <point x="278" y="70" type="line"/>
      <point x="217" y="70" type="line" smooth="yes"/>
      <point x="218" y="70"/>
      <point x="219" y="70"/>
      <point x="219" y="69" type="curve" smooth="yes"/>
      <point x="201" y="69" type="line"/>
      <point x="201" y="362" type="line"/>
      <point x="235" y="424"/>
      <point x="292" y="469"/>
      <point x="359" y="469" type="curve"/>
      <point x="443" y="469"/>
      <point x="481" y="405"/>
      <point x="481" y="316" type="curve"/>
      <point x="481" y="0" type="line"/>
      <point x="526" y="0" type="line"/>
    </contour>
  </outline>
</glyph>
<glyph name="i" format="1">
  <advance width="326"/>
  <unicode hex="0069"/>
  <outline>
    <contour>
      <point x="172" y="640" type="curve"/>
      <point x="205" y="640"/>
      <point x="229" y="654"/>
      <point x="229" y="686" type="curve"/>
      <point x="229" y="717"/>
      <point x="205" y="732"/>
      <point x="172" y="732" type="curve"/>
      <point x="139" y="732"/>
      <point x="117" y="715"/>
      <point x="117" y="686" type="curve"/>
      <point x="117" y="655"/>
      <point x="139" y="640"/>
    </contour>
    <contour>
      <point x="36" y="0" type="line"/>
      <point x="307" y="0" type="line"/>
      <point x="307" y="70" type="line"/>
      <point x="223" y="70" type="line"/>
      <point x="223" y="533" type="line"/>
      <point x="36" y="533" type="line"/>
      <point x="36" y="464" type="line"/>
      <point x="126" y="464" type="line"/>
      <point x="126" y="70" type="line"/>
      <point x="36" y="70" type="line"/>
    </contour>
    <contour>
      <point x="173" y="671" type="move" name="top"/>
    </contour>
    <contour>
      <point x="217" y="7" type="move" name="bottom"/>
    </contour>
  </outline>
</glyph>
<glyph name="j" format="1">
  <advance width="333"/>
  <unicode hex="006A"/>
  <outline>
    <contour>
      <point x="195" y="640" type="curve"/>
      <point x="228" y="640"/>
      <point x="252" y="654"/>
      <point x="252" y="686" type="curve"/>
      <point x="252" y="718"/>
      <point x="228" y="733"/>
      <point x="195" y="733" type="curve"/>
      <point x="162" y="733"/>
      <point x="140" y="716"/>
      <point x="140" y="686" type="curve"/>
      <point x="140" y="656"/>
      <point x="162" y="640"/>
    </contour>
    <contour>
      <point x="46" y="-305" type="curve"/>
      <point x="159" y="-305"/>
      <point x="240" y="-240"/>
      <point x="240" y="-130" type="curve"/>
      <point x="240" y="534" type="line"/>
      <point x="148" y="534" type="line"/>
      <point x="148" y="533" type="line"/>
      <point x="40" y="533" type="line"/>
      <point x="40" y="464" type="line"/>
      <point x="148" y="464" type="line"/>
      <point x="148" y="-130" type="line"/>
      <point x="148" y="-189"/>
      <point x="109" y="-236"/>
      <point x="50" y="-236" type="curve"/>
      <point x="42" y="-236"/>
      <point x="31" y="-235"/>
      <point x="26" y="-234" type="curve"/>
      <point x="20" y="-267"/>
      <point x="20" y="-268"/>
      <point x="20" y="-268" type="curve" smooth="yes"/>
      <point x="20" y="-269"/>
      <point x="20" y="-269"/>
      <point x="13" y="-302" type="curve"/>
      <point x="22" y="-303"/>
      <point x="33" y="-305"/>
    </contour>
  </outline>
</glyph>
<glyph name="k" format="1">
  <advance width="620"/>
  <unicode hex="006B"/>
  <outline>
    <contour>
      <point x="463" y="-1" type="line"/>
      <point x="517" y="-1"/>
      <point x="543" y="0"/>
      <point x="597" y="0" type="curve"/>
      <point x="597" y="70" type="line"/>
      <point x="530" y="70" type="line" smooth="yes"/>
      <point x="532" y="70"/>
      <point x="534" y="70"/>
      <point x="534" y="69" type="curve" smooth="yes"/>
      <point x="505" y="69" type="line"/>
      <point x="286" y="275" type="line"/>
      <point x="479" y="464" type="line"/>
      <point x="570" y="464" type="line"/>
      <point x="570" y="533" type="line"/>
      <point x="278" y="533" type="line"/>
      <point x="278" y="464" type="line"/>
      <point x="359" y="464" type="line"/>
      <point x="201" y="305" type="line"/>
      <point x="201" y="800" type="line"/>
      <point x="18" y="800" type="line"/>
      <point x="18" y="731" type="line"/>
      <point x="109" y="731" type="line"/>
      <point x="109" y="69" type="line"/>
      <point x="83" y="69" type="line" smooth="yes"/>
      <point x="83" y="70"/>
      <point x="84" y="70"/>
      <point x="86" y="70" type="curve" smooth="yes"/>
      <point x="17" y="70" type="line"/>
      <point x="17" y="0" type="line"/>
      <point x="69" y="0"/>
      <point x="102" y="-1"/>
      <point x="154" y="-1" type="curve"/>
      <point x="195" y="-1"/>
      <point x="150" y="-1"/>
      <point x="273" y="0" type="curve"/>
      <point x="273" y="70" type="line"/>
      <point x="214" y="70" type="line" smooth="yes"/>
      <point x="214" y="69" type="line" smooth="yes"/>
      <point x="201" y="69" type="line"/>
      <point x="201" y="246" type="line"/>
      <point x="453" y="0" type="line"/>
      <point x="463" y="0" type="line"/>
    </contour>
    <contour>
      <point x="340" y="-26" type="move" name="bottom"/>
    </contour>
  </outline>
</glyph>
<glyph name="l" format="1">
  <advance width="350"/>
  <unicode hex="006C"/>
  <outline>
    <contour>
      <point x="333" y="0" type="curve"/>
      <point x="333" y="70" type="line"/>
      <point x="254" y="70" type="line" smooth="yes"/>
      <point x="220" y="70" type="line"/>
      <point x="220" y="800" type="line"/>
      <point x="19" y="800" type="line"/>
      <point x="19" y="731" type="line"/>
      <point x="128" y="731" type="line"/>
      <point x="128" y="70" type="line"/>
      <point x="96" y="70" type="line" smooth="yes"/>
      <point x="17" y="70" type="line"/>
      <point x="17" y="0" type="line"/>
      <point x="70" y="0"/>
      <point x="122" y="-1"/>
      <point x="175" y="-1" type="curve"/>
      <point x="228" y="-1"/>
      <point x="280" y="0"/>
    </contour>
    <contour>
      <point x="175" y="903" type="move" name="top"/>
    </contour>
    <contour>
      <point x="174" y="-21" type="move" name="bottom"/>
    </contour>
  </outline>
</glyph>
<glyph name="m" format="1">
  <advance width="980"/>
  <unicode hex="006D"/>
  <outline>
    <contour>
      <point x="37" y="0" type="line"/>
      <point x="288" y="0" type="line"/>
      <point x="288" y="70" type="line"/>
      <point x="221" y="70" type="line"/>
      <point x="221" y="356" type="line"/>
      <point x="252" y="419"/>
      <point x="293" y="467"/>
      <point x="357" y="467" type="curve"/>
      <point x="440" y="467"/>
      <point x="461" y="413"/>
      <point x="461" y="323" type="curve"/>
      <point x="461" y="0" type="line"/>
      <point x="624" y="0" type="line"/>
      <point x="624" y="70" type="line"/>
      <point x="553" y="70" type="line"/>
      <point x="553" y="331" type="line"/>
      <point x="553" y="338"/>
      <point x="553" y="345"/>
      <point x="553" y="351" type="curve"/>
      <point x="585" y="418"/>
      <point x="626" y="467"/>
      <point x="689" y="467" type="curve"/>
      <point x="772" y="467"/>
      <point x="793" y="413"/>
      <point x="793" y="323" type="curve"/>
      <point x="793" y="0" type="line"/>
      <point x="963" y="0" type="line"/>
      <point x="963" y="70" type="line"/>
      <point x="885" y="70" type="line"/>
      <point x="885" y="331" type="line"/>
      <point x="885" y="467"/>
      <point x="838" y="538"/>
      <point x="708" y="538" type="curve"/>
      <point x="633" y="538"/>
      <point x="580" y="500"/>
      <point x="538" y="440" type="curve"/>
      <point x="516" y="505"/>
      <point x="466" y="539"/>
      <point x="377" y="539" type="curve"/>
      <point x="306" y="539"/>
      <point x="260" y="509"/>
      <point x="221" y="459" type="curve"/>
      <point x="221" y="533" type="line"/>
      <point x="37" y="533" type="line"/>
      <point x="37" y="464" type="line"/>
      <point x="128" y="464" type="line"/>
      <point x="128" y="70" type="line"/>
      <point x="37" y="70" type="line"/>
    </contour>
  </outline>
</glyph>
<glyph name="n" format="1">
  <advance width="698"/>
  <unicode hex="006E"/>
  <outline>
    <contour>
      <point x="37" y="0" type="line"/>
      <point x="294" y="0" type="line"/>
      <point x="294" y="70" type="line"/>
      <point x="221" y="70" type="line"/>
      <point x="221" y="358" type="line"/>
      <point x="252" y="423"/>
      <point x="307" y="466"/>
      <point x="375" y="466" type="curve"/>
      <point x="458" y="466"/>
      <point x="500" y="410"/>
      <point x="500" y="323" type="curve"/>
      <point x="500" y="0" type="line"/>
      <point x="683" y="0" type="line"/>
      <point x="683" y="70" type="line"/>
      <point x="592" y="70" type="line"/>
      <point x="592" y="331" type="line"/>
      <point x="592" y="462"/>
      <point x="525" y="538"/>
      <point x="395" y="538" type="curve"/>
      <point x="324" y="538"/>
      <point x="265" y="510"/>
      <point x="221" y="462" type="curve"/>
      <point x="221" y="533" type="line"/>
      <point x="37" y="533" type="line"/>
      <point x="37" y="464" type="line"/>
      <point x="128" y="464" type="line"/>
      <point x="128" y="70" type="line"/>
      <point x="37" y="70" type="line"/>
    </contour>
    <contour>
      <point x="381" y="671" type="move" name="top"/>
    </contour>
    <contour>
      <point x="367" y="-18" type="move" name="bottom"/>
    </contour>
  </outline>
</glyph>
<glyph name="p" format="1">
  <advance width="674"/>
  <unicode hex="0070"/>
  <outline>
    <contour>
      <point x="363" y="65" type="line"/>
      <point x="296" y="65"/>
      <point x="243" y="91"/>
      <point x="197" y="132" type="curve"/>
      <point x="197" y="386" type="line"/>
      <point x="239" y="436"/>
      <point x="294" y="472"/>
      <point x="367" y="472" type="curve"/>
      <point x="473" y="472"/>
      <point x="525" y="386"/>
      <point x="525" y="270" type="curve"/>
      <point x="525" y="264" type="line" smooth="yes"/>
      <point x="525" y="148"/>
      <point x="470" y="65"/>
      <point x="365" y="65" type="curve" smooth="yes"/>
    </contour>
    <contour>
      <point x="13" y="-300" type="line"/>
      <point x="279" y="-300" type="line"/>
      <point x="279" y="-231" type="line"/>
      <point x="197" y="-231" type="line"/>
      <point x="197" y="46" type="line"/>
      <point x="246" y="14"/>
      <point x="303" y="-5"/>
      <point x="371" y="-5" type="curve"/>
      <point x="534" y="-5"/>
      <point x="617" y="108"/>
      <point x="617" y="274" type="curve"/>
      <point x="617" y="431"/>
      <point x="535" y="539"/>
      <point x="381" y="539" type="curve"/>
      <point x="304" y="539"/>
      <point x="245" y="515"/>
      <point x="197" y="474" type="curve"/>
      <point x="197" y="533" type="line"/>
      <point x="15" y="533" type="line"/>
      <point x="15" y="499" type="line" smooth="yes"/>
      <point x="14" y="464" type="line"/>
      <point x="105" y="464" type="line"/>
      <point x="105" y="-231" type="line"/>
      <point x="13" y="-231" type="line"/>
    </contour>
  </outline>
</glyph>
<glyph name="q" format="1">
  <advance width="667"/>
  <unicode hex="0071"/>
  <outline>
    <contour>
      <point x="312" y="64" type="curve"/>
      <point x="203" y="64"/>
      <point x="148" y="149"/>
      <point x="148" y="267" type="curve"/>
      <point x="148" y="384"/>
      <point x="201" y="469"/>
      <point x="310" y="469" type="curve"/>
      <point x="375" y="469"/>
      <point x="431" y="441"/>
      <point x="474" y="396" type="curve"/>
      <point x="474" y="141" type="line"/>
      <point x="432" y="93"/>
      <point x="377" y="64"/>
    </contour>
    <contour>
      <point x="386" y="-300" type="line"/>
      <point x="652" y="-300" type="line"/>
      <point x="652" y="-231" type="line"/>
      <point x="570" y="-231" type="line"/>
      <point x="570" y="464" type="line"/>
      <point x="652" y="464" type="line"/>
      <point x="652" y="533" type="line"/>
      <point x="474" y="533" type="line"/>
      <point x="474" y="478" type="line"/>
      <point x="424" y="517"/>
      <point x="366" y="538"/>
      <point x="296" y="538" type="curve"/>
      <point x="138" y="538"/>
      <point x="55" y="426"/>
      <point x="55" y="263" type="curve"/>
      <point x="55" y="102"/>
      <point x="143" y="-6"/>
      <point x="301" y="-6" type="curve"/>
      <point x="369" y="-6"/>
      <point x="425" y="17"/>
      <point x="474" y="55" type="curve"/>
      <point x="474" y="-231" type="line"/>
      <point x="386" y="-231" type="line"/>
    </contour>
  </outline>
</glyph>
<glyph name="r" format="1">
  <advance width="456"/>
  <unicode hex="0072"/>
  <outline>
    <contour>
      <point x="37" y="0" type="line"/>
      <point x="306" y="0" type="line"/>
      <point x="306" y="70" type="line"/>
      <point x="221" y="70" type="line"/>
      <point x="221" y="359" type="line"/>
      <point x="266" y="426"/>
      <point x="335" y="457"/>
      <point x="424" y="457" type="curve"/>
      <point x="424" y="538" type="line"/>
      <point x="338" y="538"/>
      <point x="272" y="509"/>
      <point x="221" y="453" type="curve"/>
      <point x="221" y="533" type="line"/>
      <point x="37" y="533" type="line"/>
      <point x="37" y="500"/>
      <point x="36" y="497"/>
      <point x="36" y="464" type="curve"/>
      <point x="129" y="464" type="line"/>
      <point x="129" y="70" type="line"/>
      <point x="37" y="70" type="line"/>
    </contour>
    <contour>
      <point x="202" y="671" type="move" name="top"/>
    </contour>
    <contour>
      <point x="177" y="-23" type="move" name="bottom"/>
    </contour>
  </outline>
</glyph>
<glyph name="s" format="1">
  <advance width="524"/>
  <unicode hex="0073"/>
  <outline>
    <contour>
      <point x="262" y="-5" type="curve"/>
      <point x="387" y="-5"/>
      <point x="473" y="40"/>
      <point x="473" y="148" type="curve"/>
      <point x="473" y="255"/>
      <point x="383" y="278"/>
      <point x="271" y="310" type="curve" smooth="yes"/>
      <point x="205" y="331"/>
      <point x="151" y="353"/>
      <point x="151" y="404" type="curve"/>
      <point x="151" y="442"/>
      <point x="191" y="469"/>
      <point x="247" y="469" type="curve"/>
      <point x="285" y="469"/>
      <point x="325" y="460"/>
      <point x="358" y="446" type="curve"/>
      <point x="358" y="369" type="line"/>
      <point x="430" y="369" type="line"/>
      <point x="430" y="493" type="line"/>
      <point x="385" y="520"/>
      <point x="315" y="538"/>
      <point x="251" y="538" type="curve"/>
      <point x="143" y="538"/>
      <point x="67" y="497"/>
      <point x="67" y="404" type="curve"/>
      <point x="67" y="307"/>
      <point x="139" y="271"/>
      <point x="242" y="242" type="curve" smooth="yes"/>
      <point x="314" y="219"/>
      <point x="384" y="202"/>
      <point x="384" y="147" type="curve" smooth="yes"/>
      <point x="384" y="146" type="line"/>
      <point x="384" y="99"/>
      <point x="339" y="65"/>
      <point x="275" y="65" type="curve"/>
      <point x="217" y="65"/>
      <point x="174" y="78"/>
      <point x="124" y="99" type="curve"/>
      <point x="124" y="176" type="line"/>
      <point x="52" y="176" type="line"/>
      <point x="52" y="48" type="line"/>
      <point x="53" y="48" type="line"/>
      <point x="125" y="16"/>
      <point x="185" y="-5"/>
    </contour>
    <contour>
      <point x="255" y="670" type="move" name="top"/>
    </contour>
    <contour>
      <point x="227" y="-20" type="move" name="bottom"/>
    </contour>
  </outline>
</glyph>
<glyph name="t" format="1">
  <advance width="430"/>
  <unicode hex="0074"/>
  <outline>
    <contour>
      <point x="401" y="26" type="curve"/>
      <point x="389" y="58" type="line" smooth="yes"/>
      <point x="376" y="89" type="line"/>
      <point x="349" y="74"/>
      <point x="327" y="68"/>
      <point x="296" y="68" type="curve"/>
      <point x="244" y="68"/>
      <point x="223" y="103"/>
      <point x="223" y="162" type="curve"/>
      <point x="223" y="464" type="line"/>
      <point x="388" y="464" type="line"/>
      <point x="388" y="534" type="line"/>
      <point x="223" y="534" type="line"/>
      <point x="223" y="688" type="line"/>
      <point x="131" y="633" type="line"/>
      <point x="131" y="534" type="line"/>
      <point x="23" y="534" type="line"/>
      <point x="23" y="464" type="line"/>
      <point x="131" y="464" type="line"/>
      <point x="131" y="158" type="line"/>
      <point x="131" y="51"/>
      <point x="184" y="-6"/>
      <point x="287" y="-6" type="curve"/>
      <point x="336" y="-6"/>
      <point x="370" y="8"/>
    </contour>
    <contour>
      <point x="261" y="-29" type="move" name="bottom"/>
    </contour>
  </outline>
</glyph>
<glyph name="u" format="1">
  <advance width="662"/>
  <unicode hex="0075"/>
  <outline>
    <contour>
      <point x="470" y="0" type="line"/>
      <point x="644" y="0" type="line"/>
      <point x="644" y="70" type="line"/>
      <point x="563" y="70" type="line"/>
      <point x="563" y="533" type="line"/>
      <point x="378" y="533" type="line"/>
      <point x="378" y="464" type="line"/>
      <point x="470" y="464" type="line"/>
      <point x="470" y="163" type="line"/>
      <point x="437" y="105"/>
      <point x="388" y="65"/>
      <point x="325" y="65" type="curve"/>
      <point x="241" y="65"/>
      <point x="197" y="120"/>
      <point x="197" y="205" type="curve"/>
      <point x="197" y="533" type="line"/>
      <point x="13" y="533" type="line"/>
      <point x="13" y="464" type="line"/>
      <point x="105" y="464" type="line"/>
      <point x="105" y="201" type="line"/>
      <point x="105" y="73"/>
      <point x="181" y="-5"/>
      <point x="311" y="-5" type="curve"/>
      <point x="377" y="-5"/>
      <point x="429" y="22"/>
      <point x="470" y="66" type="curve"/>
    </contour>
    <contour>
      <point x="318" y="671" type="move" name="top"/>
    </contour>
    <contour>
      <point x="540" y="10" type="move" name="bottom"/>
    </contour>
  </outline>
</glyph>
<glyph name="v" format="1">
  <advance width="657"/>
  <unicode hex="0076"/>
  <outline>
    <contour>
      <point x="273" y="0" type="curve"/>
      <point x="371" y="0" type="line"/>
      <point x="435" y="155"/>
      <point x="497" y="309"/>
      <point x="561" y="464" type="curve"/>
      <point x="645" y="464" type="line"/>
      <point x="645" y="533" type="line"/>
      <point x="394" y="533" type="line"/>
      <point x="394" y="464" type="line"/>
      <point x="467" y="464" type="line"/>
      <point x="323" y="111" type="line"/>
      <point x="277" y="229"/>
      <point x="232" y="346"/>
      <point x="186" y="464" type="curve"/>
      <point x="256" y="464" type="line"/>
      <point x="256" y="533" type="line"/>
      <point x="10" y="533" type="line"/>
      <point x="10" y="464" type="line"/>
      <point x="92" y="464" type="line"/>
      <point x="153" y="309"/>
      <point x="213" y="155"/>
    </contour>
  </outline>
</glyph>
<glyph name="w" format="1">
  <advance width="992"/>
  <unicode hex="0077"/>
  <outline>
    <contour>
      <point x="250" y="0" type="curve"/>
      <point x="343" y="0" type="line"/>
      <point x="395" y="137"/>
      <point x="447" y="274"/>
      <point x="500" y="411" type="curve"/>
      <point x="546" y="274"/>
      <point x="593" y="137"/>
      <point x="640" y="0" type="curve"/>
      <point x="733" y="0" type="line"/>
      <point x="789" y="155"/>
      <point x="844" y="309"/>
      <point x="899" y="464" type="curve"/>
      <point x="981" y="464" type="line"/>
      <point x="981" y="533" type="line"/>
      <point x="725" y="533" type="line"/>
      <point x="725" y="464" type="line"/>
      <point x="804" y="464" type="line"/>
      <point x="765" y="353"/>
      <point x="726" y="242"/>
      <point x="688" y="131" type="curve"/>
      <point x="642" y="265"/>
      <point x="596" y="399"/>
      <point x="551" y="533" type="curve"/>
      <point x="451" y="533" type="line"/>
      <point x="401" y="397"/>
      <point x="350" y="262"/>
      <point x="299" y="127" type="curve"/>
      <point x="261" y="239"/>
      <point x="223" y="351"/>
      <point x="185" y="464" type="curve"/>
      <point x="271" y="464" type="line"/>
      <point x="271" y="533" type="line"/>
      <point x="10" y="533" type="line"/>
      <point x="10" y="464" type="line"/>
      <point x="92" y="464" type="line"/>
      <point x="145" y="309"/>
      <point x="198" y="155"/>
    </contour>
  </outline>
</glyph>
<glyph name="x" format="1">
  <advance width="665"/>
  <unicode hex="0078"/>
  <outline>
    <contour>
      <point x="15" y="0" type="line"/>
      <point x="291" y="0" type="line"/>
      <point x="291" y="70" type="line"/>
      <point x="214" y="70" type="line"/>
      <point x="246" y="110"/>
      <point x="289" y="160"/>
      <point x="333" y="212" type="curve"/>
      <point x="378" y="160"/>
      <point x="420" y="110"/>
      <point x="452" y="70" type="curve"/>
      <point x="377" y="70" type="line"/>
      <point x="377" y="0" type="line"/>
      <point x="648" y="0" type="line"/>
      <point x="648" y="70" type="line"/>
      <point x="551" y="70" type="line"/>
      <point x="512" y="120"/>
      <point x="448" y="194"/>
      <point x="382" y="269" type="curve"/>
      <point x="446" y="343"/>
      <point x="508" y="415"/>
      <point x="543" y="464" type="curve"/>
      <point x="627" y="464" type="line"/>
      <point x="627" y="533" type="line"/>
      <point x="381" y="533" type="line"/>
      <point x="381" y="464" type="line"/>
      <point x="454" y="464" type="line"/>
      <point x="421" y="424"/>
      <point x="378" y="376"/>
      <point x="333" y="325" type="curve"/>
      <point x="288" y="376"/>
      <point x="246" y="424"/>
      <point x="214" y="464" type="curve"/>
      <point x="286" y="464" type="line"/>
      <point x="286" y="533" type="line"/>
      <point x="40" y="533" type="line"/>
      <point x="40" y="464" type="line"/>
      <point x="123" y="464" type="line"/>
      <point x="160" y="415"/>
      <point x="221" y="343"/>
      <point x="284" y="270" type="curve"/>
      <point x="217" y="195"/>
      <point x="151" y="121"/>
      <point x="111" y="70" type="curve"/>
      <point x="15" y="70" type="line"/>
    </contour>
  </outline>
</glyph>
<glyph name="y" format="1">
  <advance width="690"/>
  <unicode hex="0079"/>
  <outline>
    <contour>
      <point x="104" y="-300" type="line"/>
      <point x="257" y="-300" type="line"/>
      <point x="588" y="464" type="line"/>
      <point x="676" y="464" type="line"/>
      <point x="676" y="533" type="line"/>
      <point x="401" y="533" type="line"/>
      <point x="401" y="464" type="line"/>
      <point x="493" y="464" type="line"/>
      <point x="335" y="100" type="line"/>
      <point x="195" y="464" type="line"/>
      <point x="292" y="464" type="line"/>
      <point x="292" y="533" type="line"/>
      <point x="13" y="533" type="line"/>
      <point x="13" y="464" type="line"/>
      <point x="101" y="464" type="line"/>
      <point x="289" y="-5" type="line"/>
      <point x="191" y="-231" type="line"/>
      <point x="104" y="-231" type="line"/>
    </contour>
    <contour>
      <point x="358" y="671" type="move" name="top"/>
    </contour>
  </outline>
</glyph>
<glyph name="z" format="1">
  <advance width="557"/>
  <unicode hex="007A"/>
  <outline>
    <contour>
      <point x="508" y="0" type="line"/>
      <point x="508" y="150" type="line"/>
      <point x="436" y="150" type="line"/>
      <point x="436" y="70" type="line"/>
      <point x="155" y="70" type="line"/>
      <point x="475" y="464" type="line"/>
      <point x="475" y="533" type="line"/>
      <point x="70" y="533" type="line"/>
      <point x="70" y="384" type="line"/>
      <point x="142" y="384" type="line"/>
      <point x="142" y="464" type="line"/>
      <point x="372" y="464" type="line"/>
      <point x="50" y="70" type="line"/>
      <point x="50" y="0" type="line"/>
    </contour>
    <contour>
      <point x="279" y="671" type="move" name="top"/>
    </contour>
  </outline>
</glyph>
<glyph name="braceleft" format="1">
  <advance width="314"/>
  <unicode hex="007B"/>
  <outline>
    <contour>
      <point x="269" y="-116" type="curve"/>
      <point x="269" y="-46" type="line"/>
      <point x="217" y="-46"/>
      <point x="195" y="-8"/>
      <point x="195" y="48" type="curve"/>
      <point x="195" y="212" type="line"/>
      <point x="195" y="267"/>
      <point x="178" y="311"/>
      <point x="146" y="340" type="curve"/>
      <point x="178" y="369"/>
      <point x="195" y="413"/>
      <point x="195" y="469" type="curve"/>
      <point x="195" y="631" type="line"/>
      <point x="195" y="686"/>
      <point x="217" y="725"/>
      <point x="269" y="725" type="curve"/>
      <point x="269" y="795" type="line"/>
      <point x="168" y="795"/>
      <point x="111" y="733"/>
      <point x="111" y="631" type="curve"/>
      <point x="111" y="459" type="line"/>
      <point x="111" y="408"/>
      <point x="87" y="377"/>
      <point x="38" y="377" type="curve"/>
      <point x="38" y="304" type="line"/>
      <point x="88" y="304"/>
      <point x="111" y="270"/>
      <point x="111" y="218" type="curve"/>
      <point x="111" y="51" type="line"/>
      <point x="111" y="-52"/>
      <point x="168" y="-116"/>
    </contour>
  </outline>
</glyph>
<glyph name="bar" format="1">
  <advance width="241"/>
  <unicode hex="007C"/>
  <outline>
    <contour>
      <point x="166" y="-300" type="line"/>
      <point x="166" y="800" type="line"/>
      <point x="74" y="800" type="line"/>
      <point x="74" y="-300" type="line"/>
    </contour>
  </outline>
</glyph>
<glyph name="braceright" format="1">
  <advance width="314"/>
  <unicode hex="007D"/>
  <outline>
    <contour>
      <point x="44" y="-116" type="line"/>
      <point x="146" y="-116"/>
      <point x="202" y="-52"/>
      <point x="202" y="51" type="curve"/>
      <point x="202" y="218" type="line"/>
      <point x="202" y="270"/>
      <point x="226" y="304"/>
      <point x="275" y="304" type="curve"/>
      <point x="275" y="377" type="line"/>
      <point x="226" y="377"/>
      <point x="202" y="408"/>
      <point x="202" y="459" type="curve"/>
      <point x="202" y="631" type="line"/>
      <point x="202" y="733"/>
      <point x="146" y="795"/>
      <point x="44" y="795" type="curve"/>
      <point x="44" y="725" type="line"/>
      <point x="97" y="725"/>
      <point x="118" y="686"/>
      <point x="118" y="631" type="curve"/>
      <point x="118" y="469" type="line"/>
      <point x="118" y="413"/>
      <point x="135" y="368"/>
      <point x="168" y="340" type="curve"/>
      <point x="135" y="311"/>
      <point x="118" y="267"/>
      <point x="118" y="212" type="curve"/>
      <point x="118" y="48" type="line"/>
      <point x="118" y="-8"/>
      <point x="97" y="-46"/>
      <point x="44" y="-46" type="curve"/>
    </contour>
  </outline>
</glyph>
<glyph name="asciitilde" format="1">
  <advance width="698"/>
  <unicode hex="007E"/>
  <outline>
    <contour>
      <point x="475" y="274" type="curve"/>
      <point x="431" y="274"/>
      <point x="406" y="288"/>
      <point x="372" y="315" type="curve"/>
      <point x="325" y="350"/>
      <point x="292" y="371"/>
      <point x="233" y="371" type="curve"/>
      <point x="144" y="371"/>
      <point x="103" y="323"/>
      <point x="77" y="238" type="curve"/>
      <point x="108" y="224"/>
      <point x="111" y="221"/>
      <point x="142" y="209" type="curve"/>
      <point x="157" y="260"/>
      <point x="174" y="301"/>
      <point x="228" y="301" type="curve"/>
      <point x="265" y="301"/>
      <point x="286" y="288"/>
      <point x="314" y="265" type="curve"/>
      <point x="366" y="227"/>
      <point x="401" y="206"/>
      <point x="466" y="205" type="curve"/>
      <point x="554" y="205"/>
      <point x="591" y="253"/>
      <point x="622" y="333" type="curve"/>
      <point x="588" y="346"/>
      <point x="585" y="350"/>
      <point x="551" y="363" type="curve"/>
      <point x="535" y="318"/>
      <point x="524" y="274"/>
    </contour>
  </outline>
</glyph>
<glyph name="exclamdown" format="1">
  <advance width="264"/>
  <unicode hex="00A1"/>
  <outline>
    <contour>
      <point x="132" y="486" type="curve"/>
      <point x="165" y="486"/>
      <point x="187" y="503"/>
      <point x="187" y="532" type="curve"/>
      <point x="187" y="563"/>
      <point x="166" y="578"/>
      <point x="133" y="578" type="curve"/>
      <point x="99" y="578"/>
      <point x="75" y="564"/>
      <point x="75" y="532" type="curve"/>
      <point x="75" y="501"/>
      <point x="99" y="486"/>
    </contour>
    <contour>
      <point x="96" y="342" type="line"/>
      <point x="84" y="-152" type="line"/>
      <point x="180" y="-152" type="line"/>
      <point x="169" y="342" type="line"/>
    </contour>
  </outline>
</glyph>
<glyph name="cent" format="1">
  <advance width="665"/>
  <unicode hex="00A2"/>
  <outline>
    <contour>
      <point x="610" y="141" type="curve"/>
      <point x="585" y="172" type="line" smooth="yes"/>
      <point x="560" y="202" type="line"/>
      <point x="489" y="149"/>
      <point x="435" y="122"/>
      <point x="355" y="122" type="curve"/>
      <point x="216" y="122"/>
      <point x="147" y="222"/>
      <point x="147" y="368" type="curve"/>
      <point x="147" y="517"/>
      <point x="228" y="611"/>
      <point x="371" y="611" type="curve"/>
      <point x="435" y="611"/>
      <point x="481" y="597"/>
      <point x="537" y="568" type="curve"/>
      <point x="537" y="472" type="line"/>
      <point x="609" y="472" type="line"/>
      <point x="609" y="612" type="line"/>
      <point x="544" y="655"/>
      <point x="489" y="676"/>
      <point x="418" y="682" type="curve"/>
      <point x="418" y="778" type="line"/>
      <point x="326" y="778" type="line"/>
      <point x="326" y="680" type="line"/>
      <point x="156" y="661"/>
      <point x="54" y="548"/>
      <point x="54" y="365" type="curve"/>
      <point x="54" y="187"/>
      <point x="142" y="68"/>
      <point x="305" y="51" type="curve"/>
      <point x="305" y="-53" type="line"/>
      <point x="398" y="-53" type="line"/>
      <point x="398" y="52" type="line"/>
      <point x="477" y="60"/>
      <point x="540" y="90"/>
    </contour>
  </outline>
</glyph>
<glyph name="sterling" format="1">
  <advance width="523"/>
  <unicode hex="00A3"/>
  <outline>
    <contour>
      <point x="447" y="70" type="line"/>
      <point x="200" y="70" type="line"/>
      <point x="232" y="114"/>
      <point x="247" y="175"/>
      <point x="247" y="245" type="curve" smooth="yes"/>
      <point x="247" y="275"/>
      <point x="245" y="308"/>
      <point x="239" y="341" type="curve"/>
      <point x="400" y="341" type="line"/>
      <point x="400" y="411" type="line"/>
      <point x="226" y="411" type="line"/>
      <point x="220" y="444"/>
      <point x="217" y="475"/>
      <point x="217" y="504" type="curve" smooth="yes"/>
      <point x="217" y="592"/>
      <point x="245" y="656"/>
      <point x="320" y="656" type="curve"/>
      <point x="364" y="656"/>
      <point x="393" y="642"/>
      <point x="427" y="618" type="curve"/>
      <point x="450" y="644" type="line" smooth="yes"/>
      <point x="472" y="669" type="line"/>
      <point x="424" y="708"/>
      <point x="384" y="723"/>
      <point x="325" y="723" type="curve"/>
      <point x="189" y="723"/>
      <point x="125" y="623"/>
      <point x="125" y="487" type="curve" smooth="yes"/>
      <point x="125" y="463"/>
      <point x="127" y="437"/>
      <point x="131" y="411" type="curve"/>
      <point x="79" y="411" type="line"/>
      <point x="79" y="341" type="line"/>
      <point x="145" y="341" type="line"/>
      <point x="152" y="300"/>
      <point x="157" y="260"/>
      <point x="157" y="224" type="curve" smooth="yes"/>
      <point x="157" y="134"/>
      <point x="128" y="70"/>
      <point x="44" y="70" type="curve"/>
      <point x="44" y="0" type="line"/>
      <point x="447" y="0" type="line"/>
    </contour>
  </outline>
</glyph>
<glyph name="currency" format="1">
  <advance width="673"/>
  <unicode hex="00A4"/>
  <outline>
    <contour>
      <point x="143" y="314" type="curve"/>
      <point x="143" y="279"/>
      <point x="149" y="248"/>
      <point x="162" y="222" type="curve"/>
      <point x="57" y="124" type="line"/>
      <point x="131" y="50" type="line"/>
      <point x="227" y="152" type="line"/>
      <point x="257" y="135"/>
      <point x="295" y="126"/>
      <point x="339" y="126" type="curve"/>
      <point x="380" y="126"/>
      <point x="415" y="135"/>
      <point x="444" y="151" type="curve"/>
      <point x="541" y="48" type="line"/>
      <point x="615" y="122" type="line"/>
      <point x="510" y="221" type="line"/>
      <point x="523" y="248"/>
      <point x="530" y="280"/>
      <point x="530" y="316" type="curve"/>
      <point x="530" y="351"/>
      <point x="523" y="382"/>
      <point x="510" y="408" type="curve"/>
      <point x="613" y="505" type="line"/>
      <point x="539" y="579" type="line"/>
      <point x="442" y="476" type="line"/>
      <point x="414" y="490"/>
      <point x="381" y="497"/>
      <point x="344" y="497" type="curve"/>
      <point x="301" y="497"/>
      <point x="264" y="489"/>
      <point x="234" y="474" type="curve"/>
      <point x="133" y="581" type="line"/>
      <point x="59" y="507" type="line"/>
      <point x="164" y="408" type="line"/>
      <point x="150" y="382"/>
      <point x="143" y="350"/>
    </contour>
    <contour>
      <point x="236" y="314" type="curve"/>
      <point x="236" y="381"/>
      <point x="270" y="427"/>
      <point x="335" y="427" type="curve"/>
      <point x="403" y="427"/>
      <point x="437" y="382"/>
      <point x="437" y="313" type="curve"/>
      <point x="437" y="244"/>
      <point x="408" y="195"/>
      <point x="343" y="195" type="curve"/>
      <point x="272" y="195"/>
      <point x="236" y="242"/>
    </contour>
  </outline>
</glyph>
<glyph name="yen" format="1">
  <advance width="723"/>
  <unicode hex="00A5"/>
  <outline>
    <contour>
      <point x="218" y="0" type="line"/>
      <point x="494" y="0" type="line"/>
      <point x="494" y="70" type="line"/>
      <point x="406" y="70" type="line"/>
      <point x="406" y="191" type="line"/>
      <point x="586" y="191" type="line"/>
      <point x="586" y="268" type="line"/>
      <point x="406" y="268" type="line"/>
      <point x="406" y="336" type="line"/>
      <point x="586" y="336" type="line"/>
      <point x="586" y="413" type="line"/>
      <point x="451" y="413" type="line"/>
      <point x="501" y="493"/>
      <point x="552" y="573"/>
      <point x="603" y="653" type="curve"/>
      <point x="688" y="653" type="line"/>
      <point x="688" y="722" type="line"/>
      <point x="422" y="722" type="line"/>
      <point x="422" y="653" type="line"/>
      <point x="512" y="653" type="line"/>
      <point x="460" y="573"/>
      <point x="408" y="492"/>
      <point x="357" y="412" type="curve"/>
      <point x="308" y="492"/>
      <point x="259" y="573"/>
      <point x="210" y="653" type="curve"/>
      <point x="301" y="653" type="line"/>
      <point x="301" y="722" type="line"/>
      <point x="35" y="722" type="line"/>
      <point x="35" y="653" type="line"/>
      <point x="119" y="653" type="line"/>
      <point x="167" y="573"/>
      <point x="215" y="493"/>
      <point x="263" y="413" type="curve"/>
      <point x="139" y="413" type="line"/>
      <point x="139" y="336" type="line"/>
      <point x="305" y="336" type="line"/>
      <point x="305" y="268" type="line"/>
      <point x="139" y="268" type="line"/>
      <point x="139" y="191" type="line"/>
      <point x="305" y="191" type="line"/>
      <point x="305" y="70" type="line"/>
      <point x="218" y="70" type="line"/>
    </contour>
  </outline>
</glyph>
<glyph name="brokenbar" format="1">
  <advance width="255"/>
  <unicode hex="00A6"/>
  <outline>
    <contour>
      <point x="173" y="428" type="line"/>
      <point x="173" y="800" type="line"/>
      <point x="81" y="800" type="line"/>
      <point x="81" y="428" type="line"/>
    </contour>
    <contour>
      <point x="173" y="-300" type="line"/>
      <point x="173" y="72" type="line"/>
      <point x="81" y="72" type="line"/>
      <point x="81" y="-300" type="line"/>
    </contour>
  </outline>
</glyph>
<glyph name="section" format="1">
  <advance width="535"/>
  <unicode hex="00A7"/>
  <outline>
    <contour>
      <point x="297" y="272" type="curve"/>
      <point x="225" y="296"/>
      <point x="152" y="309"/>
      <point x="152" y="373" type="curve"/>
      <point x="152" y="417"/>
      <point x="178" y="441"/>
      <point x="218" y="459" type="curve"/>
      <point x="223" y="457"/>
      <point x="229" y="455"/>
      <point x="234" y="453" type="curve"/>
      <point x="307" y="428"/>
      <point x="387" y="418"/>
      <point x="387" y="357" type="curve"/>
      <point x="387" y="308"/>
      <point x="359" y="282"/>
      <point x="314" y="267" type="curve"/>
      <point x="308" y="269"/>
      <point x="303" y="270"/>
    </contour>
    <contour>
      <point x="267" y="-28" type="curve"/>
      <point x="373" y="-28"/>
      <point x="450" y="17"/>
      <point x="450" y="118" type="curve"/>
      <point x="449" y="166"/>
      <point x="430" y="200"/>
      <point x="397" y="225" type="curve"/>
      <point x="449" y="252"/>
      <point x="479" y="296"/>
      <point x="479" y="361" type="curve"/>
      <point x="478" y="464"/>
      <point x="385" y="488"/>
      <point x="280" y="519" type="curve"/>
      <point x="228" y="538"/>
      <point x="186" y="558"/>
      <point x="186" y="609" type="curve"/>
      <point x="186" y="655"/>
      <point x="214" y="681"/>
      <point x="263" y="681" type="curve"/>
      <point x="299" y="681"/>
      <point x="327" y="675"/>
      <point x="358" y="663" type="curve"/>
      <point x="358" y="581" type="line"/>
      <point x="430" y="581" type="line"/>
      <point x="430" y="706" type="line"/>
      <point x="375" y="734"/>
      <point x="333" y="750"/>
      <point x="271" y="750" type="curve"/>
      <point x="166" y="750"/>
      <point x="94" y="704"/>
      <point x="94" y="609" type="curve"/>
      <point x="94" y="561"/>
      <point x="113" y="525"/>
      <point x="145" y="499" type="curve"/>
      <point x="92" y="472"/>
      <point x="60" y="432"/>
      <point x="60" y="367" type="curve"/>
      <point x="60" y="269"/>
      <point x="139" y="236"/>
      <point x="238" y="206" type="curve"/>
      <point x="299" y="185"/>
      <point x="358" y="166"/>
      <point x="358" y="115" type="curve"/>
      <point x="358" y="66"/>
      <point x="324" y="42"/>
      <point x="271" y="42" type="curve"/>
      <point x="226" y="42"/>
      <point x="194" y="51"/>
      <point x="155" y="71" type="curve"/>
      <point x="155" y="156" type="line"/>
      <point x="83" y="156" type="line"/>
      <point x="83" y="31" type="line"/>
      <point x="144" y="-9"/>
      <point x="195" y="-28"/>
    </contour>
  </outline>
</glyph>
<glyph name="dieresis" format="1">
  <advance width="448"/>
  <unicode hex="00A8"/>
  <outline>
    <contour>
      <point x="267" y="573" type="curve"/>
      <point x="301" y="573"/>
      <point x="325" y="587"/>
      <point x="325" y="619" type="curve"/>
      <point x="325" y="650"/>
      <point x="301" y="665"/>
      <point x="268" y="665" type="curve"/>
      <point x="235" y="665"/>
      <point x="213" y="648"/>
      <point x="213" y="619" type="curve"/>
      <point x="213" y="588"/>
      <point x="234" y="573"/>
    </contour>
    <contour>
      <point x="105" y="573" type="curve"/>
      <point x="138" y="573"/>
      <point x="162" y="587"/>
      <point x="162" y="619" type="curve"/>
      <point x="162" y="650"/>
      <point x="138" y="665"/>
      <point x="105" y="665" type="curve"/>
      <point x="72" y="665"/>
      <point x="50" y="648"/>
      <point x="50" y="619" type="curve"/>
      <point x="50" y="588"/>
      <point x="72" y="573"/>
    </contour>
    <contour>
      <point x="187" y="604" type="move" name="_top"/>
    </contour>
  </outline>
</glyph>
<glyph name="copyright" format="1">
  <advance width="798"/>
  <unicode hex="00A9"/>
  <outline>
    <contour>
      <point x="548" y="190" type="curve"/>
      <point x="510" y="234" type="line"/>
      <point x="467" y="210"/>
      <point x="438" y="200"/>
      <point x="396" y="200" type="curve"/>
      <point x="325" y="200"/>
      <point x="292" y="251"/>
      <point x="292" y="324" type="curve"/>
      <point x="292" y="399"/>
      <point x="330" y="448"/>
      <point x="404" y="448" type="curve"/>
      <point x="433" y="448"/>
      <point x="453" y="441"/>
      <point x="472" y="432" type="curve"/>
      <point x="488" y="439"/>
      <point x="476" y="434"/>
      <point x="472" y="432" type="curve"/>
      <point x="472" y="380" type="line"/>
      <point x="542" y="380" type="line"/>
      <point x="542" y="468" type="line"/>
      <point x="526.194056346" y="461.414190144"/>
      <point x="538" y="466"/>
      <point x="542" y="468" type="curve"/>
      <point x="502" y="493"/>
      <point x="460" y="506"/>
      <point x="407" y="506" type="curve"/>
      <point x="289" y="506"/>
      <point x="215" y="437"/>
      <point x="215" y="321" type="curve"/>
      <point x="215" y="209"/>
      <point x="281" y="142"/>
      <point x="392" y="142" type="curve"/>
      <point x="454" y="142"/>
      <point x="498" y="154"/>
    </contour>
    <contour>
      <point x="58" y="322" type="curve"/>
      <point x="58" y="123"/>
      <point x="201" y="1"/>
      <point x="406" y="1" type="curve"/>
      <point x="605" y="1"/>
      <point x="739" y="126"/>
      <point x="739" y="323" type="curve"/>
      <point x="739" y="521"/>
      <point x="603" y="646"/>
      <point x="402" y="646" type="curve"/>
      <point x="199" y="646"/>
      <point x="58" y="523"/>
    </contour>
    <contour>
      <point x="135" y="322" type="curve"/>
      <point x="135" y="484"/>
      <point x="240" y="588"/>
      <point x="402" y="588" type="curve"/>
      <point x="561" y="588"/>
      <point x="663" y="482"/>
      <point x="663" y="320" type="curve"/>
      <point x="663" y="164"/>
      <point x="565" y="59"/>
      <point x="409" y="59" type="curve"/>
      <point x="247" y="59"/>
      <point x="135" y="159"/>
    </contour>
  </outline>
</glyph>
<glyph name="ordfeminine" format="1">
  <advance width="477"/>
  <unicode hex="00AA"/>
  <outline>
    <contour>
      <point x="204" y="475" type="curve"/>
      <point x="161" y="475"/>
      <point x="134" y="494"/>
      <point x="134" y="530" type="curve"/>
      <point x="134" y="566"/>
      <point x="162" y="581"/>
      <point x="199" y="587" type="curve"/>
      <point x="238" y="592"/>
      <point x="266" y="595"/>
      <point x="301" y="599" type="curve"/>
      <point x="301" y="526" type="line"/>
      <point x="273" y="496"/>
      <point x="246" y="475"/>
    </contour>
    <contour>
      <point x="301" y="428" type="line"/>
      <point x="408" y="428" type="line"/>
      <point x="408" y="479" type="line"/>
      <point x="367" y="479" type="line"/>
      <point x="367" y="676" type="line"/>
      <point x="367" y="751"/>
      <point x="306" y="777"/>
      <point x="227" y="777" type="curve"/>
      <point x="167" y="777"/>
      <point x="125" y="758"/>
      <point x="88" y="728" type="curve"/>
      <point x="88" y="658" type="line"/>
      <point x="140" y="658" type="line"/>
      <point x="140" y="701" type="line"/>
      <point x="160" y="716"/>
      <point x="185" y="727"/>
      <point x="218" y="727" type="curve"/>
      <point x="264" y="727"/>
      <point x="301" y="709"/>
      <point x="301" y="663" type="curve"/>
      <point x="301" y="643" type="line"/>
      <point x="267" y="640"/>
      <point x="240" y="637"/>
      <point x="201" y="632" type="curve"/>
      <point x="125" y="622"/>
      <point x="68" y="600"/>
      <point x="68" y="529" type="curve"/>
      <point x="68" y="459"/>
      <point x="118" y="426"/>
      <point x="193" y="426" type="curve"/>
      <point x="240" y="426"/>
      <point x="271" y="442"/>
      <point x="301" y="469" type="curve"/>
    </contour>
  </outline>
</glyph>
<glyph name="guillemotleft" format="1">
  <advance width="611"/>
  <unicode hex="00AB"/>
  <outline>
    <contour>
      <point x="528" y="124" type="curve"/>
      <point x="528" y="200" type="line"/>
      <point x="504" y="211"/>
      <point x="431" y="251"/>
      <point x="373" y="282" type="curve"/>
      <point x="431" y="314"/>
      <point x="503" y="354"/>
      <point x="527" y="365" type="curve"/>
      <point x="527" y="441" type="line"/>
      <point x="490" y="424"/>
      <point x="337" y="337"/>
      <point x="300" y="320" type="curve"/>
      <point x="300" y="244" type="line"/>
      <point x="337" y="227"/>
      <point x="491" y="142"/>
    </contour>
    <contour>
      <point x="295" y="124" type="curve"/>
      <point x="295" y="200" type="line"/>
      <point x="271" y="211"/>
      <point x="198" y="251"/>
      <point x="140" y="282" type="curve"/>
      <point x="198" y="314"/>
      <point x="270" y="354"/>
      <point x="294" y="365" type="curve"/>
      <point x="294" y="441" type="line"/>
      <point x="257" y="424"/>
      <point x="104" y="337"/>
      <point x="67" y="320" type="curve"/>
      <point x="67" y="244" type="line"/>
      <point x="104" y="227"/>
      <point x="258" y="142"/>
    </contour>
  </outline>
</glyph>
<glyph name="logicalnot" format="1">
  <advance width="710"/>
  <unicode hex="00AC"/>
  <outline>
    <contour>
      <point x="632" y="146" type="line"/>
      <point x="632" y="349" type="line"/>
      <point x="93" y="349" type="line"/>
      <point x="93" y="273" type="line"/>
      <point x="545" y="273" type="line"/>
      <point x="545" y="146" type="line"/>
    </contour>
  </outline>
</glyph>
<glyph name="registered" format="1">
  <advance width="798"/>
  <unicode hex="00AE"/>
  <outline>
    <contour>
      <point x="391" y="443" type="line"/>
      <point x="430" y="443"/>
      <point x="457" y="427"/>
      <point x="457" y="389" type="curve"/>
      <point x="457" y="352"/>
      <point x="434" y="339"/>
      <point x="399" y="339" type="curve"/>
      <point x="365" y="339" type="line"/>
      <point x="365" y="443" type="line"/>
    </contour>
    <contour>
      <point x="58" y="322" type="curve"/>
      <point x="58" y="118"/>
      <point x="197" y="1"/>
      <point x="407" y="1" type="curve"/>
      <point x="611" y="1"/>
      <point x="740" y="122"/>
      <point x="740" y="323" type="curve"/>
      <point x="740" y="526"/>
      <point x="609" y="646"/>
      <point x="403" y="646" type="curve"/>
      <point x="194" y="646"/>
      <point x="58" y="527"/>
    </contour>
    <contour>
      <point x="572.0" y="202.0" type="line"/>
      <point x="538" y="202" type="line"/>
      <point x="480.0" y="298.0" type="line"/>
      <point x="513.0" y="314.0"/>
      <point x="533.0" y="344.0"/>
      <point x="533.0" y="392.0" type="curve"/>
      <point x="533.0" y="465.0"/>
      <point x="480.0" y="501.0"/>
      <point x="405.0" y="501.0" type="curve"/>
      <point x="245.0" y="501.0" type="line"/>
      <point x="245.0" y="443.0" type="line"/>
      <point x="288.0" y="443.0" type="line"/>
      <point x="288.0" y="202.0" type="line"/>
      <point x="245.0" y="202.0" type="line"/>
      <point x="245.0" y="145.0" type="line"/>
      <point x="398.0" y="145.0" type="line"/>
      <point x="398.0" y="202.0" type="line"/>
      <point x="365.0" y="202.0" type="line"/>
      <point x="365.0" y="281.0" type="line"/>
      <point x="388.0" y="281.0" type="line"/>
      <point x="392.0" y="281.0"/>
      <point x="395.0" y="281.0"/>
      <point x="399.0" y="281.0" type="curve"/>
      <point x="427.0" y="236.0"/>
      <point x="453.0" y="190.0"/>
      <point x="481.0" y="145.0" type="curve"/>
      <point x="572.0" y="145.0" type="line"/>
    </contour>
    <contour>
      <point x="130" y="322" type="curve"/>
      <point x="130" y="491"/>
      <point x="233" y="593"/>
      <point x="403" y="593" type="curve"/>
      <point x="569" y="593"/>
      <point x="669" y="488"/>
      <point x="669" y="320" type="curve"/>
      <point x="669" y="157"/>
      <point x="572" y="54"/>
      <point x="410" y="54" type="curve"/>
      <point x="239" y="54"/>
      <point x="130" y="153"/>
    </contour>
  </outline>
</glyph>
<glyph name="macron" format="1">
  <advance width="344"/>
  <unicode hex="00AF"/>
  <outline>
    <contour>
      <point x="253" y="599" type="line"/>
      <point x="253" y="668" type="line"/>
      <point x="28" y="668" type="line"/>
      <point x="28" y="599" type="line"/>
    </contour>
    <contour>
      <point x="142" y="615" type="move" name="_top"/>
    </contour>
  </outline>
</glyph>
<glyph name="degree" format="1">
  <advance width="505"/>
  <unicode hex="00B0"/>
  <outline>
    <contour>
      <point x="63" y="460" type="curve"/>
      <point x="63" y="329"/>
      <point x="124" y="240"/>
      <point x="250" y="240" type="curve"/>
      <point x="376" y="240"/>
      <point x="441" y="327"/>
      <point x="441" y="458" type="curve"/>
      <point x="441" y="585"/>
      <point x="377" y="670"/>
      <point x="253" y="670" type="curve"/>
      <point x="129" y="670"/>
      <point x="63" y="587"/>
    </contour>
    <contour>
      <point x="146" y="460" type="curve"/>
      <point x="146" y="540"/>
      <point x="173" y="602"/>
      <point x="250" y="602" type="curve"/>
      <point x="326" y="602"/>
      <point x="358" y="541"/>
      <point x="358" y="458" type="curve"/>
      <point x="358" y="372"/>
      <point x="331" y="307"/>
      <point x="253" y="307" type="curve"/>
      <point x="173" y="307"/>
      <point x="146" y="374"/>
    </contour>
  </outline>
</glyph>
<glyph name="plusminus" format="1">
  <advance width="695"/>
  <unicode hex="00B1"/>
  <outline>
    <contour>
      <point x="630" y="18" type="line"/>
      <point x="630" y="94" type="line"/>
      <point x="394" y="94" type="line"/>
      <point x="394" y="273" type="line"/>
      <point x="630" y="273" type="line"/>
      <point x="630" y="349" type="line"/>
      <point x="394" y="349" type="line"/>
      <point x="394" y="588" type="line"/>
      <point x="307" y="588" type="line"/>
      <point x="307" y="349" type="line"/>
      <point x="66" y="349" type="line"/>
      <point x="66" y="273" type="line"/>
      <point x="307" y="273" type="line"/>
      <point x="307" y="94" type="line"/>
      <point x="66" y="94" type="line"/>
      <point x="66" y="18" type="line"/>
    </contour>
  </outline>
</glyph>
<glyph name="acute" format="1">
  <advance width="298"/>
  <unicode hex="00B4"/>
  <outline>
    <contour>
      <point x="106" y="588" type="line"/>
      <point x="239" y="754" type="line"/>
      <point x="119" y="754" type="line"/>
      <point x="14" y="588" type="line"/>
    </contour>
    <contour>
      <point x="60" y="618" type="move" name="_top"/>
    </contour>
  </outline>
</glyph>
<glyph name="paragraph" format="1">
  <advance width="770"/>
  <unicode hex="00B6"/>
  <outline>
    <contour>
      <point x="602" y="70" type="line"/>
      <point x="499" y="70" type="line"/>
      <point x="499" y="653" type="line"/>
      <point x="602" y="653" type="line"/>
    </contour>
    <contour>
      <point x="292" y="331" type="curve"/>
      <point x="197" y="331"/>
      <point x="136" y="388"/>
      <point x="136" y="483" type="curve"/>
      <point x="136" y="594"/>
      <point x="214" y="653"/>
      <point x="328" y="653" type="curve"/>
      <point x="407" y="653" type="line"/>
      <point x="407" y="356" type="line"/>
      <point x="370" y="340"/>
      <point x="337" y="331"/>
    </contour>
    <contour>
      <point x="304" y="0" type="line"/>
      <point x="694" y="0" type="line"/>
      <point x="694" y="722" type="line"/>
      <point x="316" y="722" type="line"/>
      <point x="156" y="722"/>
      <point x="44" y="639"/>
      <point x="44" y="486" type="curve"/>
      <point x="44" y="338"/>
      <point x="149" y="264"/>
      <point x="300" y="261" type="curve"/>
      <point x="339" y="261"/>
      <point x="373" y="269"/>
      <point x="407" y="281" type="curve"/>
      <point x="407" y="70" type="line"/>
      <point x="304" y="70" type="line"/>
    </contour>
  </outline>
</glyph>
<glyph name="periodcentered" format="1">
  <advance width="262"/>
  <unicode hex="00B7"/>
  <outline>
    <contour>
      <point x="129" y="394" type="curve"/>
      <point x="163" y="394"/>
      <point x="187" y="408"/>
      <point x="187" y="440" type="curve"/>
      <point x="187" y="472"/>
      <point x="163" y="487"/>
      <point x="130" y="487" type="curve"/>
      <point x="97" y="487"/>
      <point x="75" y="470"/>
      <point x="75" y="440" type="curve"/>
      <point x="75" y="410"/>
      <point x="96" y="394"/>
    </contour>
  </outline>
</glyph>
<glyph name="cedilla" format="1">
  <advance width="359"/>
  <unicode hex="00B8"/>
  <outline>
    <contour>
      <point x="139" y="-188" type="curve"/>
      <point x="212" y="-188"/>
      <point x="266" y="-160"/>
      <point x="266" y="-92" type="curve"/>
      <point x="266" y="-38"/>
      <point x="233" y="-3"/>
      <point x="183" y="4" type="curve"/>
      <point x="196" y="24"/>
      <point x="208" y="41"/>
      <point x="215" y="52" type="curve"/>
      <point x="180" y="76" type="line" smooth="yes"/>
      <point x="144" y="100" type="line"/>
      <point x="130" y="76"/>
      <point x="83" y="9"/>
      <point x="69" y="-15" type="curve"/>
      <point x="101" y="-43" type="line" smooth="yes"/>
      <point x="132" y="-71" type="line"/>
      <point x="139" y="-65"/>
      <point x="144" y="-62"/>
      <point x="153" y="-62" type="curve"/>
      <point x="171" y="-62"/>
      <point x="177" y="-76"/>
      <point x="177" y="-95" type="curve"/>
      <point x="177" y="-117"/>
      <point x="164" y="-130"/>
      <point x="143" y="-130" type="curve"/>
      <point x="120" y="-130"/>
      <point x="101" y="-123"/>
      <point x="75" y="-110" type="curve"/>
      <point x="62" y="-137" type="line" smooth="yes"/>
      <point x="48" y="-163" type="line"/>
      <point x="79" y="-179"/>
      <point x="104" y="-188"/>
    </contour>
    <contour>
      <point x="200" y="52" type="move" name="_bottom"/>
    </contour>
  </outline>
</glyph>
<glyph name="ordmasculine" format="1">
  <advance width="476"/>
  <unicode hex="00BA"/>
  <outline>
    <contour>
      <point x="67" y="607" type="curve"/>
      <point x="67" y="492"/>
      <point x="128" y="423"/>
      <point x="239" y="423" type="curve"/>
      <point x="347" y="423"/>
      <point x="408" y="490"/>
      <point x="408" y="605" type="curve"/>
      <point x="408" y="712"/>
      <point x="349" y="779"/>
      <point x="239" y="779" type="curve"/>
      <point x="127" y="779"/>
      <point x="67" y="712"/>
    </contour>
    <contour>
      <point x="134" y="607" type="curve"/>
      <point x="134" y="679"/>
      <point x="167" y="728"/>
      <point x="236" y="728" type="curve"/>
      <point x="307" y="728"/>
      <point x="341" y="679"/>
      <point x="341" y="605" type="curve"/>
      <point x="341" y="526"/>
      <point x="307" y="474"/>
      <point x="242" y="474" type="curve"/>
      <point x="168" y="474"/>
      <point x="134" y="527"/>
    </contour>
  </outline>
</glyph>
<glyph name="guillemotright" format="1">
  <advance width="611"/>
  <unicode hex="00BB"/>
  <outline>
    <contour>
      <point x="83" y="124" type="line"/>
      <point x="120" y="142"/>
      <point x="274" y="227"/>
      <point x="311" y="244" type="curve"/>
      <point x="311" y="320" type="line"/>
      <point x="274" y="337"/>
      <point x="120" y="424"/>
      <point x="83" y="441" type="curve"/>
      <point x="83" y="365" type="line"/>
      <point x="107" y="354"/>
      <point x="180" y="314"/>
      <point x="238" y="282" type="curve"/>
      <point x="180" y="251"/>
      <point x="107" y="211"/>
      <point x="83" y="200" type="curve"/>
    </contour>
    <contour>
      <point x="316" y="124" type="line"/>
      <point x="353" y="142"/>
      <point x="507" y="227"/>
      <point x="544" y="244" type="curve"/>
      <point x="544" y="320" type="line"/>
      <point x="507" y="337"/>
      <point x="353" y="424"/>
      <point x="316" y="441" type="curve"/>
      <point x="316" y="365" type="line"/>
      <point x="340" y="354"/>
      <point x="413" y="314"/>
      <point x="471" y="282" type="curve"/>
      <point x="413" y="251"/>
      <point x="340" y="211"/>
      <point x="316" y="200" type="curve"/>
    </contour>
  </outline>
</glyph>
<glyph name="questiondown" format="1">
  <advance width="540"/>
  <unicode hex="00BF"/>
  <outline>
    <contour>
      <point x="295" y="642" type="curve"/>
      <point x="328" y="642"/>
      <point x="350" y="659"/>
      <point x="350" y="689" type="curve"/>
      <point x="350" y="719"/>
      <point x="328" y="735"/>
      <point x="295" y="735" type="curve"/>
      <point x="262" y="735"/>
      <point x="238" y="721"/>
      <point x="238" y="689" type="curve"/>
      <point x="238" y="657"/>
      <point x="262" y="642"/>
    </contour>
    <contour>
      <point x="484" y="63" type="curve"/>
      <point x="435" y="114" type="line"/>
      <point x="405" y="76"/>
      <point x="354" y="42"/>
      <point x="290" y="42" type="curve"/>
      <point x="201" y="42"/>
      <point x="146" y="96"/>
      <point x="146" y="185" type="curve"/>
      <point x="146" y="282"/>
      <point x="218" y="345"/>
      <point x="329" y="345" type="curve"/>
      <point x="341" y="345" type="line"/>
      <point x="341" y="483" type="line"/>
      <point x="249" y="483" type="line"/>
      <point x="249" y="410" type="line"/>
      <point x="132" y="385"/>
      <point x="57" y="305"/>
      <point x="57" y="185" type="curve"/>
      <point x="57" y="52"/>
      <point x="149" y="-30"/>
      <point x="285" y="-30" type="curve"/>
      <point x="373" y="-30"/>
      <point x="433" y="5"/>
    </contour>
  </outline>
</glyph>
<glyph name="Aacute" format="1">
  <advance width="810"/>
  <unicode hex="00C1"/>
  <outline>
    <contour>
      <point x="454" y="795" type="line"/>
      <point x="587" y="961" type="line"/>
      <point x="467" y="961" type="line"/>
      <point x="362" y="795" type="line"/>
    </contour>
    <contour>
      <point x="520" y="297" type="curve"/>
      <point x="276" y="297" type="line"/>
      <point x="319" y="403"/>
      <point x="361" y="510"/>
      <point x="405" y="616" type="curve"/>
      <point x="443" y="510"/>
      <point x="481" y="403"/>
    </contour>
    <contour>
      <point x="-5" y="0" type="line"/>
      <point x="277" y="0" type="line"/>
      <point x="277" y="70" type="line"/>
      <point x="185" y="70" type="line"/>
      <point x="206" y="121"/>
      <point x="226" y="173"/>
      <point x="247" y="224" type="curve"/>
      <point x="546" y="224" type="line"/>
      <point x="565" y="173"/>
      <point x="583" y="121"/>
      <point x="602" y="70" type="curve"/>
      <point x="506" y="70" type="line"/>
      <point x="506" y="0" type="line"/>
      <point x="788" y="0" type="line"/>
      <point x="788" y="70" type="line"/>
      <point x="698" y="70" type="line"/>
      <point x="616" y="288"/>
      <point x="531" y="504"/>
      <point x="450" y="722" type="curve"/>
      <point x="364" y="722" type="line"/>
      <point x="273" y="504"/>
      <point x="177" y="288"/>
      <point x="85" y="70" type="curve"/>
      <point x="-5" y="70" type="line"/>
    </contour>
  </outline>
</glyph>
<glyph name="Atilde" format="1">
  <advance width="810"/>
  <unicode hex="00C3"/>
  <outline>
    <contour>
      <point x="496" y="802" type="curve"/>
      <point x="572" y="802"/>
      <point x="602" y="857"/>
      <point x="624" y="932" type="curve"/>
      <point x="588" y="947" type="line" smooth="yes"/>
      <point x="551" y="961" type="line"/>
      <point x="541" y="918"/>
      <point x="528" y="874"/>
      <point x="496" y="874" type="curve"/>
      <point x="463" y="874"/>
      <point x="446" y="890"/>
      <point x="423" y="914" type="curve"/>
      <point x="391" y="947"/>
      <point x="365" y="966"/>
      <point x="319" y="966" type="curve"/>
      <point x="245" y="966"/>
      <point x="213" y="915"/>
      <point x="189" y="837" type="curve"/>
      <point x="258" y="806"/>
      <point x="190" y="836"/>
      <point x="259" y="806" type="curve"/>
      <point x="272" y="855"/>
      <point x="284" y="894"/>
      <point x="320" y="894" type="curve"/>
      <point x="352" y="894"/>
      <point x="366" y="875"/>
      <point x="386" y="854" type="curve"/>
      <point x="422" y="819"/>
      <point x="448" y="802"/>
    </contour>
    <contour>
      <point x="520" y="297" type="curve"/>
      <point x="276" y="297" type="line"/>
      <point x="319" y="403"/>
      <point x="361" y="510"/>
      <point x="405" y="616" type="curve"/>
      <point x="443" y="510"/>
      <point x="481" y="403"/>
    </contour>
    <contour>
      <point x="-5" y="0" type="line"/>
      <point x="277" y="0" type="line"/>
      <point x="277" y="70" type="line"/>
      <point x="185" y="70" type="line"/>
      <point x="206" y="121"/>
      <point x="226" y="173"/>
      <point x="247" y="224" type="curve"/>
      <point x="546" y="224" type="line"/>
      <point x="565" y="173"/>
      <point x="583" y="121"/>
      <point x="602" y="70" type="curve"/>
      <point x="506" y="70" type="line"/>
      <point x="506" y="0" type="line"/>
      <point x="788" y="0" type="line"/>
      <point x="788" y="70" type="line"/>
      <point x="698" y="70" type="line"/>
      <point x="616" y="288"/>
      <point x="531" y="504"/>
      <point x="450" y="722" type="curve"/>
      <point x="364" y="722" type="line"/>
      <point x="273" y="504"/>
      <point x="177" y="288"/>
      <point x="85" y="70" type="curve"/>
      <point x="-5" y="70" type="line"/>
    </contour>
  </outline>
</glyph>
<glyph name="Adieresis" format="1">
  <advance width="810"/>
  <unicode hex="00C4"/>
  <outline>
    <contour>
      <point x="486" y="794" type="curve"/>
      <point x="519" y="794"/>
      <point x="543" y="808"/>
      <point x="543" y="840" type="curve"/>
      <point x="543" y="872"/>
      <point x="519" y="887"/>
      <point x="486" y="887" type="curve"/>
      <point x="453" y="887"/>
      <point x="431" y="870"/>
      <point x="431" y="840" type="curve"/>
      <point x="431" y="810"/>
      <point x="453" y="794"/>
    </contour>
    <contour>
      <point x="323" y="794" type="curve"/>
      <point x="357" y="794"/>
      <point x="381" y="808"/>
      <point x="381" y="840" type="curve"/>
      <point x="381" y="872"/>
      <point x="357" y="887"/>
      <point x="324" y="887" type="curve"/>
      <point x="291" y="887"/>
      <point x="269" y="870"/>
      <point x="269" y="840" type="curve"/>
      <point x="269" y="810"/>
      <point x="290" y="794"/>
    </contour>
    <contour>
      <point x="520" y="297" type="curve"/>
      <point x="276" y="297" type="line"/>
      <point x="319" y="403"/>
      <point x="361" y="510"/>
      <point x="405" y="616" type="curve"/>
      <point x="443" y="510"/>
      <point x="481" y="403"/>
    </contour>
    <contour>
      <point x="-5" y="0" type="line"/>
      <point x="277" y="0" type="line"/>
      <point x="277" y="70" type="line"/>
      <point x="185" y="70" type="line"/>
      <point x="206" y="121"/>
      <point x="226" y="173"/>
      <point x="247" y="224" type="curve"/>
      <point x="546" y="224" type="line"/>
      <point x="565" y="173"/>
      <point x="583" y="121"/>
      <point x="602" y="70" type="curve"/>
      <point x="506" y="70" type="line"/>
      <point x="506" y="0" type="line"/>
      <point x="788" y="0" type="line"/>
      <point x="788" y="70" type="line"/>
      <point x="698" y="70" type="line"/>
      <point x="616" y="288"/>
      <point x="531" y="504"/>
      <point x="450" y="722" type="curve"/>
      <point x="364" y="722" type="line"/>
      <point x="273" y="504"/>
      <point x="177" y="288"/>
      <point x="85" y="70" type="curve"/>
      <point x="-5" y="70" type="line"/>
    </contour>
  </outline>
</glyph>
<glyph name="Aring" format="1">
  <advance width="810"/>
  <unicode hex="00C5"/>
  <outline>
    <contour>
      <point x="260" y="927" type="curve"/>
      <point x="260" y="842"/>
      <point x="318" y="794"/>
      <point x="406" y="794" type="curve"/>
      <point x="496" y="794"/>
      <point x="555" y="841"/>
      <point x="555" y="927" type="curve"/>
      <point x="555" y="1014"/>
      <point x="495" y="1061"/>
      <point x="404" y="1061" type="curve"/>
      <point x="316" y="1061"/>
      <point x="260" y="1013"/>
    </contour>
    <contour>
      <point x="520" y="297" type="curve"/>
      <point x="276" y="297" type="line"/>
      <point x="319" y="403"/>
      <point x="361" y="510"/>
      <point x="405" y="616" type="curve"/>
      <point x="443" y="510"/>
      <point x="481" y="403"/>
    </contour>
    <contour>
      <point x="-5" y="0" type="line"/>
      <point x="277" y="0" type="line"/>
      <point x="277" y="70" type="line"/>
      <point x="185" y="70" type="line"/>
      <point x="206" y="121"/>
      <point x="226" y="173"/>
      <point x="247" y="224" type="curve"/>
      <point x="546" y="224" type="line"/>
      <point x="565" y="173"/>
      <point x="583" y="121"/>
      <point x="602" y="70" type="curve"/>
      <point x="506" y="70" type="line"/>
      <point x="506" y="0" type="line"/>
      <point x="788" y="0" type="line"/>
      <point x="788" y="70" type="line"/>
      <point x="698" y="70" type="line"/>
      <point x="616" y="288"/>
      <point x="531" y="504"/>
      <point x="450" y="722" type="curve"/>
      <point x="364" y="722" type="line"/>
      <point x="273" y="504"/>
      <point x="177" y="288"/>
      <point x="85" y="70" type="curve"/>
      <point x="-5" y="70" type="line"/>
    </contour>
    <contour>
      <point x="338" y="927" type="curve"/>
      <point x="338" y="974"/>
      <point x="362" y="1001"/>
      <point x="404" y="1001" type="curve"/>
      <point x="449" y="1001"/>
      <point x="476" y="977"/>
      <point x="476" y="927" type="curve"/>
      <point x="476" y="880"/>
      <point x="450" y="853"/>
      <point x="406" y="853" type="curve"/>
      <point x="363" y="853"/>
      <point x="338" y="880"/>
    </contour>
  </outline>
</glyph>
<glyph name="AE" format="1">
  <advance width="984"/>
  <unicode hex="00C6"/>
  <outline>
    <contour>
      <point x="461" y="287" type="line"/>
      <point x="313" y="287" type="line"/>
      <point x="461" y="540" type="line"/>
    </contour>
    <contour>
      <point x="-2" y="0" type="line"/>
      <point x="276" y="0" type="line"/>
      <point x="276" y="70" type="line"/>
      <point x="185" y="70" type="line"/>
      <point x="270" y="214" type="line"/>
      <point x="461" y="214" type="line"/>
      <point x="461" y="70" type="line"/>
      <point x="370" y="70" type="line"/>
      <point x="370" y="0" type="line"/>
      <point x="936" y="0" type="line"/>
      <point x="936" y="150" type="line"/>
      <point x="863" y="150" type="line"/>
      <point x="863" y="70" type="line"/>
      <point x="553" y="70" type="line"/>
      <point x="553" y="339" type="line"/>
      <point x="839" y="339" type="line"/>
      <point x="839" y="408" type="line"/>
      <point x="553" y="408" type="line"/>
      <point x="553" y="653" type="line"/>
      <point x="829" y="653" type="line"/>
      <point x="829" y="573" type="line"/>
      <point x="902" y="573" type="line"/>
      <point x="902" y="722" type="line"/>
      <point x="370" y="722" type="line"/>
      <point x="370" y="653" type="line"/>
      <point x="442" y="653" type="line"/>
      <point x="86" y="70" type="line"/>
      <point x="-2" y="70" type="line"/>
    </contour>
  </outline>
</glyph>
<glyph name="Ccedilla" format="1">
  <advance width="712"/>
  <unicode hex="00C7"/>
  <outline>
    <contour>
      <point x="333" y="-244" type="curve"/>
      <point x="407" y="-244"/>
      <point x="460" y="-215"/>
      <point x="460" y="-148" type="curve"/>
      <point x="460" y="-93"/>
      <point x="428" y="-59"/>
      <point x="377" y="-52" type="curve"/>
      <point x="390" y="-33"/>
      <point x="402" y="-16"/>
      <point x="409" y="-5" type="curve"/>
      <point x="519" y="-2"/>
      <point x="588" y="31"/>
      <point x="666" y="92" type="curve"/>
      <point x="647" y="122" type="line" smooth="yes"/>
      <point x="646" y="122"/>
      <point x="646" y="122"/>
      <point x="627" y="152" type="curve"/>
      <point x="550" y="96"/>
      <point x="488" y="70"/>
      <point x="395" y="70" type="curve"/>
      <point x="231" y="70"/>
      <point x="151" y="177"/>
      <point x="151" y="348" type="curve"/>
      <point x="151" y="533"/>
      <point x="236" y="654"/>
      <point x="412" y="654" type="curve"/>
      <point x="477" y="654"/>
      <point x="534" y="639"/>
      <point x="586" y="612" type="curve"/>
      <point x="586" y="510" type="line"/>
      <point x="659" y="510" type="line"/>
      <point x="659" y="655" type="line"/>
      <point x="586" y="695"/>
      <point x="507" y="727"/>
      <point x="416" y="727" type="curve"/>
      <point x="183" y="727"/>
      <point x="58" y="583"/>
      <point x="58" y="344" type="curve"/>
      <point x="58" y="154"/>
      <point x="146" y="31"/>
      <point x="310" y="2" type="curve"/>
      <point x="292" y="-25"/>
      <point x="272" y="-56"/>
      <point x="264" y="-70" type="curve"/>
      <point x="296" y="-98" type="line" smooth="yes"/>
      <point x="327" y="-126" type="line"/>
      <point x="333" y="-120"/>
      <point x="339" y="-117"/>
      <point x="348" y="-117" type="curve"/>
      <point x="365" y="-117"/>
      <point x="372" y="-131"/>
      <point x="372" y="-150" type="curve"/>
      <point x="372" y="-172"/>
      <point x="359" y="-185"/>
      <point x="337" y="-185" type="curve"/>
      <point x="314" y="-185"/>
      <point x="296" y="-179"/>
      <point x="269" y="-165" type="curve"/>
      <point x="243" y="-219" type="line"/>
      <point x="273" y="-235"/>
      <point x="298" y="-244"/>
    </contour>
  </outline>
</glyph>
<glyph name="Egrave" format="1">
  <advance width="655"/>
  <unicode hex="00C8"/>
  <outline>
    <contour>
      <point x="380" y="803" type="line"/>
      <point x="273" y="969" type="line"/>
      <point x="153" y="969" type="line"/>
      <point x="286" y="803" type="line"/>
    </contour>
    <contour>
      <point x="41" y="0" type="line"/>
      <point x="607" y="0" type="line"/>
      <point x="607" y="150" type="line"/>
      <point x="535" y="150" type="line"/>
      <point x="535" y="70" type="line"/>
      <point x="225" y="70" type="line"/>
      <point x="225" y="339" type="line"/>
      <point x="510" y="339" type="line"/>
      <point x="510" y="408" type="line"/>
      <point x="225" y="408" type="line"/>
      <point x="225" y="653" type="line"/>
      <point x="501" y="653" type="line"/>
      <point x="501" y="573" type="line"/>
      <point x="573" y="573" type="line"/>
      <point x="573" y="722" type="line"/>
      <point x="41" y="722" type="line"/>
      <point x="41" y="653" type="line"/>
      <point x="132" y="653" type="line"/>
      <point x="132" y="70" type="line"/>
      <point x="41" y="70" type="line"/>
    </contour>
  </outline>
</glyph>
<glyph name="Edieresis" format="1">
  <advance width="655"/>
  <unicode hex="00CB"/>
  <outline>
    <contour>
      <point x="400" y="801" type="curve"/>
      <point x="434" y="801"/>
      <point x="458" y="815"/>
      <point x="458" y="847" type="curve"/>
      <point x="458" y="878"/>
      <point x="434" y="893"/>
      <point x="401" y="893" type="curve"/>
      <point x="368" y="893"/>
      <point x="346" y="876"/>
      <point x="346" y="847" type="curve"/>
      <point x="346" y="816"/>
      <point x="367" y="801"/>
    </contour>
    <contour>
      <point x="238" y="801" type="curve"/>
      <point x="271" y="801"/>
      <point x="295" y="815"/>
      <point x="295" y="847" type="curve"/>
      <point x="295" y="878"/>
      <point x="271" y="893"/>
      <point x="238" y="893" type="curve"/>
      <point x="205" y="893"/>
      <point x="183" y="876"/>
      <point x="183" y="847" type="curve"/>
      <point x="183" y="816"/>
      <point x="205" y="801"/>
    </contour>
    <contour>
      <point x="41" y="0" type="line"/>
      <point x="607" y="0" type="line"/>
      <point x="607" y="150" type="line"/>
      <point x="535" y="150" type="line"/>
      <point x="535" y="70" type="line"/>
      <point x="225" y="70" type="line"/>
      <point x="225" y="339" type="line"/>
      <point x="510" y="339" type="line"/>
      <point x="510" y="408" type="line"/>
      <point x="225" y="408" type="line"/>
      <point x="225" y="653" type="line"/>
      <point x="501" y="653" type="line"/>
      <point x="501" y="573" type="line"/>
      <point x="573" y="573" type="line"/>
      <point x="573" y="722" type="line"/>
      <point x="41" y="722" type="line"/>
      <point x="41" y="653" type="line"/>
      <point x="132" y="653" type="line"/>
      <point x="132" y="70" type="line"/>
      <point x="41" y="70" type="line"/>
    </contour>
  </outline>
</glyph>
<glyph name="Igrave" format="1">
  <advance width="412"/>
  <unicode hex="00CC"/>
  <outline>
    <contour>
      <point x="279" y="802" type="line"/>
      <point x="172" y="968" type="line"/>
      <point x="52" y="968" type="line"/>
      <point x="186" y="802" type="line"/>
    </contour>
    <contour>
      <point x="95" y="0" type="line"/>
      <point x="371" y="0" type="line"/>
      <point x="371" y="70" type="line"/>
      <point x="278" y="70" type="line"/>
      <point x="278" y="653" type="line"/>
      <point x="371" y="653" type="line"/>
      <point x="371" y="722" type="line"/>
      <point x="95" y="722" type="line"/>
      <point x="95" y="653" type="line"/>
      <point x="186" y="653" type="line"/>
      <point x="186" y="70" type="line"/>
      <point x="95" y="70" type="line"/>
    </contour>
  </outline>
</glyph>
<glyph name="Iacute" format="1">
  <advance width="409"/>
  <unicode hex="00CD"/>
  <outline>
    <contour>
      <point x="225" y="804" type="line"/>
      <point x="358" y="970" type="line"/>
      <point x="238" y="970" type="line"/>
      <point x="133" y="804" type="line"/>
    </contour>
    <contour>
      <point x="41" y="0" type="line"/>
      <point x="318" y="0" type="line"/>
      <point x="318" y="70" type="line"/>
      <point x="225" y="70" type="line"/>
      <point x="225" y="653" type="line"/>
      <point x="318" y="653" type="line"/>
      <point x="318" y="722" type="line"/>
      <point x="41" y="722" type="line"/>
      <point x="41" y="653" type="line"/>
      <point x="132" y="653" type="line"/>
      <point x="132" y="70" type="line"/>
      <point x="41" y="70" type="line"/>
    </contour>
  </outline>
</glyph>
<glyph name="Icircumflex" format="1">
  <advance width="457"/>
  <unicode hex="00CE"/>
  <outline>
    <contour>
      <point x="317" y="801" type="line"/>
      <point x="411" y="801" type="line"/>
      <point x="304" y="967" type="line"/>
      <point x="154" y="967" type="line"/>
      <point x="49" y="801" type="line"/>
      <point x="141" y="801" type="line"/>
      <point x="229" y="911" type="line"/>
    </contour>
    <contour>
      <point x="91" y="0" type="line"/>
      <point x="368" y="0" type="line"/>
      <point x="368" y="70" type="line"/>
      <point x="275" y="70" type="line"/>
      <point x="275" y="653" type="line"/>
      <point x="368" y="653" type="line"/>
      <point x="368" y="722" type="line"/>
      <point x="91" y="722" type="line"/>
      <point x="91" y="653" type="line"/>
      <point x="182" y="653" type="line"/>
      <point x="182" y="70" type="line"/>
      <point x="91" y="70" type="line"/>
    </contour>
  </outline>
</glyph>
<glyph name="Idieresis" format="1">
  <advance width="401"/>
  <unicode hex="00CF"/>
  <outline>
    <contour>
      <point x="281" y="794" type="curve"/>
      <point x="314" y="794"/>
      <point x="338" y="808"/>
      <point x="338" y="840" type="curve"/>
      <point x="338" y="872"/>
      <point x="314" y="887"/>
      <point x="281" y="887" type="curve"/>
      <point x="248" y="887"/>
      <point x="226" y="870"/>
      <point x="226" y="840" type="curve"/>
      <point x="226" y="810"/>
      <point x="248" y="794"/>
    </contour>
    <contour>
      <point x="118" y="794" type="curve"/>
      <point x="152" y="794"/>
      <point x="176" y="808"/>
      <point x="176" y="840" type="curve"/>
      <point x="176" y="872"/>
      <point x="152" y="887"/>
      <point x="119" y="887" type="curve"/>
      <point x="86" y="887"/>
      <point x="64" y="870"/>
      <point x="64" y="840" type="curve"/>
      <point x="64" y="810"/>
      <point x="85" y="794"/>
    </contour>
    <contour>
      <point x="62" y="0" type="line"/>
      <point x="339" y="0" type="line"/>
      <point x="339" y="70" type="line"/>
      <point x="246" y="70" type="line"/>
      <point x="246" y="653" type="line"/>
      <point x="339" y="653" type="line"/>
      <point x="339" y="722" type="line"/>
      <point x="62" y="722" type="line"/>
      <point x="62" y="653" type="line"/>
      <point x="153" y="653" type="line"/>
      <point x="153" y="70" type="line"/>
      <point x="62" y="70" type="line"/>
    </contour>
  </outline>
</glyph>
<glyph name="Ntilde" format="1">
  <advance width="881"/>
  <unicode hex="00D1"/>
  <outline>
    <contour>
      <point x="537" y="804" type="curve"/>
      <point x="614" y="804"/>
      <point x="644" y="858"/>
      <point x="666" y="934" type="curve"/>
      <point x="631" y="948"/>
      <point x="629" y="948"/>
      <point x="629" y="948" type="curve" smooth="yes"/>
      <point x="593" y="963" type="line"/>
      <point x="583" y="920"/>
      <point x="570" y="875"/>
      <point x="537" y="875" type="curve"/>
      <point x="504" y="875"/>
      <point x="487" y="891"/>
      <point x="465" y="916" type="curve"/>
      <point x="432" y="948"/>
      <point x="406" y="968"/>
      <point x="360" y="968" type="curve"/>
      <point x="286" y="968"/>
      <point x="254" y="916"/>
      <point x="230" y="838" type="curve"/>
      <point x="265" y="823" type="line" smooth="yes"/>
      <point x="266" y="823"/>
      <point x="266" y="823"/>
      <point x="300" y="807" type="curve"/>
      <point x="313" y="856"/>
      <point x="326" y="895"/>
      <point x="362" y="895" type="curve"/>
      <point x="393" y="895"/>
      <point x="407" y="877"/>
      <point x="428" y="855" type="curve"/>
      <point x="463" y="821"/>
      <point x="489" y="804"/>
    </contour>
    <contour>
      <point x="41" y="0" type="line"/>
      <point x="317" y="0" type="line"/>
      <point x="317" y="70" type="line"/>
      <point x="225" y="70" type="line"/>
      <point x="225" y="586" type="line"/>
      <point x="368" y="391"/>
      <point x="511" y="195"/>
      <point x="655" y="0" type="curve"/>
      <point x="770" y="0" type="line"/>
      <point x="770" y="653" type="line"/>
      <point x="853" y="653" type="line"/>
      <point x="853" y="722" type="line"/>
      <point x="587" y="722" type="line"/>
      <point x="587" y="653" type="line"/>
      <point x="678" y="653" type="line"/>
      <point x="678" y="122" type="line"/>
      <point x="531" y="322"/>
      <point x="385" y="523"/>
      <point x="238" y="722" type="curve"/>
      <point x="42" y="722" type="line"/>
      <point x="42" y="653" type="line"/>
      <point x="133" y="653" type="line"/>
      <point x="133" y="70" type="line"/>
      <point x="41" y="70" type="line"/>
    </contour>
  </outline>
</glyph>
<glyph name="Ocircumflex" format="1">
  <advance width="778"/>
  <unicode hex="00D4"/>
  <outline>
    <contour>
      <point x="477" y="802" type="line"/>
      <point x="571" y="802" type="line"/>
      <point x="464" y="968" type="line"/>
      <point x="314" y="968" type="line"/>
      <point x="209" y="802" type="line"/>
      <point x="301" y="802" type="line"/>
      <point x="389" y="912" type="line"/>
    </contour>
    <contour>
      <point x="58" y="360" type="curve" name="FullCurve"/>
      <point x="58" y="140"/>
      <point x="171" y="-5"/>
      <point x="387" y="-5" type="curve" name="FullCurve"/>
      <point x="605" y="-5"/>
      <point x="719" y="141"/>
      <point x="719" y="363" type="curve" name="FullCurve"/>
      <point x="719" y="582"/>
      <point x="607" y="727"/>
      <point x="392" y="727" type="curve" name="FullCurve"/>
      <point x="173" y="727"/>
      <point x="58" y="582"/>
    </contour>
    <contour>
      <point x="151" y="360" type="curve" name="FullCurve"/>
      <point x="151" y="531"/>
      <point x="221" y="654"/>
      <point x="384" y="654" type="curve" name="FullCurve"/>
      <point x="550" y="654"/>
      <point x="627" y="535"/>
      <point x="627" y="363" type="curve" name="FullCurve"/>
      <point x="627" y="194"/>
      <point x="555" y="69"/>
      <point x="392" y="69" type="curve" name="FullCurve"/>
      <point x="225" y="69"/>
      <point x="151" y="189"/>
    </contour>
  </outline>
</glyph>
<glyph name="Otilde" format="1">
  <advance width="778"/>
  <unicode hex="00D5"/>
  <outline>
    <contour>
      <point x="480" y="798" type="curve"/>
      <point x="556" y="798"/>
      <point x="586" y="852"/>
      <point x="608" y="928" type="curve"/>
      <point x="573" y="942"/>
      <point x="572" y="942"/>
      <point x="572" y="942" type="curve" smooth="yes"/>
      <point x="535" y="957" type="line"/>
      <point x="525" y="914"/>
      <point x="512" y="869"/>
      <point x="480" y="869" type="curve"/>
      <point x="447" y="869"/>
      <point x="430" y="885"/>
      <point x="407" y="910" type="curve"/>
      <point x="375" y="942"/>
      <point x="349" y="962"/>
      <point x="303" y="962" type="curve"/>
      <point x="229" y="962"/>
      <point x="197" y="910"/>
      <point x="173" y="832" type="curve"/>
      <point x="208" y="817" type="line" smooth="yes"/>
      <point x="208" y="817"/>
      <point x="209" y="817"/>
      <point x="243" y="801" type="curve"/>
      <point x="256" y="850"/>
      <point x="268" y="889"/>
      <point x="304" y="889" type="curve"/>
      <point x="336" y="889"/>
      <point x="350" y="871"/>
      <point x="370" y="849" type="curve"/>
      <point x="406" y="815"/>
      <point x="432" y="798"/>
    </contour>
    <contour>
      <point x="58" y="360" type="curve" name="FullCurve"/>
      <point x="58" y="140"/>
      <point x="171" y="-5"/>
      <point x="387" y="-5" type="curve" name="FullCurve"/>
      <point x="605" y="-5"/>
      <point x="719" y="141"/>
      <point x="719" y="363" type="curve" name="FullCurve"/>
      <point x="719" y="582"/>
      <point x="607" y="727"/>
      <point x="392" y="727" type="curve" name="FullCurve"/>
      <point x="173" y="727"/>
      <point x="58" y="582"/>
    </contour>
    <contour>
      <point x="151" y="360" type="curve" name="FullCurve"/>
      <point x="151" y="531"/>
      <point x="221" y="654"/>
      <point x="384" y="654" type="curve" name="FullCurve"/>
      <point x="550" y="654"/>
      <point x="627" y="535"/>
      <point x="627" y="363" type="curve" name="FullCurve"/>
      <point x="627" y="194"/>
      <point x="555" y="69"/>
      <point x="392" y="69" type="curve" name="FullCurve"/>
      <point x="225" y="69"/>
      <point x="151" y="189"/>
    </contour>
  </outline>
</glyph>
<glyph name="Odieresis" format="1">
  <advance width="778"/>
  <unicode hex="00D6"/>
  <outline>
    <contour>
      <point x="470" y="794" type="curve"/>
      <point x="503" y="794"/>
      <point x="527" y="808"/>
      <point x="527" y="840" type="curve"/>
      <point x="527" y="872"/>
      <point x="503" y="887"/>
      <point x="470" y="887" type="curve"/>
      <point x="437" y="887"/>
      <point x="415" y="870"/>
      <point x="415" y="840" type="curve"/>
      <point x="415" y="810"/>
      <point x="437" y="794"/>
    </contour>
    <contour>
      <point x="307" y="794" type="curve"/>
      <point x="341" y="794"/>
      <point x="365" y="808"/>
      <point x="365" y="840" type="curve"/>
      <point x="365" y="872"/>
      <point x="341" y="887"/>
      <point x="308" y="887" type="curve"/>
      <point x="275" y="887"/>
      <point x="253" y="870"/>
      <point x="253" y="840" type="curve"/>
      <point x="253" y="810"/>
      <point x="274" y="794"/>
    </contour>
    <contour>
      <point x="58" y="360" type="curve" name="FullCurve"/>
      <point x="58" y="140"/>
      <point x="171" y="-5"/>
      <point x="387" y="-5" type="curve" name="FullCurve"/>
      <point x="605" y="-5"/>
      <point x="719" y="141"/>
      <point x="719" y="363" type="curve" name="FullCurve"/>
      <point x="719" y="582"/>
      <point x="607" y="727"/>
      <point x="392" y="727" type="curve" name="FullCurve"/>
      <point x="173" y="727"/>
      <point x="58" y="582"/>
    </contour>
    <contour>
      <point x="151" y="360" type="curve" name="FullCurve"/>
      <point x="151" y="531"/>
      <point x="221" y="654"/>
      <point x="384" y="654" type="curve" name="FullCurve"/>
      <point x="550" y="654"/>
      <point x="627" y="535"/>
      <point x="627" y="363" type="curve" name="FullCurve"/>
      <point x="627" y="194"/>
      <point x="555" y="69"/>
      <point x="392" y="69" type="curve" name="FullCurve"/>
      <point x="225" y="69"/>
      <point x="151" y="189"/>
    </contour>
  </outline>
</glyph>
<glyph name="multiply" format="1">
  <advance width="586"/>
  <unicode hex="00D7"/>
  <outline>
    <contour>
      <point x="465" y="85" type="line"/>
      <point x="519" y="139" type="line"/>
      <point x="347" y="312" type="line"/>
      <point x="519" y="484" type="line"/>
      <point x="465" y="538" type="line"/>
      <point x="293" y="366" type="line"/>
      <point x="120" y="538" type="line"/>
      <point x="66" y="484" type="line"/>
      <point x="239" y="312" type="line"/>
      <point x="66" y="139" type="line"/>
      <point x="120" y="85" type="line"/>
      <point x="293" y="258" type="line"/>
    </contour>
  </outline>
</glyph>
<glyph name="Oslash" format="1">
  <advance width="778"/>
  <unicode hex="00D8"/>
  <outline>
    <contour>
      <point x="392" y="69" type="curve" name="FullCurve"/>
      <point x="348" y="69"/>
      <point x="311" y="77"/>
      <point x="280" y="92" type="curve"/>
      <point x="553" y="590" type="line"/>
      <point x="603" y="538"/>
      <point x="627" y="459"/>
      <point x="627" y="363" type="curve" name="FullCurve"/>
      <point x="627" y="194"/>
      <point x="555" y="69"/>
    </contour>
    <contour>
      <point x="58" y="360" type="curve" name="FullCurve"/>
      <point x="58" y="226"/>
      <point x="100" y="120"/>
      <point x="182" y="57" type="curve"/>
      <point x="135" y="-29" type="line"/>
      <point x="192" y="-68" type="line"/>
      <point x="242" y="22" type="line"/>
      <point x="283" y="4"/>
      <point x="332" y="-5"/>
      <point x="387" y="-5" type="curve" name="FullCurve"/>
      <point x="605" y="-5"/>
      <point x="719" y="141"/>
      <point x="719" y="363" type="curve" name="FullCurve"/>
      <point x="719" y="497"/>
      <point x="677" y="603"/>
      <point x="595" y="666" type="curve"/>
      <point x="642" y="751" type="line"/>
      <point x="578" y="787" type="line"/>
      <point x="532" y="702" type="line"/>
      <point x="491" y="718"/>
      <point x="445" y="727"/>
      <point x="392" y="727" type="curve" name="FullCurve"/>
      <point x="173" y="727"/>
      <point x="58" y="582"/>
    </contour>
    <contour>
      <point x="151" y="360" type="curve" name="FullCurve"/>
      <point x="151" y="531"/>
      <point x="221" y="654"/>
      <point x="384" y="654" type="curve" name="FullCurve"/>
      <point x="426" y="654"/>
      <point x="463" y="646"/>
      <point x="494" y="632" type="curve"/>
      <point x="223" y="134" type="line"/>
      <point x="174" y="185"/>
      <point x="151" y="265"/>
    </contour>
  </outline>
</glyph>
<glyph name="Udieresis" format="1">
  <advance width="833"/>
  <unicode hex="00DC"/>
  <outline>
    <contour>
      <point x="496" y="794" type="curve"/>
      <point x="530" y="794"/>
      <point x="554" y="808"/>
      <point x="554" y="840" type="curve"/>
      <point x="554" y="872"/>
      <point x="530" y="887"/>
      <point x="497" y="887" type="curve"/>
      <point x="464" y="887"/>
      <point x="442" y="870"/>
      <point x="442" y="840" type="curve"/>
      <point x="442" y="810"/>
      <point x="463" y="794"/>
    </contour>
    <contour>
      <point x="334" y="794" type="curve"/>
      <point x="367" y="794"/>
      <point x="391" y="808"/>
      <point x="391" y="840" type="curve"/>
      <point x="391" y="872"/>
      <point x="367" y="887"/>
      <point x="334" y="887" type="curve"/>
      <point x="301" y="887"/>
      <point x="279" y="870"/>
      <point x="279" y="840" type="curve"/>
      <point x="279" y="810"/>
      <point x="301" y="794"/>
    </contour>
    <contour>
      <point x="709" y="280" type="curve"/>
      <point x="709" y="653" type="line"/>
      <point x="804" y="653" type="line"/>
      <point x="804" y="722" type="line"/>
      <point x="529" y="722" type="line"/>
      <point x="529" y="653" type="line"/>
      <point x="624" y="653" type="line"/>
      <point x="624" y="271" type="line"/>
      <point x="624" y="139"/>
      <point x="555" y="72"/>
      <point x="422" y="72" type="curve"/>
      <point x="276" y="72"/>
      <point x="206" y="144"/>
      <point x="206" y="290" type="curve"/>
      <point x="206" y="653" type="line"/>
      <point x="304" y="653" type="line"/>
      <point x="304" y="722" type="line"/>
      <point x="29" y="722" type="line"/>
      <point x="29" y="688" type="line" smooth="yes"/>
      <point x="28" y="653" type="line"/>
      <point x="122" y="653" type="line"/>
      <point x="122" y="277" type="line"/>
      <point x="122" y="86"/>
      <point x="219" y="-5"/>
      <point x="414" y="-5" type="curve"/>
      <point x="609" y="-5"/>
      <point x="709" y="88"/>
    </contour>
  </outline>
</glyph>
<glyph name="Yacute" format="1">
  <advance width="679"/>
  <unicode hex="00DD"/>
  <outline>
    <contour>
      <point x="373" y="803" type="line"/>
      <point x="507" y="969" type="line"/>
      <point x="387" y="969" type="line"/>
      <point x="282" y="803" type="line"/>
    </contour>
    <contour>
      <point x="186" y="0" type="line"/>
      <point x="462" y="0" type="line"/>
      <point x="462" y="70" type="line"/>
      <point x="374" y="70" type="line"/>
      <point x="374" y="342" type="line"/>
      <point x="439" y="446"/>
      <point x="505" y="549"/>
      <point x="571" y="653" type="curve"/>
      <point x="656" y="653" type="line"/>
      <point x="656" y="722" type="line"/>
      <point x="390" y="722" type="line"/>
      <point x="390" y="653" type="line"/>
      <point x="480" y="653" type="line"/>
      <point x="428" y="573"/>
      <point x="376" y="492"/>
      <point x="325" y="412" type="curve"/>
      <point x="276" y="492"/>
      <point x="227" y="573"/>
      <point x="178" y="653" type="curve"/>
      <point x="269" y="653" type="line"/>
      <point x="269" y="722" type="line"/>
      <point x="3" y="722" type="line"/>
      <point x="3" y="653" type="line"/>
      <point x="87" y="653" type="line"/>
      <point x="149" y="550"/>
      <point x="211" y="446"/>
      <point x="273" y="344" type="curve"/>
      <point x="273" y="70" type="line"/>
      <point x="186" y="70" type="line"/>
    </contour>
  </outline>
</glyph>
<glyph name="Thorn" format="1">
  <advance width="622"/>
  <unicode hex="00DE"/>
  <outline>
    <contour>
      <point x="335" y="236" type="curve"/>
      <point x="290" y="236"/>
      <point x="257" y="245"/>
      <point x="220" y="261" type="curve"/>
      <point x="220" y="529" type="line"/>
      <point x="299" y="529" type="line"/>
      <point x="408" y="529"/>
      <point x="481" y="474"/>
      <point x="481" y="376" type="curve"/>
      <point x="481" y="290"/>
      <point x="424" y="236"/>
    </contour>
    <contour>
      <point x="42" y="0" type="line"/>
      <point x="308" y="0" type="line"/>
      <point x="308" y="70" type="line"/>
      <point x="220" y="70" type="line"/>
      <point x="220" y="187" type="line"/>
      <point x="257" y="175"/>
      <point x="295" y="167"/>
      <point x="338" y="167" type="curve"/>
      <point x="478" y="170"/>
      <point x="573" y="240"/>
      <point x="573" y="379" type="curve"/>
      <point x="573" y="520"/>
      <point x="465" y="598"/>
      <point x="311" y="598" type="curve"/>
      <point x="220" y="598" type="line"/>
      <point x="220" y="653" type="line"/>
      <point x="308" y="653" type="line"/>
      <point x="308" y="722" type="line"/>
      <point x="42" y="722" type="line"/>
      <point x="42" y="653" type="line"/>
      <point x="128" y="653" type="line"/>
      <point x="128" y="70" type="line"/>
      <point x="42" y="70" type="line"/>
    </contour>
  </outline>
</glyph>
<glyph name="germandbls" format="1">
  <advance width="622"/>
  <unicode hex="00DF"/>
  <outline>
    <contour>
      <point x="102" y="602" type="curve"/>
      <point x="102" y="70" type="line"/>
      <point x="16" y="70" type="line"/>
      <point x="16" y="0" type="line"/>
      <point x="272" y="0" type="line"/>
      <point x="272" y="70" type="line"/>
      <point x="194" y="70" type="line"/>
      <point x="194" y="602" type="line"/>
      <point x="194" y="680"/>
      <point x="238" y="730"/>
      <point x="314" y="730" type="curve"/>
      <point x="397" y="730"/>
      <point x="454" y="691"/>
      <point x="454" y="608" type="curve"/>
      <point x="454" y="523"/>
      <point x="390" y="485"/>
      <point x="303" y="485" type="curve"/>
      <point x="303" y="426" type="line"/>
      <point x="400" y="426"/>
      <point x="487" y="381"/>
      <point x="487" y="277" type="curve"/>
      <point x="487" y="204"/>
      <point x="441" y="168"/>
      <point x="381" y="150" type="curve"/>
      <point x="399" y="80" type="line"/>
      <point x="510" y="104"/>
      <point x="575" y="165"/>
      <point x="575" y="281" type="curve"/>
      <point x="575" y="370"/>
      <point x="531" y="429"/>
      <point x="457" y="459" type="curve"/>
      <point x="510" y="489"/>
      <point x="542" y="538"/>
      <point x="542" y="612" type="curve"/>
      <point x="542" y="737"/>
      <point x="453" y="800"/>
      <point x="322" y="800" type="curve"/>
      <point x="189" y="800"/>
      <point x="102" y="730"/>
    </contour>
  </outline>
</glyph>
<glyph name="atilde" format="1">
  <advance width="591"/>
  <unicode hex="00E3"/>
  <outline>
    <contour>
      <point x="376" y="639" type="curve"/>
      <point x="452" y="639"/>
      <point x="482" y="693"/>
      <point x="504" y="769" type="curve"/>
      <point x="469" y="783"/>
      <point x="468" y="783"/>
      <point x="468" y="783" type="curve" smooth="yes"/>
      <point x="431" y="798" type="line"/>
      <point x="421" y="755"/>
      <point x="408" y="710"/>
      <point x="376" y="710" type="curve"/>
      <point x="343" y="710"/>
      <point x="326" y="726"/>
      <point x="303" y="751" type="curve"/>
      <point x="271" y="783"/>
      <point x="245" y="803"/>
      <point x="199" y="803" type="curve"/>
      <point x="125" y="803"/>
      <point x="93" y="751"/>
      <point x="69" y="673" type="curve"/>
      <point x="104" y="658" type="line" smooth="yes"/>
      <point x="104" y="658"/>
      <point x="105" y="658"/>
      <point x="139" y="642" type="curve"/>
      <point x="152" y="691"/>
      <point x="164" y="730"/>
      <point x="200" y="730" type="curve"/>
      <point x="232" y="730"/>
      <point x="246" y="712"/>
      <point x="266" y="690" type="curve"/>
      <point x="302" y="656"/>
      <point x="328" y="639"/>
    </contour>
    <contour>
      <point x="242" y="64" type="curve"/>
      <point x="179" y="64"/>
      <point x="147" y="95"/>
      <point x="147" y="152" type="curve"/>
      <point x="147" y="209"/>
      <point x="187" y="235"/>
      <point x="241" y="244" type="curve"/>
      <point x="306" y="252"/>
      <point x="347" y="257"/>
      <point x="402" y="265" type="curve"/>
      <point x="402" y="152" type="line"/>
      <point x="366" y="102"/>
      <point x="309" y="64"/>
    </contour>
    <contour>
      <point x="402" y="0" type="line"/>
      <point x="578" y="0" type="line"/>
      <point x="578" y="70" type="line"/>
      <point x="494" y="70" type="line"/>
      <point x="494" y="376" type="line"/>
      <point x="494" y="497"/>
      <point x="411" y="538"/>
      <point x="288" y="538" type="curve"/>
      <point x="196" y="538"/>
      <point x="130" y="505"/>
      <point x="78" y="463" type="curve"/>
      <point x="78" y="345" type="line"/>
      <point x="150" y="345" type="line"/>
      <point x="150" y="425" type="line"/>
      <point x="182" y="448"/>
      <point x="222" y="469"/>
      <point x="276" y="469" type="curve"/>
      <point x="352" y="469"/>
      <point x="402" y="442"/>
      <point x="402" y="359" type="curve"/>
      <point x="402" y="326" type="line"/>
      <point x="348" y="319"/>
      <point x="308" y="315"/>
      <point x="245" y="307" type="curve"/>
      <point x="135" y="293"/>
      <point x="56" y="259"/>
      <point x="56" y="151" type="curve"/>
      <point x="56" y="47"/>
      <point x="119" y="-5"/>
      <point x="228" y="-5" type="curve"/>
      <point x="303" y="-5"/>
      <point x="358" y="22"/>
      <point x="402" y="65" type="curve"/>
    </contour>
  </outline>
</glyph>
<glyph name="adieresis" format="1">
  <advance width="591"/>
  <unicode hex="00E4"/>
  <outline>
    <contour>
      <point x="366" y="639" type="curve"/>
      <point x="399" y="639"/>
      <point x="423" y="653"/>
      <point x="423" y="685" type="curve"/>
      <point x="423" y="717"/>
      <point x="399" y="732"/>
      <point x="366" y="732" type="curve"/>
      <point x="333" y="732"/>
      <point x="311" y="715"/>
      <point x="311" y="685" type="curve"/>
      <point x="311" y="655"/>
      <point x="333" y="639"/>
    </contour>
    <contour>
      <point x="203" y="639" type="curve"/>
      <point x="237" y="639"/>
      <point x="261" y="653"/>
      <point x="261" y="685" type="curve"/>
      <point x="261" y="717"/>
      <point x="237" y="732"/>
      <point x="204" y="732" type="curve"/>
      <point x="171" y="732"/>
      <point x="149" y="715"/>
      <point x="149" y="685" type="curve"/>
      <point x="149" y="655"/>
      <point x="170" y="639"/>
    </contour>
    <contour>
      <point x="242" y="64" type="curve"/>
      <point x="179" y="64"/>
      <point x="147" y="95"/>
      <point x="147" y="152" type="curve"/>
      <point x="147" y="209"/>
      <point x="187" y="235"/>
      <point x="241" y="244" type="curve"/>
      <point x="306" y="252"/>
      <point x="347" y="257"/>
      <point x="402" y="265" type="curve"/>
      <point x="402" y="152" type="line"/>
      <point x="366" y="102"/>
      <point x="309" y="64"/>
    </contour>
    <contour>
      <point x="402" y="0" type="line"/>
      <point x="578" y="0" type="line"/>
      <point x="578" y="70" type="line"/>
      <point x="494" y="70" type="line"/>
      <point x="494" y="376" type="line"/>
      <point x="494" y="497"/>
      <point x="411" y="538"/>
      <point x="288" y="538" type="curve"/>
      <point x="196" y="538"/>
      <point x="130" y="505"/>
      <point x="78" y="463" type="curve"/>
      <point x="78" y="345" type="line"/>
      <point x="150" y="345" type="line"/>
      <point x="150" y="425" type="line"/>
      <point x="182" y="448"/>
      <point x="222" y="469"/>
      <point x="276" y="469" type="curve"/>
      <point x="352" y="469"/>
      <point x="402" y="442"/>
      <point x="402" y="359" type="curve"/>
      <point x="402" y="326" type="line"/>
      <point x="348" y="319"/>
      <point x="308" y="315"/>
      <point x="245" y="307" type="curve"/>
      <point x="135" y="293"/>
      <point x="56" y="259"/>
      <point x="56" y="151" type="curve"/>
      <point x="56" y="47"/>
      <point x="119" y="-5"/>
      <point x="228" y="-5" type="curve"/>
      <point x="303" y="-5"/>
      <point x="358" y="22"/>
      <point x="402" y="65" type="curve"/>
    </contour>
  </outline>
</glyph>
<glyph name="aring" format="1">
  <advance width="590"/>
  <unicode hex="00E5"/>
  <outline>
    <contour>
      <point x="140" y="772" type="curve"/>
      <point x="140" y="687"/>
      <point x="198" y="639"/>
      <point x="286" y="639" type="curve"/>
      <point x="376" y="639"/>
      <point x="435" y="686"/>
      <point x="435" y="772" type="curve"/>
      <point x="435" y="859"/>
      <point x="375" y="906"/>
      <point x="284" y="906" type="curve"/>
      <point x="196" y="906"/>
      <point x="140" y="858"/>
    </contour>
    <contour>
      <point x="242" y="64" type="curve"/>
      <point x="179" y="64"/>
      <point x="147" y="95"/>
      <point x="147" y="152" type="curve"/>
      <point x="147" y="209"/>
      <point x="187" y="235"/>
      <point x="241" y="244" type="curve"/>
      <point x="306" y="252"/>
      <point x="347" y="257"/>
      <point x="402" y="265" type="curve"/>
      <point x="402" y="152" type="line"/>
      <point x="366" y="102"/>
      <point x="309" y="64"/>
    </contour>
    <contour>
      <point x="402" y="0" type="line"/>
      <point x="578" y="0" type="line"/>
      <point x="578" y="70" type="line"/>
      <point x="494" y="70" type="line"/>
      <point x="494" y="376" type="line"/>
      <point x="494" y="497"/>
      <point x="411" y="538"/>
      <point x="288" y="538" type="curve"/>
      <point x="196" y="538"/>
      <point x="130" y="505"/>
      <point x="78" y="463" type="curve"/>
      <point x="78" y="345" type="line"/>
      <point x="150" y="345" type="line"/>
      <point x="150" y="425" type="line"/>
      <point x="182" y="448"/>
      <point x="222" y="469"/>
      <point x="276" y="469" type="curve"/>
      <point x="352" y="469"/>
      <point x="402" y="442"/>
      <point x="402" y="359" type="curve"/>
      <point x="402" y="326" type="line"/>
      <point x="348" y="319"/>
      <point x="308" y="315"/>
      <point x="245" y="307" type="curve"/>
      <point x="135" y="293"/>
      <point x="56" y="259"/>
      <point x="56" y="151" type="curve"/>
      <point x="56" y="47"/>
      <point x="119" y="-5"/>
      <point x="228" y="-5" type="curve"/>
      <point x="303" y="-5"/>
      <point x="358" y="22"/>
      <point x="402" y="65" type="curve"/>
    </contour>
    <contour>
      <point x="218" y="772" type="curve"/>
      <point x="218" y="819"/>
      <point x="242" y="846"/>
      <point x="284" y="846" type="curve"/>
      <point x="329" y="846"/>
      <point x="356" y="822"/>
      <point x="356" y="772" type="curve"/>
      <point x="356" y="725"/>
      <point x="330" y="698"/>
      <point x="286" y="698" type="curve"/>
      <point x="243" y="698"/>
      <point x="218" y="725"/>
    </contour>
  </outline>
</glyph>
<glyph name="ae" format="1">
  <advance width="938"/>
  <unicode hex="00E6"/>
  <outline>
    <contour>
      <point x="646" y="468" type="curve"/>
      <point x="742" y="468"/>
      <point x="789" y="411"/>
      <point x="792" y="312" type="curve"/>
      <point x="498" y="312" type="line"/>
      <point x="498" y="327" type="line"/>
      <point x="510" y="414"/>
      <point x="556" y="468"/>
    </contour>
    <contour>
      <point x="247" y="63" type="curve"/>
      <point x="180" y="63"/>
      <point x="147" y="95"/>
      <point x="147" y="154" type="curve"/>
      <point x="147" y="214"/>
      <point x="190" y="233"/>
      <point x="247" y="241" type="curve"/>
      <point x="298" y="247"/>
      <point x="332" y="248"/>
      <point x="372" y="248" type="curve" smooth="yes"/>
      <point x="407" y="248" type="line"/>
      <point x="409" y="220"/>
      <point x="413" y="194"/>
      <point x="420" y="170" type="curve"/>
      <point x="370" y="109"/>
      <point x="323" y="63"/>
    </contour>
    <contour>
      <point x="861" y="70" type="curve"/>
      <point x="839" y="98" type="line" smooth="yes"/>
      <point x="817" y="125" type="line"/>
      <point x="773" y="88"/>
      <point x="725" y="65"/>
      <point x="669" y="65" type="curve"/>
      <point x="560" y="65"/>
      <point x="505" y="135"/>
      <point x="496" y="248" type="curve"/>
      <point x="880" y="248" type="line"/>
      <point x="880" y="289" type="line"/>
      <point x="880" y="449"/>
      <point x="801" y="538"/>
      <point x="651" y="538" type="curve"/>
      <point x="572" y="538"/>
      <point x="511" y="516"/>
      <point x="471" y="474" type="curve"/>
      <point x="437" y="520"/>
      <point x="373" y="538"/>
      <point x="293" y="538" type="curve"/>
      <point x="200" y="538"/>
      <point x="134" y="505"/>
      <point x="82" y="463" type="curve"/>
      <point x="82" y="355" type="line"/>
      <point x="154" y="355" type="line"/>
      <point x="154" y="425" type="line"/>
      <point x="186" y="449"/>
      <point x="225" y="469"/>
      <point x="280" y="469" type="curve"/>
      <point x="356" y="469"/>
      <point x="406" y="440"/>
      <point x="406" y="359" type="curve"/>
      <point x="406" y="312" type="line"/>
      <point x="373" y="312" type="line" smooth="yes"/>
      <point x="332" y="312"/>
      <point x="295" y="311"/>
      <point x="246" y="305" type="curve"/>
      <point x="133" y="291"/>
      <point x="56" y="262"/>
      <point x="56" y="153" type="curve"/>
      <point x="56" y="47"/>
      <point x="120" y="-5"/>
      <point x="233" y="-5" type="curve"/>
      <point x="332" y="-5"/>
      <point x="390" y="33"/>
      <point x="450" y="100" type="curve"/>
      <point x="493" y="32"/>
      <point x="568" y="-5"/>
      <point x="672" y="-5" type="curve"/>
      <point x="753" y="-5"/>
      <point x="805" y="21"/>
    </contour>
  </outline>
</glyph>
<glyph name="ccedilla" format="1">
  <advance width="563"/>
  <unicode hex="00E7"/>
  <outline>
    <contour>
      <point x="257" y="-243" type="curve"/>
      <point x="331" y="-243"/>
      <point x="384" y="-214"/>
      <point x="384" y="-147" type="curve"/>
      <point x="384" y="-92"/>
      <point x="352" y="-58"/>
      <point x="301" y="-51" type="curve"/>
      <point x="314" y="-33"/>
      <point x="326" y="-16"/>
      <point x="332" y="-5" type="curve"/>
      <point x="404" y="-2"/>
      <point x="469" y="29"/>
      <point x="510" y="78" type="curve"/>
      <point x="484" y="106" type="line" smooth="yes"/>
      <point x="458" y="133" type="line"/>
      <point x="425" y="97"/>
      <point x="378" y="67"/>
      <point x="326" y="67" type="curve"/>
      <point x="207" y="67"/>
      <point x="148" y="142"/>
      <point x="148" y="267" type="curve"/>
      <point x="148" y="392"/>
      <point x="207" y="466"/>
      <point x="323" y="466" type="curve"/>
      <point x="363" y="466"/>
      <point x="402" y="454"/>
      <point x="435" y="435" type="curve"/>
      <point x="435" y="334" type="line"/>
      <point x="508" y="334" type="line"/>
      <point x="508" y="471" type="line"/>
      <point x="457" y="509"/>
      <point x="392" y="538"/>
      <point x="326" y="538" type="curve"/>
      <point x="152" y="538"/>
      <point x="56" y="444"/>
      <point x="56" y="267" type="curve"/>
      <point x="56" y="123"/>
      <point x="118" y="33"/>
      <point x="235" y="4" type="curve"/>
      <point x="217" y="-23"/>
      <point x="196" y="-55"/>
      <point x="188" y="-69" type="curve"/>
      <point x="220" y="-97" type="line" smooth="yes"/>
      <point x="251" y="-125" type="line"/>
      <point x="257" y="-119"/>
      <point x="263" y="-116"/>
      <point x="272" y="-116" type="curve"/>
      <point x="289" y="-116"/>
      <point x="296" y="-130"/>
      <point x="296" y="-149" type="curve"/>
      <point x="296" y="-171"/>
      <point x="283" y="-184"/>
      <point x="261" y="-184" type="curve"/>
      <point x="238" y="-184"/>
      <point x="220" y="-178"/>
      <point x="193" y="-164" type="curve"/>
      <point x="167" y="-218" type="line"/>
      <point x="197" y="-234"/>
      <point x="222" y="-243"/>
    </contour>
  </outline>
</glyph>
<glyph name="eacute" format="1">
  <advance width="590"/>
  <unicode hex="00E9"/>
  <outline>
    <contour>
      <point x="345" y="641" type="line"/>
      <point x="479" y="807" type="line"/>
      <point x="359" y="807" type="line"/>
      <point x="254" y="641" type="line"/>
    </contour>
    <contour>
      <point x="299" y="468" type="curve"/>
      <point x="395" y="468"/>
      <point x="442" y="411"/>
      <point x="445" y="312" type="curve"/>
      <point x="149" y="312" type="line"/>
      <point x="157" y="408"/>
      <point x="204" y="468"/>
    </contour>
    <contour>
      <point x="514" y="70" type="curve"/>
      <point x="492" y="98" type="line" smooth="yes"/>
      <point x="470" y="125" type="line"/>
      <point x="426" y="88"/>
      <point x="378" y="65"/>
      <point x="322" y="65" type="curve"/>
      <point x="213" y="65"/>
      <point x="158" y="135"/>
      <point x="149" y="248" type="curve"/>
      <point x="533" y="248" type="line"/>
      <point x="533" y="289" type="line"/>
      <point x="533" y="449"/>
      <point x="454" y="538"/>
      <point x="304" y="538" type="curve"/>
      <point x="142" y="538"/>
      <point x="59" y="445"/>
      <point x="59" y="280" type="curve"/>
      <point x="59" y="98"/>
      <point x="150" y="-5"/>
      <point x="325" y="-5" type="curve"/>
      <point x="406" y="-5"/>
      <point x="458" y="21"/>
    </contour>
  </outline>
</glyph>
<glyph name="edieresis" format="1">
  <advance width="590"/>
  <unicode hex="00EB"/>
  <outline>
    <contour>
      <point x="380" y="639" type="curve"/>
      <point x="413" y="639"/>
      <point x="437" y="653"/>
      <point x="437" y="685" type="curve"/>
      <point x="437" y="716"/>
      <point x="413" y="731"/>
      <point x="380" y="731" type="curve"/>
      <point x="347" y="731"/>
      <point x="325" y="714"/>
      <point x="325" y="685" type="curve"/>
      <point x="325" y="654"/>
      <point x="347" y="639"/>
    </contour>
    <contour>
      <point x="217" y="639" type="curve"/>
      <point x="251" y="639"/>
      <point x="275" y="653"/>
      <point x="275" y="685" type="curve"/>
      <point x="275" y="716"/>
      <point x="251" y="731"/>
      <point x="218" y="731" type="curve"/>
      <point x="185" y="731"/>
      <point x="163" y="714"/>
      <point x="163" y="685" type="curve"/>
      <point x="163" y="654"/>
      <point x="184" y="639"/>
    </contour>
    <contour>
      <point x="299" y="468" type="curve"/>
      <point x="395" y="468"/>
      <point x="442" y="411"/>
      <point x="445" y="312" type="curve"/>
      <point x="149" y="312" type="line"/>
      <point x="157" y="408"/>
      <point x="204" y="468"/>
    </contour>
    <contour>
      <point x="514" y="70" type="curve"/>
      <point x="492" y="98" type="line" smooth="yes"/>
      <point x="470" y="125" type="line"/>
      <point x="426" y="88"/>
      <point x="378" y="65"/>
      <point x="322" y="65" type="curve"/>
      <point x="213" y="65"/>
      <point x="158" y="135"/>
      <point x="149" y="248" type="curve"/>
      <point x="533" y="248" type="line"/>
      <point x="533" y="289" type="line"/>
      <point x="533" y="449"/>
      <point x="454" y="538"/>
      <point x="304" y="538" type="curve"/>
      <point x="142" y="538"/>
      <point x="59" y="445"/>
      <point x="59" y="280" type="curve"/>
      <point x="59" y="98"/>
      <point x="150" y="-5"/>
      <point x="325" y="-5" type="curve"/>
      <point x="406" y="-5"/>
      <point x="458" y="21"/>
    </contour>
  </outline>
</glyph>
<glyph name="igrave" format="1">
  <advance width="376"/>
  <unicode hex="00EC"/>
  <outline>
    <contour>
      <point x="273" y="640" type="line"/>
      <point x="166" y="806" type="line"/>
      <point x="46" y="806" type="line"/>
      <point x="180" y="640" type="line"/>
    </contour>
    <contour>
      <point x="87" y="0" type="line"/>
      <point x="358" y="0" type="line"/>
      <point x="358" y="70" type="line"/>
      <point x="274" y="70" type="line"/>
      <point x="274" y="533" type="line"/>
      <point x="87" y="533" type="line"/>
      <point x="87" y="464" type="line"/>
      <point x="177" y="464" type="line"/>
      <point x="177" y="70" type="line"/>
      <point x="87" y="70" type="line"/>
    </contour>
  </outline>
</glyph>
<glyph name="iacute" format="1">
  <advance width="378"/>
  <unicode hex="00ED"/>
  <outline>
    <contour>
      <point x="218" y="640" type="line"/>
      <point x="352" y="806" type="line"/>
      <point x="232" y="806" type="line"/>
      <point x="127" y="640" type="line"/>
    </contour>
    <contour>
      <point x="36" y="0" type="line"/>
      <point x="307" y="0" type="line"/>
      <point x="307" y="70" type="line"/>
      <point x="223" y="70" type="line"/>
      <point x="223" y="533" type="line"/>
      <point x="36" y="533" type="line"/>
      <point x="36" y="464" type="line"/>
      <point x="126" y="464" type="line"/>
      <point x="126" y="70" type="line"/>
      <point x="36" y="70" type="line"/>
    </contour>
  </outline>
</glyph>
<glyph name="icircumflex" format="1">
  <advance width="428"/>
  <unicode hex="00EE"/>
  <outline>
    <contour>
      <point x="312" y="641" type="line"/>
      <point x="406" y="641" type="line"/>
      <point x="299" y="807" type="line"/>
      <point x="149" y="807" type="line"/>
      <point x="44" y="641" type="line"/>
      <point x="136" y="641" type="line"/>
      <point x="224" y="751" type="line"/>
    </contour>
    <contour>
      <point x="88" y="0" type="line"/>
      <point x="359" y="0" type="line"/>
      <point x="359" y="70" type="line"/>
      <point x="275" y="70" type="line"/>
      <point x="275" y="533" type="line"/>
      <point x="88" y="533" type="line"/>
      <point x="88" y="464" type="line"/>
      <point x="178" y="464" type="line"/>
      <point x="178" y="70" type="line"/>
      <point x="88" y="70" type="line"/>
    </contour>
  </outline>
</glyph>
<glyph name="idieresis" format="1">
  <advance width="374"/>
  <unicode hex="00EF"/>
  <outline>
    <contour>
      <point x="276" y="639" type="curve"/>
      <point x="309" y="639"/>
      <point x="333" y="653"/>
      <point x="333" y="685" type="curve"/>
      <point x="333" y="717"/>
      <point x="309" y="732"/>
      <point x="276" y="732" type="curve"/>
      <point x="243" y="732"/>
      <point x="221" y="715"/>
      <point x="221" y="685" type="curve"/>
      <point x="221" y="655"/>
      <point x="243" y="639"/>
    </contour>
    <contour>
      <point x="113" y="639" type="curve"/>
      <point x="147" y="639"/>
      <point x="171" y="653"/>
      <point x="171" y="685" type="curve"/>
      <point x="171" y="717"/>
      <point x="147" y="732"/>
      <point x="114" y="732" type="curve"/>
      <point x="81" y="732"/>
      <point x="59" y="715"/>
      <point x="59" y="685" type="curve"/>
      <point x="59" y="655"/>
      <point x="80" y="639"/>
    </contour>
    <contour>
      <point x="59" y="0" type="line"/>
      <point x="330" y="0" type="line"/>
      <point x="330" y="70" type="line"/>
      <point x="246" y="70" type="line"/>
      <point x="246" y="533" type="line"/>
      <point x="59" y="533" type="line"/>
      <point x="59" y="464" type="line"/>
      <point x="149" y="464" type="line"/>
      <point x="149" y="70" type="line"/>
      <point x="59" y="70" type="line"/>
    </contour>
  </outline>
</glyph>
<glyph name="eth" format="1">
  <advance width="609"/>
  <unicode hex="00F0"/>
  <outline>
    <contour>
      <point x="288" y="-9" type="curve"/>
      <point x="453" y="-9"/>
      <point x="551" y="86"/>
      <point x="551" y="248" type="curve"/>
      <point x="551" y="445"/>
      <point x="457" y="569"/>
      <point x="306" y="650" type="curve"/>
      <point x="328" y="672"/>
      <point x="350" y="694"/>
      <point x="373" y="717" type="curve"/>
      <point x="330" y="760" type="line"/>
      <point x="302" y="731"/>
      <point x="275" y="705"/>
      <point x="249" y="678" type="curve"/>
      <point x="200" y="699"/>
      <point x="146" y="717"/>
      <point x="89" y="732" type="curve"/>
      <point x="80" y="701"/>
      <point x="78" y="696"/>
      <point x="78" y="696" type="curve" smooth="yes"/>
      <point x="79" y="696" type="line" smooth="yes"/>
      <point x="79" y="695" type="line" smooth="yes"/>
      <point x="79" y="695"/>
      <point x="77" y="690"/>
      <point x="68" y="659" type="curve"/>
      <point x="110" y="646"/>
      <point x="150" y="632"/>
      <point x="186" y="616" type="curve"/>
      <point x="163" y="593"/>
      <point x="140" y="570"/>
      <point x="115" y="545" type="curve"/>
      <point x="133" y="526"/>
      <point x="138" y="522"/>
      <point x="138" y="522" type="curve" smooth="yes"/>
      <point x="134" y="525" type="line" smooth="yes"/>
      <point x="134" y="525"/>
      <point x="139" y="521"/>
      <point x="157" y="502" type="curve"/>
      <point x="187" y="532"/>
      <point x="216" y="560"/>
      <point x="244" y="588" type="curve"/>
      <point x="340" y="538"/>
      <point x="410" y="472"/>
      <point x="442" y="378" type="curve"/>
      <point x="403" y="413"/>
      <point x="353" y="432"/>
      <point x="285" y="432" type="curve"/>
      <point x="141" y="432"/>
      <point x="50" y="356"/>
      <point x="50" y="215" type="curve"/>
      <point x="50" y="72"/>
      <point x="141" y="-9"/>
    </contour>
    <contour>
      <point x="284" y="73" type="curve"/>
      <point x="196" y="73"/>
      <point x="143" y="123"/>
      <point x="143" y="212" type="curve"/>
      <point x="143" y="307"/>
      <point x="198" y="359"/>
      <point x="294" y="359" type="curve"/>
      <point x="375" y="359"/>
      <point x="425" y="317"/>
      <point x="461" y="255" type="curve"/>
      <point x="461" y="252" type="line"/>
      <point x="461" y="139"/>
      <point x="397" y="73"/>
    </contour>
  </outline>
</glyph>
<glyph name="ntilde" format="1">
  <advance width="698"/>
  <unicode hex="00F1"/>
  <outline>
    <contour>
      <point x="456" y="638" type="curve"/>
      <point x="533" y="638"/>
      <point x="563" y="693"/>
      <point x="585" y="768" type="curve"/>
      <point x="549" y="783"/>
      <point x="548" y="783"/>
      <point x="548" y="783" type="curve" smooth="yes"/>
      <point x="512" y="797" type="line"/>
      <point x="502" y="754"/>
      <point x="489" y="710"/>
      <point x="456" y="710" type="curve"/>
      <point x="423" y="710"/>
      <point x="406" y="726"/>
      <point x="384" y="750" type="curve"/>
      <point x="351" y="783"/>
      <point x="325" y="802"/>
      <point x="279" y="802" type="curve"/>
      <point x="205" y="802"/>
      <point x="173" y="751"/>
      <point x="149" y="673" type="curve"/>
      <point x="219" y="642"/>
      <point x="150" y="672"/>
      <point x="219" y="642" type="curve"/>
      <point x="232" y="691"/>
      <point x="245" y="730"/>
      <point x="281" y="730" type="curve"/>
      <point x="312" y="730"/>
      <point x="326" y="711"/>
      <point x="347" y="690" type="curve"/>
      <point x="382" y="655"/>
      <point x="408" y="638"/>
    </contour>
    <contour>
      <point x="36" y="0" type="line"/>
      <point x="293" y="0" type="line"/>
      <point x="293" y="70" type="line"/>
      <point x="220" y="70" type="line"/>
      <point x="220" y="355" type="line"/>
      <point x="251" y="422"/>
      <point x="306" y="466"/>
      <point x="375" y="466" type="curve"/>
      <point x="457" y="466"/>
      <point x="500" y="410"/>
      <point x="500" y="323" type="curve"/>
      <point x="500" y="0" type="line"/>
      <point x="683" y="0" type="line"/>
      <point x="683" y="70" type="line"/>
      <point x="592" y="70" type="line"/>
      <point x="592" y="331" type="line"/>
      <point x="592" y="462"/>
      <point x="525" y="538"/>
      <point x="395" y="538" type="curve"/>
      <point x="323" y="538"/>
      <point x="264" y="510"/>
      <point x="220" y="462" type="curve"/>
      <point x="220" y="533" type="line"/>
      <point x="36" y="533" type="line"/>
      <point x="36" y="464" type="line"/>
      <point x="128" y="464" type="line"/>
      <point x="128" y="70" type="line"/>
      <point x="36" y="70" type="line"/>
    </contour>
  </outline>
</glyph>
<glyph name="otilde" format="1">
  <advance width="626"/>
  <unicode hex="00F5"/>
  <outline>
    <contour>
      <point x="400" y="640" type="curve"/>
      <point x="477" y="640"/>
      <point x="507" y="694"/>
      <point x="529" y="770" type="curve"/>
      <point x="494" y="784"/>
      <point x="492" y="784"/>
      <point x="492" y="784" type="curve" smooth="yes"/>
      <point x="456" y="799" type="line"/>
      <point x="446" y="756"/>
      <point x="433" y="711"/>
      <point x="400" y="711" type="curve"/>
      <point x="367" y="711"/>
      <point x="350" y="727"/>
      <point x="328" y="752" type="curve"/>
      <point x="295" y="784"/>
      <point x="269" y="804"/>
      <point x="223" y="804" type="curve"/>
      <point x="149" y="804"/>
      <point x="117" y="752"/>
      <point x="93" y="674" type="curve"/>
      <point x="128" y="659" type="line" smooth="yes"/>
      <point x="129" y="659"/>
      <point x="129" y="659"/>
      <point x="163" y="643" type="curve"/>
      <point x="176" y="692"/>
      <point x="189" y="731"/>
      <point x="225" y="731" type="curve"/>
      <point x="256" y="731"/>
      <point x="270" y="713"/>
      <point x="291" y="691" type="curve"/>
      <point x="326" y="657"/>
      <point x="352" y="640"/>
    </contour>
    <contour>
      <point x="56" y="268" type="curve"/>
      <point x="56" y="98"/>
      <point x="145" y="-5"/>
      <point x="311" y="-5" type="curve"/>
      <point x="479" y="-5"/>
      <point x="570" y="95"/>
      <point x="570" y="266" type="curve"/>
      <point x="570" y="433"/>
      <point x="482" y="538"/>
      <point x="313" y="538" type="curve"/>
      <point x="145" y="538"/>
      <point x="56" y="433"/>
    </contour>
    <contour>
      <point x="149" y="268" type="curve"/>
      <point x="149" y="387"/>
      <point x="198" y="469"/>
      <point x="308" y="469" type="curve"/>
      <point x="425" y="469"/>
      <point x="478" y="386"/>
      <point x="478" y="266" type="curve"/>
      <point x="478" y="145"/>
      <point x="425" y="65"/>
      <point x="316" y="65" type="curve"/>
      <point x="199" y="65"/>
      <point x="149" y="146"/>
    </contour>
  </outline>
</glyph>
<glyph name="odieresis" format="1">
  <advance width="626"/>
  <unicode hex="00F6"/>
  <outline>
    <contour>
      <point x="388" y="638" type="curve"/>
      <point x="421" y="638"/>
      <point x="445" y="652"/>
      <point x="445" y="684" type="curve"/>
      <point x="445" y="715"/>
      <point x="421" y="730"/>
      <point x="388" y="730" type="curve"/>
      <point x="355" y="730"/>
      <point x="333" y="713"/>
      <point x="333" y="684" type="curve"/>
      <point x="333" y="653"/>
      <point x="355" y="638"/>
    </contour>
    <contour>
      <point x="225" y="638" type="curve"/>
      <point x="259" y="638"/>
      <point x="283" y="652"/>
      <point x="283" y="684" type="curve"/>
      <point x="283" y="715"/>
      <point x="259" y="730"/>
      <point x="226" y="730" type="curve"/>
      <point x="193" y="730"/>
      <point x="171" y="713"/>
      <point x="171" y="684" type="curve"/>
      <point x="171" y="653"/>
      <point x="192" y="638"/>
    </contour>
    <contour>
      <point x="56" y="268" type="curve"/>
      <point x="56" y="98"/>
      <point x="145" y="-5"/>
      <point x="311" y="-5" type="curve"/>
      <point x="479" y="-5"/>
      <point x="570" y="95"/>
      <point x="570" y="266" type="curve"/>
      <point x="570" y="433"/>
      <point x="482" y="538"/>
      <point x="313" y="538" type="curve"/>
      <point x="145" y="538"/>
      <point x="56" y="433"/>
    </contour>
    <contour>
      <point x="149" y="268" type="curve"/>
      <point x="149" y="387"/>
      <point x="198" y="469"/>
      <point x="308" y="469" type="curve"/>
      <point x="425" y="469"/>
      <point x="478" y="386"/>
      <point x="478" y="266" type="curve"/>
      <point x="478" y="145"/>
      <point x="425" y="65"/>
      <point x="316" y="65" type="curve"/>
      <point x="199" y="65"/>
      <point x="149" y="146"/>
    </contour>
  </outline>
</glyph>
<glyph name="divide" format="1">
  <advance width="713"/>
  <unicode hex="00F7"/>
  <outline>
    <contour>
      <point x="349" y="435" type="curve"/>
      <point x="382" y="435"/>
      <point x="406" y="449"/>
      <point x="406" y="481" type="curve"/>
      <point x="406" y="513"/>
      <point x="382" y="528"/>
      <point x="349" y="528" type="curve"/>
      <point x="316" y="528"/>
      <point x="294" y="511"/>
      <point x="294" y="481" type="curve"/>
      <point x="294" y="451"/>
      <point x="316" y="435"/>
    </contour>
    <contour>
      <point x="74" y="273" type="line"/>
      <point x="638" y="273" type="line"/>
      <point x="638" y="349" type="line"/>
      <point x="74" y="349" type="line"/>
    </contour>
    <contour>
      <point x="348" y="81" type="curve"/>
      <point x="382" y="81"/>
      <point x="406" y="95"/>
      <point x="406" y="127" type="curve"/>
      <point x="406" y="159"/>
      <point x="382" y="174"/>
      <point x="349" y="174" type="curve"/>
      <point x="316" y="174"/>
      <point x="294" y="157"/>
      <point x="294" y="127" type="curve"/>
      <point x="294" y="97"/>
      <point x="315" y="81"/>
    </contour>
  </outline>
</glyph>
